<?xml version="1.0" encoding="UTF-8" standalone="no"?><svg xmlns="http://www.w3.org/2000/svg" xmlns:xlink="http://www.w3.org/1999/xlink" contentStyleType="text/css" height="1205px" preserveAspectRatio="none" style="width:1135px;height:1205px;background:#FFFFFF;" version="1.1" viewBox="0 0 1135 1205" width="1135px" zoomAndPan="magnify"><defs/><g><rect height="45.2188" style="stroke:#00000000;stroke-width:1.0;fill:none;" width="219" x="451" y="5"/><text fill="#000000" font-family="sans-serif" font-size="14" font-weight="bold" lengthAdjust="spacing" text-decoration="underline" textLength="209" x="456" y="24.5332">CONTROLLER's Class Diagram</text><text fill="#000000" font-family="sans-serif" font-size="14" font-weight="bold" lengthAdjust="spacing" textLength="4" x="558.5" y="42.1426"> </text><!--MD5=[6ff9cca172c9c23be7720fa07ee26538]
cluster it.polimi.ingsw.server--><g id="cluster_it.polimi.ingsw.server"><path d="M8.5,195.2188 L160.5,195.2188 A3.75,3.75 0 0 1 163,197.7188 L170,218.8281 L790.5,218.8281 A2.5,2.5 0 0 1 793,221.3281 L793,1138.7188 A2.5,2.5 0 0 1 790.5,1141.2188 L8.5,1141.2188 A2.5,2.5 0 0 1 6,1138.7188 L6,197.7188 A2.5,2.5 0 0 1 8.5,195.2188 " style="stroke:#000000;stroke-width:1.5;fill:none;"/><line style="stroke:#000000;stroke-width:1.5;fill:none;" x1="6" x2="170" y1="218.8281" y2="218.8281"/><text fill="#000000" font-family="sans-serif" font-size="14" font-weight="bold" lengthAdjust="spacing" textLength="151" x="10" y="211.752">it.polimi.ingsw.server</text></g><!--MD5=[e77627023fdf283cde8ace5853563995]
cluster it.polimi.ingsw.server.controller--><g id="cluster_it.polimi.ingsw.server.controller"><path d="M32.5,239.2188 L102.5,239.2188 A3.75,3.75 0 0 1 105,241.7188 L112,262.8281 L766.5,262.8281 A2.5,2.5 0 0 1 769,265.3281 L769,1114.7188 A2.5,2.5 0 0 1 766.5,1117.2188 L32.5,1117.2188 A2.5,2.5 0 0 1 30,1114.7188 L30,241.7188 A2.5,2.5 0 0 1 32.5,239.2188 " style="stroke:#000000;stroke-width:1.5;fill:none;"/><line style="stroke:#000000;stroke-width:1.5;fill:none;" x1="30" x2="112" y1="262.8281" y2="262.8281"/><text fill="#000000" font-family="sans-serif" font-size="14" font-weight="bold" lengthAdjust="spacing" textLength="69" x="34" y="255.752">controller</text></g><!--MD5=[aa8f7b917213fcc1c2766e2d59b49067]
cluster java.lang--><g id="cluster_java.lang"><path d="M233.5,62.2188 L297.5,62.2188 A3.75,3.75 0 0 1 300,64.7188 L307,85.8281 L354.5,85.8281 A2.5,2.5 0 0 1 357,88.3281 L357,159.7188 A2.5,2.5 0 0 1 354.5,162.2188 L233.5,162.2188 A2.5,2.5 0 0 1 231,159.7188 L231,64.7188 A2.5,2.5 0 0 1 233.5,62.2188 " style="stroke:#000000;stroke-width:1.5;fill:none;"/><line style="stroke:#000000;stroke-width:1.5;fill:none;" x1="231" x2="307" y1="85.8281" y2="85.8281"/><text fill="#000000" font-family="sans-serif" font-size="14" font-weight="bold" lengthAdjust="spacing" textLength="63" x="235" y="78.752">java.lang</text></g><!--MD5=[e3dde271ecea58e0813f7d965ac3aba6]
cluster it.polimi.ingsw.server.model.gameClasses--><g id="cluster_it.polimi.ingsw.server.model.gameClasses"><path d="M819.5,920.2188 L1115.5,920.2188 A3.75,3.75 0 0 1 1118,922.7188 L1125,943.8281 L1125.5,943.8281 A2.5,2.5 0 0 1 1128,946.3281 L1128,1017.7188 A2.5,2.5 0 0 1 1125.5,1020.2188 L819.5,1020.2188 A2.5,2.5 0 0 1 817,1017.7188 L817,922.7188 A2.5,2.5 0 0 1 819.5,920.2188 " style="stroke:#000000;stroke-width:1.5;fill:none;"/><line style="stroke:#000000;stroke-width:1.5;fill:none;" x1="817" x2="1125" y1="943.8281" y2="943.8281"/><text fill="#000000" font-family="sans-serif" font-size="14" font-weight="bold" lengthAdjust="spacing" textLength="295" x="821" y="936.752">it.polimi.ingsw.server.model.gameClasses</text></g><!--MD5=[085144bfc34476daba19e93e85a76dbb]
class it.polimi.ingsw.server.controller.ClientManager--><g id="elem_it.polimi.ingsw.server.controller.ClientManager"><rect codeLine="6" fill="#F1F1F1" height="224.0938" id="it.polimi.ingsw.server.controller.ClientManager" rx="2.5" ry="2.5" style="stroke:#181818;stroke-width:0.5;" width="169" x="209.5" y="416.2188"/><ellipse cx="244.75" cy="432.2188" fill="#ADD1B2" rx="11" ry="11" style="stroke:#181818;stroke-width:1.0;"/><path d="M246.75,428.7188 Q246.9531,428.2188 247.1875,427.9688 Q247.4219,427.7188 247.6875,427.7188 Q248.1563,427.7188 248.4531,428 Q248.75,428.2813 248.75,428.9375 L248.75,430.5 Q248.75,431.1563 248.4688,431.4375 Q248.1875,431.7188 247.75,431.7188 Q247.3594,431.7188 247.1094,431.5469 Q246.8594,431.375 246.75,430.9219 Q246.7031,430.6094 246.5313,430.4375 Q246.2188,430.1094 245.6563,429.9219 Q245.0938,429.7188 244.5313,429.7188 Q243.8281,429.7188 243.2344,430 Q242.6563,430.2813 242.2031,430.9063 Q241.75,431.5313 241.75,432.3906 L241.75,433.3125 Q241.75,434.3438 242.5938,435.0313 Q243.4375,435.7188 244.9375,435.7188 Q245.8281,435.7188 246.4531,435.5156 Q246.8125,435.4063 247.2188,435.0469 Q247.4844,434.8438 247.625,434.7813 Q247.7656,434.7188 247.9375,434.7188 Q248.2656,434.7188 248.5,434.9844 Q248.75,435.2344 248.75,435.5938 Q248.75,435.9375 248.4063,436.3438 Q247.9063,436.9375 247.1094,437.2656 Q246.0625,437.7188 244.7813,437.7188 Q243.2813,437.7188 242.0781,437.125 Q241.1094,436.6563 240.4219,435.6406 Q239.75,434.625 239.75,433.4219 L239.75,432.3281 Q239.75,431.0781 240.3438,429.9844 Q240.9531,428.8906 242,428.3125 Q243.0625,427.7188 244.25,427.7188 Q244.9688,427.7188 245.5938,427.9688 Q246.2188,428.2188 246.75,428.7188 Z " fill="#000000"/><text fill="#000000" font-family="sans-serif" font-size="14" lengthAdjust="spacing" textLength="92" x="263.25" y="437.9473">ClientManager</text><line style="stroke:#181818;stroke-width:0.5;" x1="210.5" x2="377.5" y1="448.2188" y2="448.2188"/><rect fill="none" height="6" style="stroke:#C82930;stroke-width:1.0;" width="6" x="217.5" y="456.2188"/><text fill="#000000" font-family="sans-serif" font-size="14" lengthAdjust="spacing" textLength="109" x="229.5" y="466.752">nickname : String</text><rect fill="none" height="6" style="stroke:#C82930;stroke-width:1.0;" width="6" x="217.5" y="473.8281"/><text fill="#000000" font-family="sans-serif" font-size="14" lengthAdjust="spacing" textLength="101" x="229.5" y="484.3613">online : boolean</text><rect fill="none" height="6" style="stroke:#C82930;stroke-width:1.0;" width="6" x="217.5" y="491.4375"/><text fill="#000000" font-family="sans-serif" font-size="14" lengthAdjust="spacing" textLength="96" x="229.5" y="501.9707">socket : Socket</text><rect fill="none" height="6" style="stroke:#C82930;stroke-width:1.0;" width="6" x="217.5" y="509.0469"/><text fill="#000000" font-family="sans-serif" font-size="14" lengthAdjust="spacing" textLength="117" x="229.5" y="519.5801">socketIn : Scanner</text><rect fill="none" height="6" style="stroke:#C82930;stroke-width:1.0;" width="6" x="217.5" y="526.6563"/><text fill="#000000" font-family="sans-serif" font-size="14" lengthAdjust="spacing" textLength="143" x="229.5" y="537.1895">socketOut : PrintWriter</text><line style="stroke:#181818;stroke-width:0.5;" x1="210.5" x2="377.5" y1="544.2656" y2="544.2656"/><ellipse cx="220.5" cy="555.2656" fill="#84BE84" rx="3" ry="3" style="stroke:#038048;stroke-width:1.0;"/><text fill="#000000" font-family="sans-serif" font-size="14" lengthAdjust="spacing" textLength="102" x="229.5" y="562.7988">ClientManager()</text><ellipse cx="220.5" cy="572.875" fill="#84BE84" rx="3" ry="3" style="stroke:#038048;stroke-width:1.0;"/><text fill="#000000" font-family="sans-serif" font-size="14" lengthAdjust="spacing" textLength="31" x="229.5" y="580.4082">run()</text><ellipse cx="220.5" cy="590.4844" fill="#84BE84" rx="3" ry="3" style="stroke:#038048;stroke-width:1.0;"/><text fill="#000000" font-family="sans-serif" font-size="14" lengthAdjust="spacing" textLength="98" x="229.5" y="598.0176">sendMessage()</text><rect fill="#F24D5C" height="6" style="stroke:#C82930;stroke-width:1.0;" width="6" x="217.5" y="605.0938"/><text fill="#000000" font-family="sans-serif" font-size="14" lengthAdjust="spacing" textLength="105" x="229.5" y="615.627">catchException()</text><rect fill="#F24D5C" height="6" style="stroke:#C82930;stroke-width:1.0;" width="6" x="217.5" y="622.7031"/><text fill="#000000" font-family="sans-serif" font-size="14" lengthAdjust="spacing" textLength="97" x="229.5" y="633.2363">finalException()</text></g><!--MD5=[8e6a792fbc75c110461cf9fa8d4284e9]
class it.polimi.ingsw.server.controller.GameController--><g id="elem_it.polimi.ingsw.server.controller.GameController"><rect codeLine="24" fill="#F1F1F1" height="505.8438" id="it.polimi.ingsw.server.controller.GameController" rx="2.5" ry="2.5" style="stroke:#181818;stroke-width:0.5;" width="339" x="413.5" y="275.2188"/><ellipse cx="528.75" cy="291.2188" fill="#ADD1B2" rx="11" ry="11" style="stroke:#181818;stroke-width:1.0;"/><path d="M530.75,287.7188 Q530.9531,287.2188 531.1875,286.9688 Q531.4219,286.7188 531.6875,286.7188 Q532.1563,286.7188 532.4531,287 Q532.75,287.2813 532.75,287.9375 L532.75,289.5 Q532.75,290.1563 532.4688,290.4375 Q532.1875,290.7188 531.75,290.7188 Q531.3594,290.7188 531.1094,290.5469 Q530.8594,290.375 530.75,289.9219 Q530.7031,289.6094 530.5313,289.4375 Q530.2188,289.1094 529.6563,288.9219 Q529.0938,288.7188 528.5313,288.7188 Q527.8281,288.7188 527.2344,289 Q526.6563,289.2813 526.2031,289.9063 Q525.75,290.5313 525.75,291.3906 L525.75,292.3125 Q525.75,293.3438 526.5938,294.0313 Q527.4375,294.7188 528.9375,294.7188 Q529.8281,294.7188 530.4531,294.5156 Q530.8125,294.4063 531.2188,294.0469 Q531.4844,293.8438 531.625,293.7813 Q531.7656,293.7188 531.9375,293.7188 Q532.2656,293.7188 532.5,293.9844 Q532.75,294.2344 532.75,294.5938 Q532.75,294.9375 532.4063,295.3438 Q531.9063,295.9375 531.1094,296.2656 Q530.0625,296.7188 528.7813,296.7188 Q527.2813,296.7188 526.0781,296.125 Q525.1094,295.6563 524.4219,294.6406 Q523.75,293.625 523.75,292.4219 L523.75,291.3281 Q523.75,290.0781 524.3438,288.9844 Q524.9531,287.8906 526,287.3125 Q527.0625,286.7188 528.25,286.7188 Q528.9688,286.7188 529.5938,286.9688 Q530.2188,287.2188 530.75,287.7188 Z " fill="#000000"/><text fill="#000000" font-family="sans-serif" font-size="14" lengthAdjust="spacing" textLength="100" x="549.25" y="296.9473">GameController</text><line style="stroke:#181818;stroke-width:0.5;" x1="414.5" x2="751.5" y1="307.2188" y2="307.2188"/><rect fill="none" height="6" style="stroke:#C82930;stroke-width:1.0;" width="6" x="421.5" y="315.2188"/><text fill="#000000" font-family="sans-serif" font-size="14" lengthAdjust="spacing" textLength="62" x="433.5" y="325.752">ID : String</text><rect fill="none" height="6" style="stroke:#C82930;stroke-width:1.0;" width="6" x="421.5" y="332.8281"/><text fill="#000000" font-family="sans-serif" font-size="14" lengthAdjust="spacing" textLength="137" x="433.5" y="343.3613">expertMode : boolean</text><rect fill="none" height="6" style="stroke:#C82930;stroke-width:1.0;" width="6" x="421.5" y="350.4375"/><text fill="#000000" font-family="sans-serif" font-size="14" lengthAdjust="spacing" textLength="140" x="433.5" y="360.9707">gameEnded : Boolean</text><rect fill="none" height="6" style="stroke:#C82930;stroke-width:1.0;" width="6" x="421.5" y="368.0469"/><text fill="#000000" font-family="sans-serif" font-size="14" lengthAdjust="spacing" textLength="262" x="433.5" y="378.5801">inputBuffer : ArrayList&lt;ArrayList&lt;String&gt;&gt;</text><rect fill="none" height="6" style="stroke:#C82930;stroke-width:1.0;" width="6" x="421.5" y="385.6563"/><text fill="#000000" font-family="sans-serif" font-size="14" lengthAdjust="spacing" textLength="115" x="433.5" y="396.1895">playerNumber : int</text><rect fill="none" height="6" style="stroke:#C82930;stroke-width:1.0;" width="6" x="421.5" y="403.2656"/><text fill="#000000" font-family="sans-serif" font-size="14" lengthAdjust="spacing" textLength="298" x="433.5" y="413.7988">playerOrder : ArrayList&lt;Entry&lt;String, Integer&gt;&gt;</text><rect fill="none" height="6" style="stroke:#C82930;stroke-width:1.0;" width="6" x="421.5" y="420.875"/><text fill="#000000" font-family="sans-serif" font-size="14" lengthAdjust="spacing" textLength="313" x="433.5" y="431.4082">playerSockets : HashMap&lt;String, ClientManager&gt;</text><rect fill="none" height="6" style="stroke:#C82930;stroke-width:1.0;" width="6" x="421.5" y="438.4844"/><text fill="#000000" font-family="sans-serif" font-size="14" lengthAdjust="spacing" textLength="264" x="433.5" y="449.0176">playerWizards : HashMap&lt;String, Wizard&gt;</text><rect fill="none" height="6" style="stroke:#C82930;stroke-width:1.0;" width="6" x="421.5" y="456.0938"/><text fill="#000000" font-family="sans-serif" font-size="14" lengthAdjust="spacing" textLength="167" x="433.5" y="466.627">players : ArrayList&lt;String&gt;</text><rect fill="none" height="6" style="stroke:#C82930;stroke-width:1.0;" width="6" x="421.5" y="473.7031"/><text fill="#000000" font-family="sans-serif" font-size="14" lengthAdjust="spacing" textLength="271" x="433.5" y="484.2363">playersOnline : HashMap&lt;String, Boolean&gt;</text><line style="stroke:#181818;stroke-width:0.5;" x1="414.5" x2="751.5" y1="491.3125" y2="491.3125"/><ellipse cx="424.5" cy="502.3125" fill="#84BE84" rx="3" ry="3" style="stroke:#038048;stroke-width:1.0;"/><text fill="#000000" font-family="sans-serif" font-size="14" lengthAdjust="spacing" textLength="110" x="433.5" y="509.8457">GameController()</text><ellipse cx="424.5" cy="519.9219" fill="#84BE84" rx="3" ry="3" style="stroke:#038048;stroke-width:1.0;"/><text fill="#000000" font-family="sans-serif" font-size="14" lengthAdjust="spacing" textLength="109" x="433.5" y="527.4551">getGameEnded()</text><ellipse cx="424.5" cy="537.5313" fill="#84BE84" rx="3" ry="3" style="stroke:#038048;stroke-width:1.0;"/><text fill="#000000" font-family="sans-serif" font-size="14" lengthAdjust="spacing" textLength="43" x="433.5" y="545.0645">getID()</text><ellipse cx="424.5" cy="555.1406" fill="#84BE84" rx="3" ry="3" style="stroke:#038048;stroke-width:1.0;"/><text fill="#000000" font-family="sans-serif" font-size="14" lengthAdjust="spacing" textLength="77" x="433.5" y="562.6738">getPlayers()</text><ellipse cx="424.5" cy="572.75" fill="#84BE84" rx="3" ry="3" style="stroke:#038048;stroke-width:1.0;"/><text fill="#000000" font-family="sans-serif" font-size="14" lengthAdjust="spacing" textLength="118" x="433.5" y="580.2832">getPlayersOnline()</text><ellipse cx="424.5" cy="590.3594" fill="#84BE84" rx="3" ry="3" style="stroke:#038048;stroke-width:1.0;"/><text fill="#000000" font-family="sans-serif" font-size="14" lengthAdjust="spacing" textLength="96" x="433.5" y="597.8926">orderByValue()</text><ellipse cx="424.5" cy="607.9688" fill="#84BE84" rx="3" ry="3" style="stroke:#038048;stroke-width:1.0;"/><text fill="#000000" font-family="sans-serif" font-size="14" lengthAdjust="spacing" textLength="103" x="433.5" y="615.502">parseMessage()</text><ellipse cx="424.5" cy="625.5781" fill="#84BE84" rx="3" ry="3" style="stroke:#038048;stroke-width:1.0;"/><text fill="#000000" font-family="sans-serif" font-size="14" lengthAdjust="spacing" textLength="135" x="433.5" y="633.1113">playerDisconnected()</text><ellipse cx="424.5" cy="643.1875" fill="#84BE84" rx="3" ry="3" style="stroke:#038048;stroke-width:1.0;"/><text fill="#000000" font-family="sans-serif" font-size="14" lengthAdjust="spacing" textLength="133" x="433.5" y="650.7207">playerReconnected()</text><rect fill="#F24D5C" height="6" style="stroke:#C82930;stroke-width:1.0;" width="6" x="421.5" y="657.7969"/><text fill="#000000" font-family="sans-serif" font-size="14" lengthAdjust="spacing" textLength="102" x="433.5" y="668.3301">acceptWizards()</text><rect fill="#F24D5C" height="6" style="stroke:#C82930;stroke-width:1.0;" width="6" x="421.5" y="675.4063"/><text fill="#000000" font-family="sans-serif" font-size="14" lengthAdjust="spacing" textLength="88" x="433.5" y="685.9395">actionPhase()</text><rect fill="#F24D5C" height="6" style="stroke:#C82930;stroke-width:1.0;" width="6" x="421.5" y="693.0156"/><text fill="#000000" font-family="sans-serif" font-size="14" lengthAdjust="spacing" textLength="86" x="433.5" y="703.5488">gameEnded()</text><rect fill="#F24D5C" height="6" style="stroke:#C82930;stroke-width:1.0;" width="6" x="421.5" y="710.625"/><text fill="#000000" font-family="sans-serif" font-size="14" lengthAdjust="spacing" textLength="97" x="433.5" y="721.1582">manageEffect()</text><rect fill="#F24D5C" height="6" style="stroke:#C82930;stroke-width:1.0;" width="6" x="421.5" y="728.2344"/><text fill="#000000" font-family="sans-serif" font-size="14" lengthAdjust="spacing" textLength="93" x="433.5" y="738.7676">nextMessage()</text><rect fill="#F24D5C" height="6" style="stroke:#C82930;stroke-width:1.0;" width="6" x="421.5" y="745.8438"/><text fill="#000000" font-family="sans-serif" font-size="14" lengthAdjust="spacing" textLength="125" x="433.5" y="756.377">pianificationPhase()</text><rect fill="#F24D5C" height="6" style="stroke:#C82930;stroke-width:1.0;" width="6" x="421.5" y="763.4531"/><text fill="#000000" font-family="sans-serif" font-size="14" lengthAdjust="spacing" textLength="83" x="433.5" y="773.9863">updateView()</text></g><!--MD5=[32417e1db4ec1ecedd7621c895c1d91e]
class it.polimi.ingsw.server.controller.ServerController--><g id="elem_it.polimi.ingsw.server.controller.ServerController"><rect codeLine="58" fill="#F1F1F1" height="241.7031" id="it.polimi.ingsw.server.controller.ServerController" rx="2.5" ry="2.5" style="stroke:#181818;stroke-width:0.5;" width="435" x="61.5" y="859.2188"/><ellipse cx="222.75" cy="875.2188" fill="#ADD1B2" rx="11" ry="11" style="stroke:#181818;stroke-width:1.0;"/><path d="M224.75,871.7188 Q224.9531,871.2188 225.1875,870.9688 Q225.4219,870.7188 225.6875,870.7188 Q226.1563,870.7188 226.4531,871 Q226.75,871.2813 226.75,871.9375 L226.75,873.5 Q226.75,874.1563 226.4688,874.4375 Q226.1875,874.7188 225.75,874.7188 Q225.3594,874.7188 225.1094,874.5469 Q224.8594,874.375 224.75,873.9219 Q224.7031,873.6094 224.5313,873.4375 Q224.2188,873.1094 223.6563,872.9219 Q223.0938,872.7188 222.5313,872.7188 Q221.8281,872.7188 221.2344,873 Q220.6563,873.2813 220.2031,873.9063 Q219.75,874.5313 219.75,875.3906 L219.75,876.3125 Q219.75,877.3438 220.5938,878.0313 Q221.4375,878.7188 222.9375,878.7188 Q223.8281,878.7188 224.4531,878.5156 Q224.8125,878.4063 225.2188,878.0469 Q225.4844,877.8438 225.625,877.7813 Q225.7656,877.7188 225.9375,877.7188 Q226.2656,877.7188 226.5,877.9844 Q226.75,878.2344 226.75,878.5938 Q226.75,878.9375 226.4063,879.3438 Q225.9063,879.9375 225.1094,880.2656 Q224.0625,880.7188 222.7813,880.7188 Q221.2813,880.7188 220.0781,880.125 Q219.1094,879.6563 218.4219,878.6406 Q217.75,877.625 217.75,876.4219 L217.75,875.3281 Q217.75,874.0781 218.3438,872.9844 Q218.9531,871.8906 220,871.3125 Q221.0625,870.7188 222.25,870.7188 Q222.9688,870.7188 223.5938,870.9688 Q224.2188,871.2188 224.75,871.7188 Z " fill="#000000"/><text fill="#000000" font-family="sans-serif" font-size="14" lengthAdjust="spacing" textLength="104" x="243.25" y="880.9473">ServerController</text><line style="stroke:#181818;stroke-width:0.5;" x1="62.5" x2="495.5" y1="891.2188" y2="891.2188"/><rect fill="none" height="6" style="stroke:#C82930;stroke-width:1.0;" width="6" x="69.5" y="899.2188"/><text fill="#000000" font-family="sans-serif" font-size="14" lengthAdjust="spacing" textLength="261" x="81.5" y="909.752">openGames : ArrayList&lt;GameController&gt;</text><rect fill="none" height="6" style="stroke:#C82930;stroke-width:1.0;" width="6" x="69.5" y="916.8281"/><text fill="#000000" font-family="sans-serif" font-size="14" lengthAdjust="spacing" textLength="409" x="81.5" y="927.3613">playerLobby : ArrayList&lt;Entry&lt;String, Entry&lt;Integer, Boolean&gt;&gt;&gt;</text><rect fill="none" height="6" style="stroke:#C82930;stroke-width:1.0;" width="6" x="69.5" y="934.4375"/><text fill="#000000" font-family="sans-serif" font-size="14" lengthAdjust="spacing" textLength="313" x="81.5" y="944.9707">playerSockets : HashMap&lt;String, ClientManager&gt;</text><line style="stroke:#181818;stroke-width:0.5;" x1="62.5" x2="495.5" y1="952.0469" y2="952.0469"/><ellipse cx="72.5" cy="963.0469" fill="#84BE84" rx="3" ry="3" style="stroke:#038048;stroke-width:1.0;"/><text fill="#000000" font-family="sans-serif" font-size="14" lengthAdjust="spacing" textLength="114" x="81.5" y="970.5801">ServerController()</text><ellipse cx="72.5" cy="980.6563" fill="#84BE84" rx="3" ry="3" style="stroke:#038048;stroke-width:1.0;"/><text fill="#000000" font-family="sans-serif" font-size="14" lengthAdjust="spacing" textLength="115" x="81.5" y="988.1895">addPlayersocket()</text><ellipse cx="72.5" cy="998.2656" fill="#84BE84" rx="3" ry="3" style="stroke:#038048;stroke-width:1.0;"/><text fill="#000000" font-family="sans-serif" font-size="14" lengthAdjust="spacing" textLength="127" x="81.5" y="1005.7988">availableNickname()</text><ellipse cx="72.5" cy="1015.875" fill="#84BE84" rx="3" ry="3" style="stroke:#038048;stroke-width:1.0;"/><text fill="#000000" font-family="sans-serif" font-size="14" lengthAdjust="spacing" textLength="190" x="81.5" y="1023.4082">managePlayerDisconnection()</text><ellipse cx="72.5" cy="1033.4844" fill="#84BE84" rx="3" ry="3" style="stroke:#038048;stroke-width:1.0;"/><text fill="#000000" font-family="sans-serif" font-size="14" lengthAdjust="spacing" textLength="103" x="81.5" y="1041.0176">parseMessage()</text><rect fill="#F24D5C" height="6" style="stroke:#C82930;stroke-width:1.0;" width="6" x="69.5" y="1048.0938"/><text fill="#000000" font-family="sans-serif" font-size="14" lengthAdjust="spacing" textLength="156" x="81.5" y="1058.627">manageGameMessage()</text><rect fill="#F24D5C" height="6" style="stroke:#C82930;stroke-width:1.0;" width="6" x="69.5" y="1065.7031"/><text fill="#000000" font-family="sans-serif" font-size="14" lengthAdjust="spacing" textLength="145" x="81.5" y="1076.2363">managePlayMessage()</text><rect fill="#F24D5C" height="6" style="stroke:#C82930;stroke-width:1.0;" width="6" x="69.5" y="1083.3125"/><text fill="#000000" font-family="sans-serif" font-size="14" lengthAdjust="spacing" textLength="183" x="81.5" y="1093.8457">manageQuitLobbyMessage()</text></g><!--MD5=[9fd2d2da92a84cf789891271b6b64cf8]
class it.polimi.ingsw.server.controller.ServerNetwork--><g id="elem_it.polimi.ingsw.server.controller.ServerNetwork"><rect codeLine="77" fill="#F1F1F1" height="83.2188" id="it.polimi.ingsw.server.controller.ServerNetwork" rx="2.5" ry="2.5" style="stroke:#181818;stroke-width:0.5;" width="128" x="46" y="486.7188"/><ellipse cx="62.8" cy="502.7188" fill="#ADD1B2" rx="11" ry="11" style="stroke:#181818;stroke-width:1.0;"/><path d="M64.8,499.2188 Q65.0031,498.7188 65.2375,498.4688 Q65.4719,498.2188 65.7375,498.2188 Q66.2063,498.2188 66.5031,498.5 Q66.8,498.7813 66.8,499.4375 L66.8,501 Q66.8,501.6563 66.5188,501.9375 Q66.2375,502.2188 65.8,502.2188 Q65.4094,502.2188 65.1594,502.0469 Q64.9094,501.875 64.8,501.4219 Q64.7531,501.1094 64.5813,500.9375 Q64.2688,500.6094 63.7063,500.4219 Q63.1438,500.2188 62.5813,500.2188 Q61.8781,500.2188 61.2844,500.5 Q60.7063,500.7813 60.2531,501.4063 Q59.8,502.0313 59.8,502.8906 L59.8,503.8125 Q59.8,504.8438 60.6438,505.5313 Q61.4875,506.2188 62.9875,506.2188 Q63.8781,506.2188 64.5031,506.0156 Q64.8625,505.9063 65.2688,505.5469 Q65.5344,505.3438 65.675,505.2813 Q65.8156,505.2188 65.9875,505.2188 Q66.3156,505.2188 66.55,505.4844 Q66.8,505.7344 66.8,506.0938 Q66.8,506.4375 66.4563,506.8438 Q65.9563,507.4375 65.1594,507.7656 Q64.1125,508.2188 62.8313,508.2188 Q61.3313,508.2188 60.1281,507.625 Q59.1594,507.1563 58.4719,506.1406 Q57.8,505.125 57.8,503.9219 L57.8,502.8281 Q57.8,501.5781 58.3938,500.4844 Q59.0031,499.3906 60.05,498.8125 Q61.1125,498.2188 62.3,498.2188 Q63.0188,498.2188 63.6438,498.4688 Q64.2688,498.7188 64.8,499.2188 Z " fill="#000000"/><text fill="#000000" font-family="sans-serif" font-size="14" lengthAdjust="spacing" textLength="92" x="77.2" y="508.4473">ServerNetwork</text><line style="stroke:#181818;stroke-width:0.5;" x1="47" x2="173" y1="518.7188" y2="518.7188"/><rect fill="none" height="6" style="stroke:#C82930;stroke-width:1.0;" width="6" x="54" y="526.7188"/><text fill="#000000" font-family="sans-serif" font-size="14" lengthAdjust="spacing" textLength="52" x="66" y="537.252">port : int</text><line style="stroke:#181818;stroke-width:0.5;" x1="47" x2="173" y1="544.3281" y2="544.3281"/><ellipse cx="57" cy="555.3281" fill="#84BE84" rx="3" ry="3" style="stroke:#038048;stroke-width:1.0;"/><text fill="#000000" font-family="sans-serif" font-size="14" lengthAdjust="spacing" textLength="102" x="66" y="562.8613">ServerNetwork()</text></g><!--MD5=[8dac795f9edbf65a524ac462449c98fb]
class java.lang.Runnable--><g id="elem_java.lang.Runnable"><rect fill="#F1F1F1" height="48" id="java.lang.Runnable" rx="2.5" ry="2.5" style="stroke:#181818;stroke-width:0.5;" width="93" x="247.5" y="98.2188"/><ellipse cx="262.5" cy="114.2188" fill="#ADD1B2" rx="11" ry="11" style="stroke:#181818;stroke-width:1.0;"/><path d="M264.5,110.7188 Q264.7031,110.2188 264.9375,109.9688 Q265.1719,109.7188 265.4375,109.7188 Q265.9063,109.7188 266.2031,110 Q266.5,110.2813 266.5,110.9375 L266.5,112.5 Q266.5,113.1563 266.2188,113.4375 Q265.9375,113.7188 265.5,113.7188 Q265.1094,113.7188 264.8594,113.5469 Q264.6094,113.375 264.5,112.9219 Q264.4531,112.6094 264.2813,112.4375 Q263.9688,112.1094 263.4063,111.9219 Q262.8438,111.7188 262.2813,111.7188 Q261.5781,111.7188 260.9844,112 Q260.4063,112.2813 259.9531,112.9063 Q259.5,113.5313 259.5,114.3906 L259.5,115.3125 Q259.5,116.3438 260.3438,117.0313 Q261.1875,117.7188 262.6875,117.7188 Q263.5781,117.7188 264.2031,117.5156 Q264.5625,117.4063 264.9688,117.0469 Q265.2344,116.8438 265.375,116.7813 Q265.5156,116.7188 265.6875,116.7188 Q266.0156,116.7188 266.25,116.9844 Q266.5,117.2344 266.5,117.5938 Q266.5,117.9375 266.1563,118.3438 Q265.6563,118.9375 264.8594,119.2656 Q263.8125,119.7188 262.5313,119.7188 Q261.0313,119.7188 259.8281,119.125 Q258.8594,118.6563 258.1719,117.6406 Q257.5,116.625 257.5,115.4219 L257.5,114.3281 Q257.5,113.0781 258.0938,111.9844 Q258.7031,110.8906 259.75,110.3125 Q260.8125,109.7188 262,109.7188 Q262.7188,109.7188 263.3438,109.9688 Q263.9688,110.2188 264.5,110.7188 Z " fill="#000000"/><text fill="#000000" font-family="sans-serif" font-size="14" lengthAdjust="spacing" textLength="61" x="276.5" y="119.9473">Runnable</text><line style="stroke:#181818;stroke-width:0.5;" x1="248.5" x2="339.5" y1="130.2188" y2="130.2188"/><line style="stroke:#181818;stroke-width:0.5;" x1="248.5" x2="339.5" y1="138.2188" y2="138.2188"/></g><!--MD5=[385ab338233e696960f3a7d24cc61f25]
class it.polimi.ingsw.server.model.gameClasses.GameClass--><g id="elem_it.polimi.ingsw.server.model.gameClasses.GameClass"><rect fill="#F1F1F1" height="48" id="it.polimi.ingsw.server.model.gameClasses.GameClass" rx="2.5" ry="2.5" style="stroke:#181818;stroke-width:0.5;" width="105" x="833.5" y="956.2188"/><ellipse cx="848.5" cy="972.2188" fill="#ADD1B2" rx="11" ry="11" style="stroke:#181818;stroke-width:1.0;"/><path d="M850.5,968.7188 Q850.7031,968.2188 850.9375,967.9688 Q851.1719,967.7188 851.4375,967.7188 Q851.9063,967.7188 852.2031,968 Q852.5,968.2813 852.5,968.9375 L852.5,970.5 Q852.5,971.1563 852.2188,971.4375 Q851.9375,971.7188 851.5,971.7188 Q851.1094,971.7188 850.8594,971.5469 Q850.6094,971.375 850.5,970.9219 Q850.4531,970.6094 850.2813,970.4375 Q849.9688,970.1094 849.4063,969.9219 Q848.8438,969.7188 848.2813,969.7188 Q847.5781,969.7188 846.9844,970 Q846.4063,970.2813 845.9531,970.9063 Q845.5,971.5313 845.5,972.3906 L845.5,973.3125 Q845.5,974.3438 846.3438,975.0313 Q847.1875,975.7188 848.6875,975.7188 Q849.5781,975.7188 850.2031,975.5156 Q850.5625,975.4063 850.9688,975.0469 Q851.2344,974.8438 851.375,974.7813 Q851.5156,974.7188 851.6875,974.7188 Q852.0156,974.7188 852.25,974.9844 Q852.5,975.2344 852.5,975.5938 Q852.5,975.9375 852.1563,976.3438 Q851.6563,976.9375 850.8594,977.2656 Q849.8125,977.7188 848.5313,977.7188 Q847.0313,977.7188 845.8281,977.125 Q844.8594,976.6563 844.1719,975.6406 Q843.5,974.625 843.5,973.4219 L843.5,972.3281 Q843.5,971.0781 844.0938,969.9844 Q844.7031,968.8906 845.75,968.3125 Q846.8125,967.7188 848,967.7188 Q848.7188,967.7188 849.3438,967.9688 Q849.9688,968.2188 850.5,968.7188 Z " fill="#000000"/><text fill="#000000" font-family="sans-serif" font-size="14" lengthAdjust="spacing" textLength="73" x="862.5" y="977.9473">GameClass</text><line style="stroke:#181818;stroke-width:0.5;" x1="834.5" x2="937.5" y1="988.2188" y2="988.2188"/><line style="stroke:#181818;stroke-width:0.5;" x1="834.5" x2="937.5" y1="996.2188" y2="996.2188"/></g><!--MD5=[e9a94c6f7fab7c1880f3c399ea5f9eb0]
reverse link java.lang.Runnable to it.polimi.ingsw.server.controller.ClientManager--><g id="link_java.lang.Runnable_it.polimi.ingsw.server.controller.ClientManager"><path codeLine="85" d="M294,166.4688 C294,225.5187 294,333.4188 294,415.8787 " fill="none" id="java.lang.Runnable-backto-it.polimi.ingsw.server.controller.ClientManager" style="stroke:#181818;stroke-width:1.0;stroke-dasharray:7.0,7.0;"/><polygon fill="none" points="287,166.3887,294,146.3887,301,166.3887,287,166.3887" style="stroke:#181818;stroke-width:1.0;"/></g><!--MD5=[7d386ff54656342e9ceadee146d7e197]
reverse link it.polimi.ingsw.server.controller.ClientManager to it.polimi.ingsw.server.controller.ServerController--><g id="link_it.polimi.ingsw.server.controller.ClientManager_it.polimi.ingsw.server.controller.ServerController"><path codeLine="86" d="M289.86,653.4988 C287.72,717.6188 285.12,795.4888 283.01,859.0088 " fill="none" id="it.polimi.ingsw.server.controller.ClientManager-backto-it.polimi.ingsw.server.controller.ServerController" style="stroke:#181818;stroke-width:1.0;"/><polygon fill="none" points="290.29,640.4588,286.0945,646.3237,289.8946,652.4522,294.0901,646.5873,290.29,640.4588" style="stroke:#181818;stroke-width:1.0;"/><text fill="#000000" font-family="sans-serif" font-size="13" lengthAdjust="spacing" textLength="53" x="285" y="825.7139">controller</text></g><!--MD5=[98c9c21e74e1fae0129e93b85777833a]
reverse link it.polimi.ingsw.server.controller.GameController to it.polimi.ingsw.server.model.gameClasses.GameClass--><g id="link_it.polimi.ingsw.server.controller.GameController_it.polimi.ingsw.server.model.gameClasses.GameClass"><path codeLine="87" d="M760.03,792.1388 C805.82,860.1388 848.41,923.3888 870.4,956.0488 " fill="none" id="it.polimi.ingsw.server.controller.GameController-backto-it.polimi.ingsw.server.model.gameClasses.GameClass" style="stroke:#181818;stroke-width:1.0;"/><polygon fill="none" points="752.66,781.1888,752.6952,788.3998,759.3651,791.1407,759.3299,783.9297,752.66,781.1888" style="stroke:#181818;stroke-width:1.0;"/><text fill="#000000" font-family="sans-serif" font-size="13" lengthAdjust="spacing" textLength="58" x="780" y="825.7139">newGame</text></g><!--MD5=[0c687a196494c0db1b59408666f90829]
reverse link it.polimi.ingsw.server.controller.ServerNetwork to it.polimi.ingsw.server.controller.ServerController--><g id="link_it.polimi.ingsw.server.controller.ServerNetwork_it.polimi.ingsw.server.controller.ServerController"><path codeLine="88" d="M125.67,582.5488 C141.16,633.9288 166.21,713.5988 192,781.2188 C201.7,806.6588 212.88,833.5587 223.93,859.0688 " fill="none" id="it.polimi.ingsw.server.controller.ServerNetwork-backto-it.polimi.ingsw.server.controller.ServerController" style="stroke:#181818;stroke-width:1.0;"/><polygon fill="none" points="121.85,569.7988,119.7384,576.6938,125.2909,581.2948,127.4025,574.3998,121.85,569.7988" style="stroke:#181818;stroke-width:1.0;"/><text fill="#000000" font-family="sans-serif" font-size="13" lengthAdjust="spacing" textLength="53" x="210" y="825.7139">controller</text></g><rect height="50.3125" style="stroke:#00000000;stroke-width:1.0;fill:none;" width="394" x="727" y="1147.2188"/><text fill="#888888" font-family="sans-serif" font-size="10" lengthAdjust="spacing" textLength="3" x="922.5" y="1157.5996"> </text><text fill="#888888" font-family="sans-serif" font-size="10" lengthAdjust="spacing" textLength="3" x="922.5" y="1170.1777"> </text><text fill="#888888" font-family="sans-serif" font-size="10" lengthAdjust="spacing" textLength="392" x="728" y="1182.7559">PlantUML diagram generated by SketchIt! (https://bitbucket.org/pmesmeur/sketch.it)</text><text fill="#888888" font-family="sans-serif" font-size="10" lengthAdjust="spacing" textLength="394" x="727" y="1195.334">For more information about this tool, please contact philippe.mesmeur@gmail.com</text><!--MD5=[7dda875ed31a04bfe58abd81d26bfdf0]
@startuml

title __CONTROLLER's Class Diagram__\n

  namespace it.polimi.ingsw.server {
    namespace controller {
      class it.polimi.ingsw.server.controller.ClientManager {
          - nickname : String
          - online : boolean
          - socket : Socket
          - socketIn : Scanner
          - socketOut : PrintWriter
          + ClientManager()
          + run()
          + sendMessage()
          - catchException()
          - finalException()
      }
    }
  }
  

  namespace it.polimi.ingsw.server {
    namespace controller {
      class it.polimi.ingsw.server.controller.GameController {
          - ID : String
          - expertMode : boolean
          - gameEnded : Boolean
          - inputBuffer : ArrayList<ArrayList<String>>
          - playerNumber : int
          - playerOrder : ArrayList<Entry<String, Integer>>
          - playerSockets : HashMap<String, ClientManager>
          - playerWizards : HashMap<String, Wizard>
          - players : ArrayList<String>
          - playersOnline : HashMap<String, Boolean>
          + GameController()
          + getGameEnded()
          + getID()
          + getPlayers()
          + getPlayersOnline()
          + orderByValue()
          + parseMessage()
          + playerDisconnected()
          + playerReconnected()
          - acceptWizards()
          - actionPhase()
          - gameEnded()
          - manageEffect()
          - nextMessage()
          - pianificationPhase()
          - updateView()
      }
    }
  }
  

  namespace it.polimi.ingsw.server {
    namespace controller {
      class it.polimi.ingsw.server.controller.ServerController {
          - openGames : ArrayList<GameController>
          - playerLobby : ArrayList<Entry<String, Entry<Integer, Boolean>>>
          - playerSockets : HashMap<String, ClientManager>
          + ServerController()
          + addPlayersocket()
          + availableNickname()
          + managePlayerDisconnection()
          + parseMessage()
          - manageGameMessage()
          - managePlayMessage()
          - manageQuitLobbyMessage()
      }
    }
  }
  

  namespace it.polimi.ingsw.server {
    namespace controller {
      class it.polimi.ingsw.server.controller.ServerNetwork {
          - port : int
          + ServerNetwork()
      }
    }
  }
  

  it.polimi.ingsw.server.controller.ClientManager .up.|> java.lang.Runnable
  it.polimi.ingsw.server.controller.ClientManager o- - it.polimi.ingsw.server.controller.ServerController : controller
  it.polimi.ingsw.server.controller.GameController o- - it.polimi.ingsw.server.model.gameClasses.GameClass : newGame
  it.polimi.ingsw.server.controller.ServerNetwork o- - it.polimi.ingsw.server.controller.ServerController : controller


right footer


PlantUML diagram generated by SketchIt! (https://bitbucket.org/pmesmeur/sketch.it)
For more information about this tool, please contact philippe.mesmeur@gmail.com
endfooter

@enduml

PlantUML version 1.2022.5(Sat Apr 30 12:55:52 CEST 2022)
(GPL source distribution)
Java Runtime: OpenJDK Runtime Environment
JVM: OpenJDK 64-Bit Server VM
Default Encoding: Cp1252
Language: en
Country: US
--></g></svg>