<?xml version="1.0" encoding="UTF-8" standalone="no"?><svg xmlns="http://www.w3.org/2000/svg" xmlns:xlink="http://www.w3.org/1999/xlink" contentStyleType="text/css" height="452px" preserveAspectRatio="none" style="width:402px;height:452px;background:#FFFFFF;" version="1.1" viewBox="0 0 402 452" width="402px" zoomAndPan="magnify"><defs/><g><rect height="45.2188" style="stroke:#00000000;stroke-width:1.0;fill:none;" width="159" x="117.5" y="5"/><text fill="#000000" font-family="sans-serif" font-size="14" font-weight="bold" lengthAdjust="spacing" text-decoration="underline" textLength="149" x="122.5" y="24.5332">VIEW's Class Diagram</text><text fill="#000000" font-family="sans-serif" font-size="14" font-weight="bold" lengthAdjust="spacing" textLength="4" x="195" y="42.1426"> </text><!--MD5=[1254e979b773d7dd91b2a0f20daaeac0]
cluster it.polimi.ingsw.client--><g id="cluster_it.polimi.ingsw.client"><path d="M79,62.2188 L223,62.2188 A3.75,3.75 0 0 1 225.5,64.7188 L232.5,85.8281 L328,85.8281 A2.5,2.5 0 0 1 330.5,88.3281 L330.5,385.7188 A2.5,2.5 0 0 1 328,388.2188 L79,388.2188 A2.5,2.5 0 0 1 76.5,385.7188 L76.5,64.7188 A2.5,2.5 0 0 1 79,62.2188 " style="stroke:#000000;stroke-width:1.5;fill:none;"/><line style="stroke:#000000;stroke-width:1.5;fill:none;" x1="76.5" x2="232.5" y1="85.8281" y2="85.8281"/><text fill="#000000" font-family="sans-serif" font-size="14" font-weight="bold" lengthAdjust="spacing" textLength="143" x="80.5" y="78.752">it.polimi.ingsw.client</text></g><!--MD5=[0ebdcbcf3276cc12072e15e40929a817]
cluster it.polimi.ingsw.client.view--><g id="cluster_it.polimi.ingsw.client.view"><path d="M103,106.2188 L137,106.2188 A3.75,3.75 0 0 1 139.5,108.7188 L146.5,129.8281 L304,129.8281 A2.5,2.5 0 0 1 306.5,132.3281 L306.5,361.7188 A2.5,2.5 0 0 1 304,364.2188 L103,364.2188 A2.5,2.5 0 0 1 100.5,361.7188 L100.5,108.7188 A2.5,2.5 0 0 1 103,106.2188 " style="stroke:#000000;stroke-width:1.5;fill:none;"/><line style="stroke:#000000;stroke-width:1.5;fill:none;" x1="100.5" x2="146.5" y1="129.8281" y2="129.8281"/><text fill="#000000" font-family="sans-serif" font-size="14" font-weight="bold" lengthAdjust="spacing" textLength="33" x="104.5" y="122.752">view</text></g><!--MD5=[e65d535a5ae2e6d0b3d0a405acfa3469]
class it.polimi.ingsw.client.view.ViewInterface--><g id="elem_it.polimi.ingsw.client.view.ViewInterface"><rect codeLine="6" fill="#F1F1F1" height="206.4844" id="it.polimi.ingsw.client.view.ViewInterface" rx="2.5" ry="2.5" style="stroke:#181818;stroke-width:0.5;" width="174" x="116.5" y="142.2188"/><ellipse cx="157.15" cy="158.2188" fill="#B4A7E5" rx="11" ry="11" style="stroke:#181818;stroke-width:1.0;"/><path d="M158.15,155.2188 L158.15,161.2188 L160.15,161.2188 L160.6344,161.2188 L161.15,161.8438 L161.15,162.2188 L161.15,162.5938 L160.6344,163.2188 L160.15,163.2188 L154.15,163.2188 L153.6656,163.2188 L153.15,162.5938 L153.15,162.2188 L153.15,161.8438 L153.6656,161.2188 L154.15,161.2188 L156.15,161.2188 L156.15,155.2188 L154.15,155.2188 L153.6656,155.2188 L153.15,154.5938 L153.15,154.2188 L153.15,153.8438 L153.6656,153.2188 L154.15,153.2188 L160.15,153.2188 L160.6344,153.2188 L161.15,153.8438 L161.15,154.2188 L161.15,154.5938 L160.6344,155.2188 L160.15,155.2188 L158.15,155.2188 Z " fill="#000000"/><text fill="#000000" font-family="sans-serif" font-size="14" font-style="italic" lengthAdjust="spacing" textLength="85" x="176.85" y="163.9473">ViewInterface</text><line style="stroke:#181818;stroke-width:0.5;" x1="117.5" x2="289.5" y1="174.2188" y2="174.2188"/><line style="stroke:#181818;stroke-width:0.5;" x1="117.5" x2="289.5" y1="182.2188" y2="182.2188"/><ellipse cx="127.5" cy="193.2188" fill="#84BE84" rx="3" ry="3" style="stroke:#038048;stroke-width:1.0;"/><text fill="#000000" font-family="sans-serif" font-size="14" font-style="italic" lengthAdjust="spacing" textLength="74" x="136.5" y="200.752">endScene()</text><ellipse cx="127.5" cy="210.8281" fill="#84BE84" rx="3" ry="3" style="stroke:#038048;stroke-width:1.0;"/><text fill="#000000" font-family="sans-serif" font-size="14" font-style="italic" lengthAdjust="spacing" textLength="90" x="136.5" y="218.3613">helperScene()</text><ellipse cx="127.5" cy="228.4375" fill="#84BE84" rx="3" ry="3" style="stroke:#038048;stroke-width:1.0;"/><text fill="#000000" font-family="sans-serif" font-size="14" font-style="italic" lengthAdjust="spacing" textLength="65" x="136.5" y="235.9707">lockView()</text><ellipse cx="127.5" cy="246.0469" fill="#84BE84" rx="3" ry="3" style="stroke:#038048;stroke-width:1.0;"/><text fill="#000000" font-family="sans-serif" font-size="14" font-style="italic" lengthAdjust="spacing" textLength="148" x="136.5" y="253.5801">manageReconnection()</text><ellipse cx="127.5" cy="263.6563" fill="#84BE84" rx="3" ry="3" style="stroke:#038048;stroke-width:1.0;"/><text fill="#000000" font-family="sans-serif" font-size="14" font-style="italic" lengthAdjust="spacing" textLength="107" x="136.5" y="271.1895">messageScene()</text><ellipse cx="127.5" cy="281.2656" fill="#84BE84" rx="3" ry="3" style="stroke:#038048;stroke-width:1.0;"/><text fill="#000000" font-family="sans-serif" font-size="14" font-style="italic" lengthAdjust="spacing" textLength="78" x="136.5" y="288.7988">startScene()</text><ellipse cx="127.5" cy="298.875" fill="#84BE84" rx="3" ry="3" style="stroke:#038048;stroke-width:1.0;"/><text fill="#000000" font-family="sans-serif" font-size="14" font-style="italic" lengthAdjust="spacing" textLength="83" x="136.5" y="306.4082">updateView()</text><ellipse cx="127.5" cy="316.4844" fill="#84BE84" rx="3" ry="3" style="stroke:#038048;stroke-width:1.0;"/><text fill="#000000" font-family="sans-serif" font-size="14" font-style="italic" lengthAdjust="spacing" textLength="113" x="136.5" y="324.0176">waitLobbyScene()</text><ellipse cx="127.5" cy="334.0938" fill="#84BE84" rx="3" ry="3" style="stroke:#038048;stroke-width:1.0;"/><text fill="#000000" font-family="sans-serif" font-size="14" font-style="italic" lengthAdjust="spacing" textLength="90" x="136.5" y="341.627">wizardScene()</text></g><rect height="50.3125" style="stroke:#00000000;stroke-width:1.0;fill:none;" width="394" x="0" y="394.2188"/><text fill="#888888" font-family="sans-serif" font-size="10" lengthAdjust="spacing" textLength="3" x="195.5" y="404.5996"> </text><text fill="#888888" font-family="sans-serif" font-size="10" lengthAdjust="spacing" textLength="3" x="195.5" y="417.1777"> </text><text fill="#888888" font-family="sans-serif" font-size="10" lengthAdjust="spacing" textLength="392" x="1" y="429.7559">PlantUML diagram generated by SketchIt! (https://bitbucket.org/pmesmeur/sketch.it)</text><text fill="#888888" font-family="sans-serif" font-size="10" lengthAdjust="spacing" textLength="394" x="0" y="442.334">For more information about this tool, please contact philippe.mesmeur@gmail.com</text><!--MD5=[24a3b76b3a73c02a2d8c83cf64c2161a]
@startuml

title __VIEW's Class Diagram__\n

  namespace it.polimi.ingsw.client {
    namespace view {
      interface it.polimi.ingsw.client.view.ViewInterface {
          {abstract} + endScene()
          {abstract} + helperScene()
          {abstract} + lockView()
          {abstract} + manageReconnection()
          {abstract} + messageScene()
          {abstract} + startScene()
          {abstract} + updateView()
          {abstract} + waitLobbyScene()
          {abstract} + wizardScene()
      }
    }
  }
  



right footer


PlantUML diagram generated by SketchIt! (https://bitbucket.org/pmesmeur/sketch.it)
For more information about this tool, please contact philippe.mesmeur@gmail.com
endfooter

@enduml

PlantUML version 1.2022.5(Sat Apr 30 12:55:52 CEST 2022)
(GPL source distribution)
Java Runtime: OpenJDK Runtime Environment
JVM: OpenJDK 64-Bit Server VM
Default Encoding: Cp1252
Language: en
Country: US
--></g></svg>