<?xml version="1.0" encoding="UTF-8" standalone="no"?><svg xmlns="http://www.w3.org/2000/svg" xmlns:xlink="http://www.w3.org/1999/xlink" contentStyleType="text/css" height="747px" preserveAspectRatio="none" style="width:402px;height:747px;background:#FFFFFF;" version="1.1" viewBox="0 0 402 747" width="402px" zoomAndPan="magnify"><defs/><g><rect height="45.2188" style="stroke:#00000000;stroke-width:1.0;fill:none;" width="224" x="85" y="5"/><text fill="#000000" font-family="sans-serif" font-size="14" font-weight="bold" lengthAdjust="spacing" text-decoration="underline" textLength="214" x="90" y="24.5332">COMPONENTS's Class Diagram</text><text fill="#000000" font-family="sans-serif" font-size="14" font-weight="bold" lengthAdjust="spacing" textLength="4" x="195" y="42.1426"> </text><!--MD5=[1254e979b773d7dd91b2a0f20daaeac0]
cluster it.polimi.ingsw.client--><g id="cluster_it.polimi.ingsw.client"><path d="M32,62.2188 L176,62.2188 A3.75,3.75 0 0 1 178.5,64.7188 L185.5,85.8281 L375,85.8281 A2.5,2.5 0 0 1 377.5,88.3281 L377.5,680.7188 A2.5,2.5 0 0 1 375,683.2188 L32,683.2188 A2.5,2.5 0 0 1 29.5,680.7188 L29.5,64.7188 A2.5,2.5 0 0 1 32,62.2188 " style="stroke:#000000;stroke-width:1.5;fill:none;"/><line style="stroke:#000000;stroke-width:1.5;fill:none;" x1="29.5" x2="185.5" y1="85.8281" y2="85.8281"/><text fill="#000000" font-family="sans-serif" font-size="14" font-weight="bold" lengthAdjust="spacing" textLength="143" x="33.5" y="78.752">it.polimi.ingsw.client</text></g><!--MD5=[0ebdcbcf3276cc12072e15e40929a817]
cluster it.polimi.ingsw.client.view--><g id="cluster_it.polimi.ingsw.client.view"><path d="M56,106.2188 L90,106.2188 A3.75,3.75 0 0 1 92.5,108.7188 L99.5,129.8281 L351,129.8281 A2.5,2.5 0 0 1 353.5,132.3281 L353.5,656.7188 A2.5,2.5 0 0 1 351,659.2188 L56,659.2188 A2.5,2.5 0 0 1 53.5,656.7188 L53.5,108.7188 A2.5,2.5 0 0 1 56,106.2188 " style="stroke:#000000;stroke-width:1.5;fill:none;"/><line style="stroke:#000000;stroke-width:1.5;fill:none;" x1="53.5" x2="99.5" y1="129.8281" y2="129.8281"/><text fill="#000000" font-family="sans-serif" font-size="14" font-weight="bold" lengthAdjust="spacing" textLength="33" x="57.5" y="122.752">view</text></g><!--MD5=[e70a21c170ac354c20a7e4cfeff179bd]
cluster it.polimi.ingsw.client.view.cli--><g id="cluster_it.polimi.ingsw.client.view.cli"><path d="M80,150.2188 L97,150.2188 A3.75,3.75 0 0 1 99.5,152.7188 L106.5,173.8281 L327,173.8281 A2.5,2.5 0 0 1 329.5,176.3281 L329.5,632.7188 A2.5,2.5 0 0 1 327,635.2188 L80,635.2188 A2.5,2.5 0 0 1 77.5,632.7188 L77.5,152.7188 A2.5,2.5 0 0 1 80,150.2188 " style="stroke:#000000;stroke-width:1.5;fill:none;"/><line style="stroke:#000000;stroke-width:1.5;fill:none;" x1="77.5" x2="106.5" y1="173.8281" y2="173.8281"/><text fill="#000000" font-family="sans-serif" font-size="14" font-weight="bold" lengthAdjust="spacing" textLength="16" x="81.5" y="166.752">cli</text></g><!--MD5=[da3e5faace8bc2c98ec34b3c2c758bd2]
cluster it.polimi.ingsw.client.view.cli.components--><g id="cluster_it.polimi.ingsw.client.view.cli.components"><path d="M104,194.2188 L192,194.2188 A3.75,3.75 0 0 1 194.5,196.7188 L201.5,217.8281 L303,217.8281 A2.5,2.5 0 0 1 305.5,220.3281 L305.5,608.7188 A2.5,2.5 0 0 1 303,611.2188 L104,611.2188 A2.5,2.5 0 0 1 101.5,608.7188 L101.5,196.7188 A2.5,2.5 0 0 1 104,194.2188 " style="stroke:#000000;stroke-width:1.5;fill:none;"/><line style="stroke:#000000;stroke-width:1.5;fill:none;" x1="101.5" x2="201.5" y1="217.8281" y2="217.8281"/><text fill="#000000" font-family="sans-serif" font-size="14" font-weight="bold" lengthAdjust="spacing" textLength="87" x="105.5" y="210.752">components</text></g><!--MD5=[091cba86111529d81f0aa39b21f74c3b]
class it.polimi.ingsw.client.view.cli.components.EriantysCLI--><g id="elem_it.polimi.ingsw.client.view.cli.components.EriantysCLI"><rect codeLine="8" fill="#F1F1F1" height="364.9688" id="it.polimi.ingsw.client.view.cli.components.EriantysCLI" rx="2.5" ry="2.5" style="stroke:#181818;stroke-width:0.5;" width="172" x="117.5" y="230.2188"/><ellipse cx="163.25" cy="246.2188" fill="#ADD1B2" rx="11" ry="11" style="stroke:#181818;stroke-width:1.0;"/><path d="M165.25,242.7188 Q165.4531,242.2188 165.6875,241.9688 Q165.9219,241.7188 166.1875,241.7188 Q166.6563,241.7188 166.9531,242 Q167.25,242.2813 167.25,242.9375 L167.25,244.5 Q167.25,245.1563 166.9688,245.4375 Q166.6875,245.7188 166.25,245.7188 Q165.8594,245.7188 165.6094,245.5469 Q165.3594,245.375 165.25,244.9219 Q165.2031,244.6094 165.0313,244.4375 Q164.7188,244.1094 164.1563,243.9219 Q163.5938,243.7188 163.0313,243.7188 Q162.3281,243.7188 161.7344,244 Q161.1563,244.2813 160.7031,244.9063 Q160.25,245.5313 160.25,246.3906 L160.25,247.3125 Q160.25,248.3438 161.0938,249.0313 Q161.9375,249.7188 163.4375,249.7188 Q164.3281,249.7188 164.9531,249.5156 Q165.3125,249.4063 165.7188,249.0469 Q165.9844,248.8438 166.125,248.7813 Q166.2656,248.7188 166.4375,248.7188 Q166.7656,248.7188 167,248.9844 Q167.25,249.2344 167.25,249.5938 Q167.25,249.9375 166.9063,250.3438 Q166.4063,250.9375 165.6094,251.2656 Q164.5625,251.7188 163.2813,251.7188 Q161.7813,251.7188 160.5781,251.125 Q159.6094,250.6563 158.9219,249.6406 Q158.25,248.625 158.25,247.4219 L158.25,246.3281 Q158.25,245.0781 158.8438,243.9844 Q159.4531,242.8906 160.5,242.3125 Q161.5625,241.7188 162.75,241.7188 Q163.4688,241.7188 164.0938,241.9688 Q164.7188,242.2188 165.25,242.7188 Z " fill="#000000"/><text fill="#000000" font-family="sans-serif" font-size="14" lengthAdjust="spacing" textLength="72" x="183.75" y="251.9473">EriantysCLI</text><line style="stroke:#181818;stroke-width:0.5;" x1="118.5" x2="288.5" y1="262.2188" y2="262.2188"/><line style="stroke:#181818;stroke-width:0.5;" x1="118.5" x2="288.5" y1="270.2188" y2="270.2188"/><ellipse cx="128.5" cy="281.2188" fill="#84BE84" rx="3" ry="3" style="stroke:#038048;stroke-width:1.0;"/><text fill="#000000" font-family="sans-serif" font-size="14" lengthAdjust="spacing" textLength="82" x="137.5" y="288.752">EriantysCLI()</text><ellipse cx="128.5" cy="298.8281" fill="#84BE84" rx="3" ry="3" style="stroke:#038048;stroke-width:1.0;"/><text fill="#000000" font-family="sans-serif" font-size="14" lengthAdjust="spacing" textLength="93" x="137.5" y="306.3613">clearConsole()</text><ellipse cx="128.5" cy="316.4375" fill="#84BE84" rx="3" ry="3" style="stroke:#038048;stroke-width:1.0;"/><text fill="#000000" font-family="sans-serif" font-size="14" lengthAdjust="spacing" textLength="95" x="137.5" y="323.9707">cloudElement()</text><ellipse cx="128.5" cy="334.0469" fill="#84BE84" rx="3" ry="3" style="stroke:#038048;stroke-width:1.0;"/><text fill="#000000" font-family="sans-serif" font-size="14" lengthAdjust="spacing" textLength="129" x="137.5" y="341.5801">dashboardElement()</text><ellipse cx="128.5" cy="351.6563" fill="#84BE84" rx="3" ry="3" style="stroke:#038048;stroke-width:1.0;"/><text fill="#000000" font-family="sans-serif" font-size="14" lengthAdjust="spacing" textLength="127" x="137.5" y="359.1895">effectCardElement()</text><ellipse cx="128.5" cy="369.2656" fill="#84BE84" rx="3" ry="3" style="stroke:#038048;stroke-width:1.0;"/><text fill="#000000" font-family="sans-serif" font-size="14" lengthAdjust="spacing" textLength="72" x="137.5" y="376.7988">gameMap()</text><ellipse cx="128.5" cy="386.875" fill="#84BE84" rx="3" ry="3" style="stroke:#038048;stroke-width:1.0;"/><text fill="#000000" font-family="sans-serif" font-size="14" lengthAdjust="spacing" textLength="146" x="137.5" y="394.4082">lastUsedCardElement()</text><ellipse cx="128.5" cy="404.4844" fill="#84BE84" rx="3" ry="3" style="stroke:#038048;stroke-width:1.0;"/><text fill="#000000" font-family="sans-serif" font-size="14" lengthAdjust="spacing" textLength="52" x="137.5" y="412.0176">padLR()</text><ellipse cx="128.5" cy="422.0938" fill="#84BE84" rx="3" ry="3" style="stroke:#038048;stroke-width:1.0;"/><text fill="#000000" font-family="sans-serif" font-size="14" lengthAdjust="spacing" textLength="117" x="137.5" y="429.627">playedCardsMap()</text><ellipse cx="128.5" cy="439.7031" fill="#84BE84" rx="3" ry="3" style="stroke:#038048;stroke-width:1.0;"/><text fill="#000000" font-family="sans-serif" font-size="14" lengthAdjust="spacing" textLength="104" x="137.5" y="447.2363">welcomeScene()</text><rect fill="#F24D5C" height="6" style="stroke:#C82930;stroke-width:1.0;" width="6" x="125.5" y="454.3125"/><text fill="#000000" font-family="sans-serif" font-size="14" lengthAdjust="spacing" textLength="71" x="137.5" y="464.8457">cloudMap()</text><rect fill="#F24D5C" height="6" style="stroke:#C82930;stroke-width:1.0;" width="6" x="125.5" y="471.9219"/><text fill="#000000" font-family="sans-serif" font-size="14" lengthAdjust="spacing" textLength="105" x="137.5" y="482.4551">dashboardMap()</text><rect fill="#F24D5C" height="6" style="stroke:#C82930;stroke-width:1.0;" width="6" x="125.5" y="489.5313"/><text fill="#000000" font-family="sans-serif" font-size="14" lengthAdjust="spacing" textLength="110" x="137.5" y="500.0645">effectCardsMap()</text><rect fill="#F24D5C" height="6" style="stroke:#C82930;stroke-width:1.0;" width="6" x="125.5" y="507.1406"/><text fill="#000000" font-family="sans-serif" font-size="14" lengthAdjust="spacing" textLength="85" x="137.5" y="517.6738">emptyIsland()</text><rect fill="#F24D5C" height="6" style="stroke:#C82930;stroke-width:1.0;" width="6" x="125.5" y="524.75"/><text fill="#000000" font-family="sans-serif" font-size="14" lengthAdjust="spacing" textLength="98" x="137.5" y="535.2832">islandElement()</text><rect fill="#F24D5C" height="6" style="stroke:#C82930;stroke-width:1.0;" width="6" x="125.5" y="542.3594"/><text fill="#000000" font-family="sans-serif" font-size="14" lengthAdjust="spacing" textLength="81" x="137.5" y="552.8926">islandsMap()</text><rect fill="#F24D5C" height="6" style="stroke:#C82930;stroke-width:1.0;" width="6" x="125.5" y="559.9688"/><text fill="#000000" font-family="sans-serif" font-size="14" lengthAdjust="spacing" textLength="50" x="137.5" y="570.502">merge()</text><rect fill="#F24D5C" height="6" style="stroke:#C82930;stroke-width:1.0;" width="6" x="125.5" y="577.5781"/><text fill="#000000" font-family="sans-serif" font-size="14" lengthAdjust="spacing" textLength="58" x="137.5" y="588.1113">merge4()</text></g><rect height="50.3125" style="stroke:#00000000;stroke-width:1.0;fill:none;" width="394" x="0" y="689.2188"/><text fill="#888888" font-family="sans-serif" font-size="10" lengthAdjust="spacing" textLength="3" x="195.5" y="699.5996"> </text><text fill="#888888" font-family="sans-serif" font-size="10" lengthAdjust="spacing" textLength="3" x="195.5" y="712.1777"> </text><text fill="#888888" font-family="sans-serif" font-size="10" lengthAdjust="spacing" textLength="392" x="1" y="724.7559">PlantUML diagram generated by SketchIt! (https://bitbucket.org/pmesmeur/sketch.it)</text><text fill="#888888" font-family="sans-serif" font-size="10" lengthAdjust="spacing" textLength="394" x="0" y="737.334">For more information about this tool, please contact philippe.mesmeur@gmail.com</text><!--MD5=[f4e33671edd301fec31a0479b63d56c5]
@startuml

title __COMPONENTS's Class Diagram__\n

  namespace it.polimi.ingsw.client {
    namespace view {
      namespace cli {
        namespace components {
          class it.polimi.ingsw.client.view.cli.components.EriantysCLI {
              + EriantysCLI()
              + clearConsole()
              + cloudElement()
              + dashboardElement()
              + effectCardElement()
              + gameMap()
              + lastUsedCardElement()
              + padLR()
              + playedCardsMap()
              + welcomeScene()
              - cloudMap()
              - dashboardMap()
              - effectCardsMap()
              - emptyIsland()
              - islandElement()
              - islandsMap()
              - merge()
              - merge4()
          }
        }
      }
    }
  }
  



right footer


PlantUML diagram generated by SketchIt! (https://bitbucket.org/pmesmeur/sketch.it)
For more information about this tool, please contact philippe.mesmeur@gmail.com
endfooter

@enduml

PlantUML version 1.2022.5(Sat Apr 30 12:55:52 CEST 2022)
(GPL source distribution)
Java Runtime: OpenJDK Runtime Environment
JVM: OpenJDK 64-Bit Server VM
Default Encoding: Cp1252
Language: en
Country: US
--></g></svg>