<?xml version="1.0" encoding="UTF-8" standalone="no"?><svg xmlns="http://www.w3.org/2000/svg" xmlns:xlink="http://www.w3.org/1999/xlink" contentStyleType="text/css" height="1152px" preserveAspectRatio="none" style="width:427px;height:1152px;background:#FFFFFF;" version="1.1" viewBox="0 0 427 1152" width="427px" zoomAndPan="magnify"><defs/><g><rect height="45.2188" style="stroke:#00000000;stroke-width:1.0;fill:none;" width="163" x="125" y="5"/><text fill="#000000" font-family="sans-serif" font-size="14" font-weight="bold" lengthAdjust="spacing" text-decoration="underline" textLength="153" x="130" y="24.5332">UTILS's Class Diagram</text><text fill="#000000" font-family="sans-serif" font-size="14" font-weight="bold" lengthAdjust="spacing" textLength="4" x="204.5" y="42.1426"> </text><!--MD5=[1254e979b773d7dd91b2a0f20daaeac0]
cluster it.polimi.ingsw.client--><g id="cluster_it.polimi.ingsw.client"><path d="M8.5,62.2188 L152.5,62.2188 A3.75,3.75 0 0 1 155,64.7188 L162,85.8281 L417.5,85.8281 A2.5,2.5 0 0 1 420,88.3281 L420,1085.7188 A2.5,2.5 0 0 1 417.5,1088.2188 L8.5,1088.2188 A2.5,2.5 0 0 1 6,1085.7188 L6,64.7188 A2.5,2.5 0 0 1 8.5,62.2188 " style="stroke:#000000;stroke-width:1.5;fill:none;"/><line style="stroke:#000000;stroke-width:1.5;fill:none;" x1="6" x2="162" y1="85.8281" y2="85.8281"/><text fill="#000000" font-family="sans-serif" font-size="14" font-weight="bold" lengthAdjust="spacing" textLength="143" x="10" y="78.752">it.polimi.ingsw.client</text></g><!--MD5=[0ebdcbcf3276cc12072e15e40929a817]
cluster it.polimi.ingsw.client.view--><g id="cluster_it.polimi.ingsw.client.view"><path d="M32.5,106.2188 L66.5,106.2188 A3.75,3.75 0 0 1 69,108.7188 L76,129.8281 L393.5,129.8281 A2.5,2.5 0 0 1 396,132.3281 L396,1061.7188 A2.5,2.5 0 0 1 393.5,1064.2188 L32.5,1064.2188 A2.5,2.5 0 0 1 30,1061.7188 L30,108.7188 A2.5,2.5 0 0 1 32.5,106.2188 " style="stroke:#000000;stroke-width:1.5;fill:none;"/><line style="stroke:#000000;stroke-width:1.5;fill:none;" x1="30" x2="76" y1="129.8281" y2="129.8281"/><text fill="#000000" font-family="sans-serif" font-size="14" font-weight="bold" lengthAdjust="spacing" textLength="33" x="34" y="122.752">view</text></g><!--MD5=[e70a21c170ac354c20a7e4cfeff179bd]
cluster it.polimi.ingsw.client.view.cli--><g id="cluster_it.polimi.ingsw.client.view.cli"><path d="M56.5,150.2188 L73.5,150.2188 A3.75,3.75 0 0 1 76,152.7188 L83,173.8281 L369.5,173.8281 A2.5,2.5 0 0 1 372,176.3281 L372,1037.7188 A2.5,2.5 0 0 1 369.5,1040.2188 L56.5,1040.2188 A2.5,2.5 0 0 1 54,1037.7188 L54,152.7188 A2.5,2.5 0 0 1 56.5,150.2188 " style="stroke:#000000;stroke-width:1.5;fill:none;"/><line style="stroke:#000000;stroke-width:1.5;fill:none;" x1="54" x2="83" y1="173.8281" y2="173.8281"/><text fill="#000000" font-family="sans-serif" font-size="14" font-weight="bold" lengthAdjust="spacing" textLength="16" x="58" y="166.752">cli</text></g><!--MD5=[8257435c1641d77901624a07daa399c3]
cluster it.polimi.ingsw.client.view.cli.utils--><g id="cluster_it.polimi.ingsw.client.view.cli.utils"><path d="M80.5,194.2188 L111.5,194.2188 A3.75,3.75 0 0 1 114,196.7188 L121,217.8281 L345.5,217.8281 A2.5,2.5 0 0 1 348,220.3281 L348,1013.7188 A2.5,2.5 0 0 1 345.5,1016.2188 L80.5,1016.2188 A2.5,2.5 0 0 1 78,1013.7188 L78,196.7188 A2.5,2.5 0 0 1 80.5,194.2188 " style="stroke:#000000;stroke-width:1.5;fill:none;"/><line style="stroke:#000000;stroke-width:1.5;fill:none;" x1="78" x2="121" y1="217.8281" y2="217.8281"/><text fill="#000000" font-family="sans-serif" font-size="14" font-weight="bold" lengthAdjust="spacing" textLength="30" x="82" y="210.752">utils</text></g><!--MD5=[78016d669e61e95a457563c85a59d285]
class it.polimi.ingsw.client.view.cli.utils.ANSIColor--><g id="elem_it.polimi.ingsw.client.view.cli.utils.ANSIColor"><rect codeLine="8" fill="#F1F1F1" height="769.9844" id="it.polimi.ingsw.client.view.cli.utils.ANSIColor" rx="2.5" ry="2.5" style="stroke:#181818;stroke-width:0.5;" width="238" x="94" y="230.2188"/><ellipse cx="176.75" cy="246.2188" fill="#ADD1B2" rx="11" ry="11" style="stroke:#181818;stroke-width:1.0;"/><path d="M178.75,242.7188 Q178.9531,242.2188 179.1875,241.9688 Q179.4219,241.7188 179.6875,241.7188 Q180.1563,241.7188 180.4531,242 Q180.75,242.2813 180.75,242.9375 L180.75,244.5 Q180.75,245.1563 180.4688,245.4375 Q180.1875,245.7188 179.75,245.7188 Q179.3594,245.7188 179.1094,245.5469 Q178.8594,245.375 178.75,244.9219 Q178.7031,244.6094 178.5313,244.4375 Q178.2188,244.1094 177.6563,243.9219 Q177.0938,243.7188 176.5313,243.7188 Q175.8281,243.7188 175.2344,244 Q174.6563,244.2813 174.2031,244.9063 Q173.75,245.5313 173.75,246.3906 L173.75,247.3125 Q173.75,248.3438 174.5938,249.0313 Q175.4375,249.7188 176.9375,249.7188 Q177.8281,249.7188 178.4531,249.5156 Q178.8125,249.4063 179.2188,249.0469 Q179.4844,248.8438 179.625,248.7813 Q179.7656,248.7188 179.9375,248.7188 Q180.2656,248.7188 180.5,248.9844 Q180.75,249.2344 180.75,249.5938 Q180.75,249.9375 180.4063,250.3438 Q179.9063,250.9375 179.1094,251.2656 Q178.0625,251.7188 176.7813,251.7188 Q175.2813,251.7188 174.0781,251.125 Q173.1094,250.6563 172.4219,249.6406 Q171.75,248.625 171.75,247.4219 L171.75,246.3281 Q171.75,245.0781 172.3438,243.9844 Q172.9531,242.8906 174,242.3125 Q175.0625,241.7188 176.25,241.7188 Q176.9688,241.7188 177.5938,241.9688 Q178.2188,242.2188 178.75,242.7188 Z " fill="#000000"/><text fill="#000000" font-family="sans-serif" font-size="14" lengthAdjust="spacing" textLength="64" x="197.25" y="251.9473">ANSIColor</text><line style="stroke:#181818;stroke-width:0.5;" x1="95" x2="331" y1="262.2188" y2="262.2188"/><ellipse cx="105" cy="273.2188" fill="none" rx="3" ry="3" style="stroke:#038048;stroke-width:1.0;"/><text fill="#000000" font-family="sans-serif" font-size="14" lengthAdjust="spacing" text-decoration="underline" textLength="94" x="114" y="280.752">BLACK : String</text><ellipse cx="105" cy="290.8281" fill="none" rx="3" ry="3" style="stroke:#038048;stroke-width:1.0;"/><text fill="#000000" font-family="sans-serif" font-size="14" lengthAdjust="spacing" text-decoration="underline" textLength="199" x="114" y="298.3613">BLACK_BACKGROUND : String</text><ellipse cx="105" cy="308.4375" fill="none" rx="3" ry="3" style="stroke:#038048;stroke-width:1.0;"/><text fill="#000000" font-family="sans-serif" font-size="14" lengthAdjust="spacing" text-decoration="underline" textLength="140" x="114" y="315.9707">BLACK_BOLD : String</text><ellipse cx="105" cy="326.0469" fill="none" rx="3" ry="3" style="stroke:#038048;stroke-width:1.0;"/><text fill="#000000" font-family="sans-serif" font-size="14" lengthAdjust="spacing" text-decoration="underline" textLength="153" x="114" y="333.5801">BLACK_BRIGHT : String</text><ellipse cx="105" cy="343.6563" fill="none" rx="3" ry="3" style="stroke:#038048;stroke-width:1.0;"/><text fill="#000000" font-family="sans-serif" font-size="14" lengthAdjust="spacing" text-decoration="underline" textLength="188" x="114" y="351.1895">BLACK_UNDERLINED : String</text><ellipse cx="105" cy="361.2656" fill="none" rx="3" ry="3" style="stroke:#038048;stroke-width:1.0;"/><text fill="#000000" font-family="sans-serif" font-size="14" lengthAdjust="spacing" text-decoration="underline" textLength="84" x="114" y="368.7988">BLUE : String</text><ellipse cx="105" cy="378.875" fill="none" rx="3" ry="3" style="stroke:#038048;stroke-width:1.0;"/><text fill="#000000" font-family="sans-serif" font-size="14" lengthAdjust="spacing" text-decoration="underline" textLength="189" x="114" y="386.4082">BLUE_BACKGROUND : String</text><ellipse cx="105" cy="396.4844" fill="none" rx="3" ry="3" style="stroke:#038048;stroke-width:1.0;"/><text fill="#000000" font-family="sans-serif" font-size="14" lengthAdjust="spacing" text-decoration="underline" textLength="130" x="114" y="404.0176">BLUE_BOLD : String</text><ellipse cx="105" cy="414.0938" fill="none" rx="3" ry="3" style="stroke:#038048;stroke-width:1.0;"/><text fill="#000000" font-family="sans-serif" font-size="14" lengthAdjust="spacing" text-decoration="underline" textLength="143" x="114" y="421.627">BLUE_BRIGHT : String</text><ellipse cx="105" cy="431.7031" fill="none" rx="3" ry="3" style="stroke:#038048;stroke-width:1.0;"/><text fill="#000000" font-family="sans-serif" font-size="14" lengthAdjust="spacing" text-decoration="underline" textLength="178" x="114" y="439.2363">BLUE_UNDERLINED : String</text><ellipse cx="105" cy="449.3125" fill="none" rx="3" ry="3" style="stroke:#038048;stroke-width:1.0;"/><text fill="#000000" font-family="sans-serif" font-size="14" lengthAdjust="spacing" text-decoration="underline" textLength="86" x="114" y="456.8457">CYAN : String</text><ellipse cx="105" cy="466.9219" fill="none" rx="3" ry="3" style="stroke:#038048;stroke-width:1.0;"/><text fill="#000000" font-family="sans-serif" font-size="14" lengthAdjust="spacing" text-decoration="underline" textLength="191" x="114" y="474.4551">CYAN_BACKGROUND : String</text><ellipse cx="105" cy="484.5313" fill="none" rx="3" ry="3" style="stroke:#038048;stroke-width:1.0;"/><text fill="#000000" font-family="sans-serif" font-size="14" lengthAdjust="spacing" text-decoration="underline" textLength="132" x="114" y="492.0645">CYAN_BOLD : String</text><ellipse cx="105" cy="502.1406" fill="none" rx="3" ry="3" style="stroke:#038048;stroke-width:1.0;"/><text fill="#000000" font-family="sans-serif" font-size="14" lengthAdjust="spacing" text-decoration="underline" textLength="145" x="114" y="509.6738">CYAN_BRIGHT : String</text><ellipse cx="105" cy="519.75" fill="none" rx="3" ry="3" style="stroke:#038048;stroke-width:1.0;"/><text fill="#000000" font-family="sans-serif" font-size="14" lengthAdjust="spacing" text-decoration="underline" textLength="180" x="114" y="527.2832">CYAN_UNDERLINED : String</text><ellipse cx="105" cy="537.3594" fill="none" rx="3" ry="3" style="stroke:#038048;stroke-width:1.0;"/><text fill="#000000" font-family="sans-serif" font-size="14" lengthAdjust="spacing" text-decoration="underline" textLength="97" x="114" y="544.8926">GREEN : String</text><ellipse cx="105" cy="554.9688" fill="none" rx="3" ry="3" style="stroke:#038048;stroke-width:1.0;"/><text fill="#000000" font-family="sans-serif" font-size="14" lengthAdjust="spacing" text-decoration="underline" textLength="202" x="114" y="562.502">GREEN_BACKGROUND : String</text><ellipse cx="105" cy="572.5781" fill="none" rx="3" ry="3" style="stroke:#038048;stroke-width:1.0;"/><text fill="#000000" font-family="sans-serif" font-size="14" lengthAdjust="spacing" text-decoration="underline" textLength="143" x="114" y="580.1113">GREEN_BOLD : String</text><ellipse cx="105" cy="590.1875" fill="none" rx="3" ry="3" style="stroke:#038048;stroke-width:1.0;"/><text fill="#000000" font-family="sans-serif" font-size="14" lengthAdjust="spacing" text-decoration="underline" textLength="156" x="114" y="597.7207">GREEN_BRIGHT : String</text><ellipse cx="105" cy="607.7969" fill="none" rx="3" ry="3" style="stroke:#038048;stroke-width:1.0;"/><text fill="#000000" font-family="sans-serif" font-size="14" lengthAdjust="spacing" text-decoration="underline" textLength="191" x="114" y="615.3301">GREEN_UNDERLINED : String</text><ellipse cx="105" cy="625.4063" fill="none" rx="3" ry="3" style="stroke:#038048;stroke-width:1.0;"/><text fill="#000000" font-family="sans-serif" font-size="14" lengthAdjust="spacing" text-decoration="underline" textLength="103" x="114" y="632.9395">PURPLE : String</text><ellipse cx="105" cy="643.0156" fill="none" rx="3" ry="3" style="stroke:#038048;stroke-width:1.0;"/><text fill="#000000" font-family="sans-serif" font-size="14" lengthAdjust="spacing" text-decoration="underline" textLength="208" x="114" y="650.5488">PURPLE_BACKGROUND : String</text><ellipse cx="105" cy="660.625" fill="none" rx="3" ry="3" style="stroke:#038048;stroke-width:1.0;"/><text fill="#000000" font-family="sans-serif" font-size="14" lengthAdjust="spacing" text-decoration="underline" textLength="149" x="114" y="668.1582">PURPLE_BOLD : String</text><ellipse cx="105" cy="678.2344" fill="none" rx="3" ry="3" style="stroke:#038048;stroke-width:1.0;"/><text fill="#000000" font-family="sans-serif" font-size="14" lengthAdjust="spacing" text-decoration="underline" textLength="162" x="114" y="685.7676">PURPLE_BRIGHT : String</text><ellipse cx="105" cy="695.8438" fill="none" rx="3" ry="3" style="stroke:#038048;stroke-width:1.0;"/><text fill="#000000" font-family="sans-serif" font-size="14" lengthAdjust="spacing" text-decoration="underline" textLength="197" x="114" y="703.377">PURPLE_UNDERLINED : String</text><ellipse cx="105" cy="713.4531" fill="none" rx="3" ry="3" style="stroke:#038048;stroke-width:1.0;"/><text fill="#000000" font-family="sans-serif" font-size="14" lengthAdjust="spacing" text-decoration="underline" textLength="78" x="114" y="720.9863">RED : String</text><ellipse cx="105" cy="731.0625" fill="none" rx="3" ry="3" style="stroke:#038048;stroke-width:1.0;"/><text fill="#000000" font-family="sans-serif" font-size="14" lengthAdjust="spacing" text-decoration="underline" textLength="183" x="114" y="738.5957">RED_BACKGROUND : String</text><ellipse cx="105" cy="748.6719" fill="none" rx="3" ry="3" style="stroke:#038048;stroke-width:1.0;"/><text fill="#000000" font-family="sans-serif" font-size="14" lengthAdjust="spacing" text-decoration="underline" textLength="124" x="114" y="756.2051">RED_BOLD : String</text><ellipse cx="105" cy="766.2813" fill="none" rx="3" ry="3" style="stroke:#038048;stroke-width:1.0;"/><text fill="#000000" font-family="sans-serif" font-size="14" lengthAdjust="spacing" text-decoration="underline" textLength="137" x="114" y="773.8145">RED_BRIGHT : String</text><ellipse cx="105" cy="783.8906" fill="none" rx="3" ry="3" style="stroke:#038048;stroke-width:1.0;"/><text fill="#000000" font-family="sans-serif" font-size="14" lengthAdjust="spacing" text-decoration="underline" textLength="172" x="114" y="791.4238">RED_UNDERLINED : String</text><ellipse cx="105" cy="801.5" fill="none" rx="3" ry="3" style="stroke:#038048;stroke-width:1.0;"/><text fill="#000000" font-family="sans-serif" font-size="14" lengthAdjust="spacing" text-decoration="underline" textLength="95" x="114" y="809.0332">RESET : String</text><ellipse cx="105" cy="819.1094" fill="none" rx="3" ry="3" style="stroke:#038048;stroke-width:1.0;"/><text fill="#000000" font-family="sans-serif" font-size="14" lengthAdjust="spacing" text-decoration="underline" textLength="92" x="114" y="826.6426">WHITE : String</text><ellipse cx="105" cy="836.7188" fill="none" rx="3" ry="3" style="stroke:#038048;stroke-width:1.0;"/><text fill="#000000" font-family="sans-serif" font-size="14" lengthAdjust="spacing" text-decoration="underline" textLength="197" x="114" y="844.252">WHITE_BACKGROUND : String</text><ellipse cx="105" cy="854.3281" fill="none" rx="3" ry="3" style="stroke:#038048;stroke-width:1.0;"/><text fill="#000000" font-family="sans-serif" font-size="14" lengthAdjust="spacing" text-decoration="underline" textLength="138" x="114" y="861.8613">WHITE_BOLD : String</text><ellipse cx="105" cy="871.9375" fill="none" rx="3" ry="3" style="stroke:#038048;stroke-width:1.0;"/><text fill="#000000" font-family="sans-serif" font-size="14" lengthAdjust="spacing" text-decoration="underline" textLength="151" x="114" y="879.4707">WHITE_BRIGHT : String</text><ellipse cx="105" cy="889.5469" fill="none" rx="3" ry="3" style="stroke:#038048;stroke-width:1.0;"/><text fill="#000000" font-family="sans-serif" font-size="14" lengthAdjust="spacing" text-decoration="underline" textLength="186" x="114" y="897.0801">WHITE_UNDERLINED : String</text><ellipse cx="105" cy="907.1563" fill="none" rx="3" ry="3" style="stroke:#038048;stroke-width:1.0;"/><text fill="#000000" font-family="sans-serif" font-size="14" lengthAdjust="spacing" text-decoration="underline" textLength="107" x="114" y="914.6895">YELLOW : String</text><ellipse cx="105" cy="924.7656" fill="none" rx="3" ry="3" style="stroke:#038048;stroke-width:1.0;"/><text fill="#000000" font-family="sans-serif" font-size="14" lengthAdjust="spacing" text-decoration="underline" textLength="212" x="114" y="932.2988">YELLOW_BACKGROUND : String</text><ellipse cx="105" cy="942.375" fill="none" rx="3" ry="3" style="stroke:#038048;stroke-width:1.0;"/><text fill="#000000" font-family="sans-serif" font-size="14" lengthAdjust="spacing" text-decoration="underline" textLength="153" x="114" y="949.9082">YELLOW_BOLD : String</text><ellipse cx="105" cy="959.9844" fill="none" rx="3" ry="3" style="stroke:#038048;stroke-width:1.0;"/><text fill="#000000" font-family="sans-serif" font-size="14" lengthAdjust="spacing" text-decoration="underline" textLength="166" x="114" y="967.5176">YELLOW_BRIGHT : String</text><ellipse cx="105" cy="977.5938" fill="none" rx="3" ry="3" style="stroke:#038048;stroke-width:1.0;"/><text fill="#000000" font-family="sans-serif" font-size="14" lengthAdjust="spacing" text-decoration="underline" textLength="201" x="114" y="985.127">YELLOW_UNDERLINED : String</text><line style="stroke:#181818;stroke-width:0.5;" x1="95" x2="331" y1="992.2031" y2="992.2031"/></g><rect height="50.3125" style="stroke:#00000000;stroke-width:1.0;fill:none;" width="394" x="19" y="1094.2188"/><text fill="#888888" font-family="sans-serif" font-size="10" lengthAdjust="spacing" textLength="3" x="214.5" y="1104.5996"> </text><text fill="#888888" font-family="sans-serif" font-size="10" lengthAdjust="spacing" textLength="3" x="214.5" y="1117.1777"> </text><text fill="#888888" font-family="sans-serif" font-size="10" lengthAdjust="spacing" textLength="392" x="20" y="1129.7559">PlantUML diagram generated by SketchIt! (https://bitbucket.org/pmesmeur/sketch.it)</text><text fill="#888888" font-family="sans-serif" font-size="10" lengthAdjust="spacing" textLength="394" x="19" y="1142.334">For more information about this tool, please contact philippe.mesmeur@gmail.com</text><!--MD5=[5c226d6ccecaa7405b1f8a9904f4222a]
@startuml

title __UTILS's Class Diagram__\n

  namespace it.polimi.ingsw.client {
    namespace view {
      namespace cli {
        namespace utils {
          class it.polimi.ingsw.client.view.cli.utils.ANSIColor {
              {static} + BLACK : String
              {static} + BLACK_BACKGROUND : String
              {static} + BLACK_BOLD : String
              {static} + BLACK_BRIGHT : String
              {static} + BLACK_UNDERLINED : String
              {static} + BLUE : String
              {static} + BLUE_BACKGROUND : String
              {static} + BLUE_BOLD : String
              {static} + BLUE_BRIGHT : String
              {static} + BLUE_UNDERLINED : String
              {static} + CYAN : String
              {static} + CYAN_BACKGROUND : String
              {static} + CYAN_BOLD : String
              {static} + CYAN_BRIGHT : String
              {static} + CYAN_UNDERLINED : String
              {static} + GREEN : String
              {static} + GREEN_BACKGROUND : String
              {static} + GREEN_BOLD : String
              {static} + GREEN_BRIGHT : String
              {static} + GREEN_UNDERLINED : String
              {static} + PURPLE : String
              {static} + PURPLE_BACKGROUND : String
              {static} + PURPLE_BOLD : String
              {static} + PURPLE_BRIGHT : String
              {static} + PURPLE_UNDERLINED : String
              {static} + RED : String
              {static} + RED_BACKGROUND : String
              {static} + RED_BOLD : String
              {static} + RED_BRIGHT : String
              {static} + RED_UNDERLINED : String
              {static} + RESET : String
              {static} + WHITE : String
              {static} + WHITE_BACKGROUND : String
              {static} + WHITE_BOLD : String
              {static} + WHITE_BRIGHT : String
              {static} + WHITE_UNDERLINED : String
              {static} + YELLOW : String
              {static} + YELLOW_BACKGROUND : String
              {static} + YELLOW_BOLD : String
              {static} + YELLOW_BRIGHT : String
              {static} + YELLOW_UNDERLINED : String
          }
        }
      }
    }
  }
  



right footer


PlantUML diagram generated by SketchIt! (https://bitbucket.org/pmesmeur/sketch.it)
For more information about this tool, please contact philippe.mesmeur@gmail.com
endfooter

@enduml

PlantUML version 1.2022.5(Sat Apr 30 12:55:52 CEST 2022)
(GPL source distribution)
Java Runtime: OpenJDK Runtime Environment
JVM: OpenJDK 64-Bit Server VM
Default Encoding: Cp1252
Language: en
Country: US
--></g></svg>