<?xml version="1.0" encoding="UTF-8" standalone="no"?><svg xmlns="http://www.w3.org/2000/svg" xmlns:xlink="http://www.w3.org/1999/xlink" contentStyleType="text/css" height="1391px" preserveAspectRatio="none" style="width:628px;height:1391px;background:#FFFFFF;" version="1.1" viewBox="0 0 628 1391" width="628px" zoomAndPan="magnify"><defs/><g><rect height="45.2188" style="stroke:#00000000;stroke-width:1.0;fill:none;" width="146" x="234" y="5"/><text fill="#000000" font-family="sans-serif" font-size="14" font-weight="bold" lengthAdjust="spacing" text-decoration="underline" textLength="136" x="239" y="24.5332">CLI's Class Diagram</text><text fill="#000000" font-family="sans-serif" font-size="14" font-weight="bold" lengthAdjust="spacing" textLength="4" x="305" y="42.1426"> </text><!--MD5=[1254e979b773d7dd91b2a0f20daaeac0]
cluster it.polimi.ingsw.client--><g id="cluster_it.polimi.ingsw.client"><path d="M87.5,62.2188 L231.5,62.2188 A3.75,3.75 0 0 1 234,64.7188 L241,85.8281 L552.5,85.8281 A2.5,2.5 0 0 1 555,88.3281 L555,1174.7188 A2.5,2.5 0 0 1 552.5,1177.2188 L87.5,1177.2188 A2.5,2.5 0 0 1 85,1174.7188 L85,64.7188 A2.5,2.5 0 0 1 87.5,62.2188 " style="stroke:#000000;stroke-width:1.5;fill:none;"/><line style="stroke:#000000;stroke-width:1.5;fill:none;" x1="85" x2="241" y1="85.8281" y2="85.8281"/><text fill="#000000" font-family="sans-serif" font-size="14" font-weight="bold" lengthAdjust="spacing" textLength="143" x="89" y="78.752">it.polimi.ingsw.client</text></g><!--MD5=[0ebdcbcf3276cc12072e15e40929a817]
cluster it.polimi.ingsw.client.view--><g id="cluster_it.polimi.ingsw.client.view"><path d="M111.5,106.2188 L145.5,106.2188 A3.75,3.75 0 0 1 148,108.7188 L155,129.8281 L528.5,129.8281 A2.5,2.5 0 0 1 531,132.3281 L531,1150.7188 A2.5,2.5 0 0 1 528.5,1153.2188 L111.5,1153.2188 A2.5,2.5 0 0 1 109,1150.7188 L109,108.7188 A2.5,2.5 0 0 1 111.5,106.2188 " style="stroke:#000000;stroke-width:1.5;fill:none;"/><line style="stroke:#000000;stroke-width:1.5;fill:none;" x1="109" x2="155" y1="129.8281" y2="129.8281"/><text fill="#000000" font-family="sans-serif" font-size="14" font-weight="bold" lengthAdjust="spacing" textLength="33" x="113" y="122.752">view</text></g><!--MD5=[e70a21c170ac354c20a7e4cfeff179bd]
cluster it.polimi.ingsw.client.view.cli--><g id="cluster_it.polimi.ingsw.client.view.cli"><path d="M135.5,237.2188 L152.5,237.2188 A3.75,3.75 0 0 1 155,239.7188 L162,260.8281 L504.5,260.8281 A2.5,2.5 0 0 1 507,263.3281 L507,1126.7188 A2.5,2.5 0 0 1 504.5,1129.2188 L135.5,1129.2188 A2.5,2.5 0 0 1 133,1126.7188 L133,239.7188 A2.5,2.5 0 0 1 135.5,237.2188 " style="stroke:#000000;stroke-width:1.5;fill:none;"/><line style="stroke:#000000;stroke-width:1.5;fill:none;" x1="133" x2="162" y1="260.8281" y2="260.8281"/><text fill="#000000" font-family="sans-serif" font-size="14" font-weight="bold" lengthAdjust="spacing" textLength="16" x="137" y="253.752">cli</text></g><!--MD5=[da3e5faace8bc2c98ec34b3c2c758bd2]
cluster it.polimi.ingsw.client.view.cli.components--><g id="cluster_it.polimi.ingsw.client.view.cli.components"><path d="M8.5,1227.2188 L300.5,1227.2188 A3.75,3.75 0 0 1 303,1229.7188 L310,1250.8281 L310.5,1250.8281 A2.5,2.5 0 0 1 313,1253.3281 L313,1324.7188 A2.5,2.5 0 0 1 310.5,1327.2188 L8.5,1327.2188 A2.5,2.5 0 0 1 6,1324.7188 L6,1229.7188 A2.5,2.5 0 0 1 8.5,1227.2188 " style="stroke:#000000;stroke-width:1.5;fill:none;"/><line style="stroke:#000000;stroke-width:1.5;fill:none;" x1="6" x2="310" y1="1250.8281" y2="1250.8281"/><text fill="#000000" font-family="sans-serif" font-size="14" font-weight="bold" lengthAdjust="spacing" textLength="291" x="10" y="1243.752">it.polimi.ingsw.client.view.cli.components</text></g><!--MD5=[049d75f9b1833458fb226fad532d49e0]
cluster it.polimi.ingsw.client.view.jsonObjects--><g id="cluster_it.polimi.ingsw.client.view.jsonObjects"><path d="M339.5,1227.2188 L608.5,1227.2188 A3.75,3.75 0 0 1 611,1229.7188 L618,1250.8281 L618.5,1250.8281 A2.5,2.5 0 0 1 621,1253.3281 L621,1324.7188 A2.5,2.5 0 0 1 618.5,1327.2188 L339.5,1327.2188 A2.5,2.5 0 0 1 337,1324.7188 L337,1229.7188 A2.5,2.5 0 0 1 339.5,1227.2188 " style="stroke:#000000;stroke-width:1.5;fill:none;"/><line style="stroke:#000000;stroke-width:1.5;fill:none;" x1="337" x2="618" y1="1250.8281" y2="1250.8281"/><text fill="#000000" font-family="sans-serif" font-size="14" font-weight="bold" lengthAdjust="spacing" textLength="268" x="341" y="1243.752">it.polimi.ingsw.client.view.jsonObjects</text></g><!--MD5=[e65d535a5ae2e6d0b3d0a405acfa3469]
class it.polimi.ingsw.client.view.ViewInterface--><g id="elem_it.polimi.ingsw.client.view.ViewInterface"><rect fill="#F1F1F1" height="48" id="it.polimi.ingsw.client.view.ViewInterface" rx="2.5" ry="2.5" style="stroke:#181818;stroke-width:0.5;" width="116" x="262" y="142.2188"/><ellipse cx="277" cy="158.2188" fill="#ADD1B2" rx="11" ry="11" style="stroke:#181818;stroke-width:1.0;"/><path d="M279,154.7188 Q279.2031,154.2188 279.4375,153.9688 Q279.6719,153.7188 279.9375,153.7188 Q280.4063,153.7188 280.7031,154 Q281,154.2813 281,154.9375 L281,156.5 Q281,157.1563 280.7188,157.4375 Q280.4375,157.7188 280,157.7188 Q279.6094,157.7188 279.3594,157.5469 Q279.1094,157.375 279,156.9219 Q278.9531,156.6094 278.7813,156.4375 Q278.4688,156.1094 277.9063,155.9219 Q277.3438,155.7188 276.7813,155.7188 Q276.0781,155.7188 275.4844,156 Q274.9063,156.2813 274.4531,156.9063 Q274,157.5313 274,158.3906 L274,159.3125 Q274,160.3438 274.8438,161.0313 Q275.6875,161.7188 277.1875,161.7188 Q278.0781,161.7188 278.7031,161.5156 Q279.0625,161.4063 279.4688,161.0469 Q279.7344,160.8438 279.875,160.7813 Q280.0156,160.7188 280.1875,160.7188 Q280.5156,160.7188 280.75,160.9844 Q281,161.2344 281,161.5938 Q281,161.9375 280.6563,162.3438 Q280.1563,162.9375 279.3594,163.2656 Q278.3125,163.7188 277.0313,163.7188 Q275.5313,163.7188 274.3281,163.125 Q273.3594,162.6563 272.6719,161.6406 Q272,160.625 272,159.4219 L272,158.3281 Q272,157.0781 272.5938,155.9844 Q273.2031,154.8906 274.25,154.3125 Q275.3125,153.7188 276.5,153.7188 Q277.2188,153.7188 277.8438,153.9688 Q278.4688,154.2188 279,154.7188 Z " fill="#000000"/><text fill="#000000" font-family="sans-serif" font-size="14" lengthAdjust="spacing" textLength="84" x="291" y="163.9473">ViewInterface</text><line style="stroke:#181818;stroke-width:0.5;" x1="263" x2="377" y1="174.2188" y2="174.2188"/><line style="stroke:#181818;stroke-width:0.5;" x1="263" x2="377" y1="182.2188" y2="182.2188"/></g><!--MD5=[5bd8287d75102093cfdaf6babb8ef642]
class it.polimi.ingsw.client.view.cli.cliClass--><g id="elem_it.polimi.ingsw.client.view.cli.cliClass"><rect codeLine="7" fill="#F1F1F1" height="840.4219" id="it.polimi.ingsw.client.view.cli.cliClass" rx="2.5" ry="2.5" style="stroke:#181818;stroke-width:0.5;" width="341" x="149.5" y="273.2188"/><ellipse cx="291.75" cy="289.2188" fill="#ADD1B2" rx="11" ry="11" style="stroke:#181818;stroke-width:1.0;"/><path d="M293.75,285.7188 Q293.9531,285.2188 294.1875,284.9688 Q294.4219,284.7188 294.6875,284.7188 Q295.1563,284.7188 295.4531,285 Q295.75,285.2813 295.75,285.9375 L295.75,287.5 Q295.75,288.1563 295.4688,288.4375 Q295.1875,288.7188 294.75,288.7188 Q294.3594,288.7188 294.1094,288.5469 Q293.8594,288.375 293.75,287.9219 Q293.7031,287.6094 293.5313,287.4375 Q293.2188,287.1094 292.6563,286.9219 Q292.0938,286.7188 291.5313,286.7188 Q290.8281,286.7188 290.2344,287 Q289.6563,287.2813 289.2031,287.9063 Q288.75,288.5313 288.75,289.3906 L288.75,290.3125 Q288.75,291.3438 289.5938,292.0313 Q290.4375,292.7188 291.9375,292.7188 Q292.8281,292.7188 293.4531,292.5156 Q293.8125,292.4063 294.2188,292.0469 Q294.4844,291.8438 294.625,291.7813 Q294.7656,291.7188 294.9375,291.7188 Q295.2656,291.7188 295.5,291.9844 Q295.75,292.2344 295.75,292.5938 Q295.75,292.9375 295.4063,293.3438 Q294.9063,293.9375 294.1094,294.2656 Q293.0625,294.7188 291.7813,294.7188 Q290.2813,294.7188 289.0781,294.125 Q288.1094,293.6563 287.4219,292.6406 Q286.75,291.625 286.75,290.4219 L286.75,289.3281 Q286.75,288.0781 287.3438,286.9844 Q287.9531,285.8906 289,285.3125 Q290.0625,284.7188 291.25,284.7188 Q291.9688,284.7188 292.5938,284.9688 Q293.2188,285.2188 293.75,285.7188 Z " fill="#000000"/><text fill="#000000" font-family="sans-serif" font-size="14" lengthAdjust="spacing" textLength="48" x="312.25" y="294.9473">cliClass</text><line style="stroke:#181818;stroke-width:0.5;" x1="150.5" x2="489.5" y1="305.2188" y2="305.2188"/><polygon fill="none" points="160.5,312.2188,156.5,318.2188,164.5,318.2188" style="stroke:#1963A0;stroke-width:1.0;"/><text fill="#000000" font-family="sans-serif" font-size="14" lengthAdjust="spacing" textLength="200" x="169.5" y="323.752">gameConsole : BufferedReader</text><polygon fill="none" points="160.5,329.8281,156.5,335.8281,164.5,335.8281" style="stroke:#1963A0;stroke-width:1.0;"/><text fill="#000000" font-family="sans-serif" font-size="14" lengthAdjust="spacing" textLength="77" x="169.5" y="341.3613">gson : Gson</text><rect fill="none" height="6" style="stroke:#C82930;stroke-width:1.0;" width="6" x="157.5" y="348.4375"/><text fill="#000000" font-family="sans-serif" font-size="14" lengthAdjust="spacing" textLength="88" x="169.5" y="358.9707">countETX : int</text><rect fill="none" height="6" style="stroke:#C82930;stroke-width:1.0;" width="6" x="157.5" y="366.0469"/><text fill="#000000" font-family="sans-serif" font-size="14" lengthAdjust="spacing" textLength="127" x="169.5" y="376.5801">currentState : String</text><rect fill="none" height="6" style="stroke:#C82930;stroke-width:1.0;" width="6" x="157.5" y="383.6563"/><text fill="#000000" font-family="sans-serif" font-size="14" lengthAdjust="spacing" textLength="308" x="169.5" y="394.1895">effectCommands : HashMap&lt;jEffectCard, String&gt;</text><rect fill="none" height="6" style="stroke:#C82930;stroke-width:1.0;" width="6" x="157.5" y="401.2656"/><text fill="#000000" font-family="sans-serif" font-size="14" lengthAdjust="spacing" textLength="315" x="169.5" y="411.7988">effectDescriptions : HashMap&lt;jEffectCard, String&gt;</text><rect fill="none" height="6" style="stroke:#C82930;stroke-width:1.0;" width="6" x="157.5" y="418.875"/><text fill="#000000" font-family="sans-serif" font-size="14" lengthAdjust="spacing" textLength="200" x="169.5" y="429.4082">effectStrings : ArrayList&lt;String&gt;</text><rect fill="none" height="6" style="stroke:#C82930;stroke-width:1.0;" width="6" x="157.5" y="436.4844"/><text fill="#000000" font-family="sans-serif" font-size="14" lengthAdjust="spacing" textLength="138" x="169.5" y="447.0176">expertMode : Boolean</text><rect fill="none" height="6" style="stroke:#C82930;stroke-width:1.0;" width="6" x="157.5" y="454.0938"/><text fill="#000000" font-family="sans-serif" font-size="14" lengthAdjust="spacing" textLength="185" x="169.5" y="464.627">gameView : ArrayList&lt;String&gt;</text><rect fill="none" height="6" style="stroke:#C82930;stroke-width:1.0;" width="6" x="157.5" y="471.7031"/><text fill="#000000" font-family="sans-serif" font-size="14" lengthAdjust="spacing" textLength="60" x="169.5" y="482.2363">ip : String</text><rect fill="none" height="6" style="stroke:#C82930;stroke-width:1.0;" width="6" x="157.5" y="489.3125"/><text fill="#000000" font-family="sans-serif" font-size="14" lengthAdjust="spacing" textLength="134" x="169.5" y="499.8457">mainThread : Thread</text><rect fill="none" height="6" style="stroke:#C82930;stroke-width:1.0;" width="6" x="157.5" y="506.9219"/><text fill="#000000" font-family="sans-serif" font-size="14" lengthAdjust="spacing" textLength="159" x="169.5" y="517.4551">nextLineMessage : String</text><rect fill="none" height="6" style="stroke:#C82930;stroke-width:1.0;" width="6" x="157.5" y="524.5313"/><text fill="#000000" font-family="sans-serif" font-size="14" lengthAdjust="spacing" textLength="142" x="169.5" y="535.0645">playedEffect : Boolean</text><rect fill="none" height="6" style="stroke:#C82930;stroke-width:1.0;" width="6" x="157.5" y="542.1406"/><text fill="#000000" font-family="sans-serif" font-size="14" lengthAdjust="spacing" textLength="115" x="169.5" y="552.6738">playerNumber : int</text><rect fill="none" height="6" style="stroke:#C82930;stroke-width:1.0;" width="6" x="157.5" y="559.75"/><text fill="#000000" font-family="sans-serif" font-size="14" lengthAdjust="spacing" textLength="52" x="169.5" y="570.2832">port : int</text><line style="stroke:#181818;stroke-width:0.5;" x1="150.5" x2="489.5" y1="577.3594" y2="577.3594"/><ellipse cx="160.5" cy="588.3594" fill="#84BE84" rx="3" ry="3" style="stroke:#038048;stroke-width:1.0;"/><text fill="#000000" font-family="sans-serif" font-size="14" lengthAdjust="spacing" textLength="58" x="169.5" y="595.8926">cliClass()</text><ellipse cx="160.5" cy="605.9688" fill="#84BE84" rx="3" ry="3" style="stroke:#038048;stroke-width:1.0;"/><text fill="#000000" font-family="sans-serif" font-size="14" lengthAdjust="spacing" textLength="74" x="169.5" y="613.502">endScene()</text><ellipse cx="160.5" cy="623.5781" fill="#84BE84" rx="3" ry="3" style="stroke:#038048;stroke-width:1.0;"/><text fill="#000000" font-family="sans-serif" font-size="14" lengthAdjust="spacing" textLength="90" x="169.5" y="631.1113">helperScene()</text><ellipse cx="160.5" cy="641.1875" fill="#84BE84" rx="3" ry="3" style="stroke:#038048;stroke-width:1.0;"/><text fill="#000000" font-family="sans-serif" font-size="14" lengthAdjust="spacing" textLength="64" x="169.5" y="648.7207">lockView()</text><ellipse cx="160.5" cy="658.7969" fill="#84BE84" rx="3" ry="3" style="stroke:#038048;stroke-width:1.0;"/><text fill="#000000" font-family="sans-serif" font-size="14" lengthAdjust="spacing" textLength="148" x="169.5" y="666.3301">manageReconnection()</text><ellipse cx="160.5" cy="676.4063" fill="#84BE84" rx="3" ry="3" style="stroke:#038048;stroke-width:1.0;"/><text fill="#000000" font-family="sans-serif" font-size="14" lengthAdjust="spacing" textLength="107" x="169.5" y="683.9395">messageScene()</text><ellipse cx="160.5" cy="694.0156" fill="#84BE84" rx="3" ry="3" style="stroke:#038048;stroke-width:1.0;"/><text fill="#000000" font-family="sans-serif" font-size="14" lengthAdjust="spacing" textLength="78" x="169.5" y="701.5488">startScene()</text><ellipse cx="160.5" cy="711.625" fill="#84BE84" rx="3" ry="3" style="stroke:#038048;stroke-width:1.0;"/><text fill="#000000" font-family="sans-serif" font-size="14" lengthAdjust="spacing" textLength="83" x="169.5" y="719.1582">updateView()</text><ellipse cx="160.5" cy="729.2344" fill="#84BE84" rx="3" ry="3" style="stroke:#038048;stroke-width:1.0;"/><text fill="#000000" font-family="sans-serif" font-size="14" lengthAdjust="spacing" textLength="113" x="169.5" y="736.7676">waitLobbyScene()</text><ellipse cx="160.5" cy="746.8438" fill="#84BE84" rx="3" ry="3" style="stroke:#038048;stroke-width:1.0;"/><text fill="#000000" font-family="sans-serif" font-size="14" lengthAdjust="spacing" textLength="89" x="169.5" y="754.377">wizardScene()</text><rect fill="#F24D5C" height="6" style="stroke:#C82930;stroke-width:1.0;" width="6" x="157.5" y="761.4531"/><text fill="#000000" font-family="sans-serif" font-size="14" lengthAdjust="spacing" textLength="90" x="169.5" y="771.9863">changeState()</text><rect fill="#F24D5C" height="6" style="stroke:#C82930;stroke-width:1.0;" width="6" x="157.5" y="779.0625"/><text fill="#000000" font-family="sans-serif" font-size="14" lengthAdjust="spacing" textLength="61" x="169.5" y="789.5957">flushCLI()</text><rect fill="#F24D5C" height="6" style="stroke:#C82930;stroke-width:1.0;" width="6" x="157.5" y="796.6719"/><text fill="#000000" font-family="sans-serif" font-size="14" lengthAdjust="spacing" textLength="101" x="169.5" y="807.2051">helpMessages()</text><rect fill="#F24D5C" height="6" style="stroke:#C82930;stroke-width:1.0;" width="6" x="157.5" y="814.2813"/><text fill="#000000" font-family="sans-serif" font-size="14" lengthAdjust="spacing" textLength="63" x="169.5" y="824.8145">nextLine()</text><rect fill="#F24D5C" height="6" style="stroke:#C82930;stroke-width:1.0;" width="6" x="157.5" y="831.8906"/><text fill="#000000" font-family="sans-serif" font-size="14" lengthAdjust="spacing" textLength="74" x="169.5" y="842.4238">parseCTE()</text><rect fill="#F24D5C" height="6" style="stroke:#C82930;stroke-width:1.0;" width="6" x="157.5" y="849.5"/><text fill="#000000" font-family="sans-serif" font-size="14" lengthAdjust="spacing" textLength="72" x="169.5" y="860.0332">parseETX()</text><rect fill="#F24D5C" height="6" style="stroke:#C82930;stroke-width:1.0;" width="6" x="157.5" y="867.1094"/><text fill="#000000" font-family="sans-serif" font-size="14" lengthAdjust="spacing" textLength="86" x="169.5" y="877.6426">parseExpert()</text><rect fill="#F24D5C" height="6" style="stroke:#C82930;stroke-width:1.0;" width="6" x="157.5" y="884.7188"/><text fill="#000000" font-family="sans-serif" font-size="14" lengthAdjust="spacing" textLength="87" x="169.5" y="895.252">parseHelper()</text><rect fill="#F24D5C" height="6" style="stroke:#C82930;stroke-width:1.0;" width="6" x="157.5" y="902.3281"/><text fill="#000000" font-family="sans-serif" font-size="14" lengthAdjust="spacing" textLength="77" x="169.5" y="912.8613">parseInput()</text><rect fill="#F24D5C" height="6" style="stroke:#C82930;stroke-width:1.0;" width="6" x="157.5" y="919.9375"/><text fill="#000000" font-family="sans-serif" font-size="14" lengthAdjust="spacing" textLength="85" x="169.5" y="930.4707">parseLobby()</text><rect fill="#F24D5C" height="6" style="stroke:#C82930;stroke-width:1.0;" width="6" x="157.5" y="937.5469"/><text fill="#000000" font-family="sans-serif" font-size="14" lengthAdjust="spacing" textLength="88" x="169.5" y="948.0801">parseNature()</text><rect fill="#F24D5C" height="6" style="stroke:#C82930;stroke-width:1.0;" width="6" x="157.5" y="955.1563"/><text fill="#000000" font-family="sans-serif" font-size="14" lengthAdjust="spacing" textLength="110" x="169.5" y="965.6895">parseNewGame()</text><rect fill="#F24D5C" height="6" style="stroke:#C82930;stroke-width:1.0;" width="6" x="157.5" y="972.7656"/><text fill="#000000" font-family="sans-serif" font-size="14" lengthAdjust="spacing" textLength="107" x="169.5" y="983.2988">parseNickname()</text><rect fill="#F24D5C" height="6" style="stroke:#C82930;stroke-width:1.0;" width="6" x="157.5" y="990.375"/><text fill="#000000" font-family="sans-serif" font-size="14" lengthAdjust="spacing" textLength="72" x="169.5" y="1000.9082">parsePort()</text><rect fill="#F24D5C" height="6" style="stroke:#C82930;stroke-width:1.0;" width="6" x="157.5" y="1007.9844"/><text fill="#000000" font-family="sans-serif" font-size="14" lengthAdjust="spacing" textLength="72" x="169.5" y="1018.5176">parseQuit()</text><rect fill="#F24D5C" height="6" style="stroke:#C82930;stroke-width:1.0;" width="6" x="157.5" y="1025.5938"/><text fill="#000000" font-family="sans-serif" font-size="14" lengthAdjust="spacing" textLength="76" x="169.5" y="1036.127">parseStart()</text><rect fill="#F24D5C" height="6" style="stroke:#C82930;stroke-width:1.0;" width="6" x="157.5" y="1043.2031"/><text fill="#000000" font-family="sans-serif" font-size="14" lengthAdjust="spacing" textLength="89" x="169.5" y="1053.7363">parseWizard()</text><rect fill="#F24D5C" height="6" style="stroke:#C82930;stroke-width:1.0;" width="6" x="157.5" y="1060.8125"/><text fill="#000000" font-family="sans-serif" font-size="14" lengthAdjust="spacing" textLength="72" x="169.5" y="1071.3457">printBlock()</text><rect fill="#F24D5C" height="6" style="stroke:#C82930;stroke-width:1.0;" width="6" x="157.5" y="1078.4219"/><text fill="#000000" font-family="sans-serif" font-size="14" lengthAdjust="spacing" textLength="120" x="169.5" y="1088.9551">showEffectsMenu()</text><rect fill="#F24D5C" height="6" style="stroke:#C82930;stroke-width:1.0;" width="6" x="157.5" y="1096.0313"/><text fill="#000000" font-family="sans-serif" font-size="14" lengthAdjust="spacing" textLength="76" x="169.5" y="1106.5645">waitUnlock()</text></g><!--MD5=[091cba86111529d81f0aa39b21f74c3b]
class it.polimi.ingsw.client.view.cli.components.EriantysCLI--><g id="elem_it.polimi.ingsw.client.view.cli.components.EriantysCLI"><rect fill="#F1F1F1" height="48" id="it.polimi.ingsw.client.view.cli.components.EriantysCLI" rx="2.5" ry="2.5" style="stroke:#181818;stroke-width:0.5;" width="104" x="193" y="1263.2188"/><ellipse cx="208" cy="1279.2188" fill="#ADD1B2" rx="11" ry="11" style="stroke:#181818;stroke-width:1.0;"/><path d="M210,1275.7188 Q210.2031,1275.2188 210.4375,1274.9688 Q210.6719,1274.7188 210.9375,1274.7188 Q211.4063,1274.7188 211.7031,1275 Q212,1275.2813 212,1275.9375 L212,1277.5 Q212,1278.1563 211.7188,1278.4375 Q211.4375,1278.7188 211,1278.7188 Q210.6094,1278.7188 210.3594,1278.5469 Q210.1094,1278.375 210,1277.9219 Q209.9531,1277.6094 209.7813,1277.4375 Q209.4688,1277.1094 208.9063,1276.9219 Q208.3438,1276.7188 207.7813,1276.7188 Q207.0781,1276.7188 206.4844,1277 Q205.9063,1277.2813 205.4531,1277.9063 Q205,1278.5313 205,1279.3906 L205,1280.3125 Q205,1281.3438 205.8438,1282.0313 Q206.6875,1282.7188 208.1875,1282.7188 Q209.0781,1282.7188 209.7031,1282.5156 Q210.0625,1282.4063 210.4688,1282.0469 Q210.7344,1281.8438 210.875,1281.7813 Q211.0156,1281.7188 211.1875,1281.7188 Q211.5156,1281.7188 211.75,1281.9844 Q212,1282.2344 212,1282.5938 Q212,1282.9375 211.6563,1283.3438 Q211.1563,1283.9375 210.3594,1284.2656 Q209.3125,1284.7188 208.0313,1284.7188 Q206.5313,1284.7188 205.3281,1284.125 Q204.3594,1283.6563 203.6719,1282.6406 Q203,1281.625 203,1280.4219 L203,1279.3281 Q203,1278.0781 203.5938,1276.9844 Q204.2031,1275.8906 205.25,1275.3125 Q206.3125,1274.7188 207.5,1274.7188 Q208.2188,1274.7188 208.8438,1274.9688 Q209.4688,1275.2188 210,1275.7188 Z " fill="#000000"/><text fill="#000000" font-family="sans-serif" font-size="14" lengthAdjust="spacing" textLength="72" x="222" y="1284.9473">EriantysCLI</text><line style="stroke:#181818;stroke-width:0.5;" x1="194" x2="296" y1="1295.2188" y2="1295.2188"/><line style="stroke:#181818;stroke-width:0.5;" x1="194" x2="296" y1="1303.2188" y2="1303.2188"/></g><!--MD5=[2bd04b8e603bed65b50027e295999e48]
class it.polimi.ingsw.client.view.jsonObjects.jGameClassExpert--><g id="elem_it.polimi.ingsw.client.view.jsonObjects.jGameClassExpert"><rect fill="#F1F1F1" height="48" id="it.polimi.ingsw.client.view.jsonObjects.jGameClassExpert" rx="2.5" ry="2.5" style="stroke:#181818;stroke-width:0.5;" width="148" x="353" y="1263.2188"/><ellipse cx="368" cy="1279.2188" fill="#ADD1B2" rx="11" ry="11" style="stroke:#181818;stroke-width:1.0;"/><path d="M370,1275.7188 Q370.2031,1275.2188 370.4375,1274.9688 Q370.6719,1274.7188 370.9375,1274.7188 Q371.4063,1274.7188 371.7031,1275 Q372,1275.2813 372,1275.9375 L372,1277.5 Q372,1278.1563 371.7188,1278.4375 Q371.4375,1278.7188 371,1278.7188 Q370.6094,1278.7188 370.3594,1278.5469 Q370.1094,1278.375 370,1277.9219 Q369.9531,1277.6094 369.7813,1277.4375 Q369.4688,1277.1094 368.9063,1276.9219 Q368.3438,1276.7188 367.7813,1276.7188 Q367.0781,1276.7188 366.4844,1277 Q365.9063,1277.2813 365.4531,1277.9063 Q365,1278.5313 365,1279.3906 L365,1280.3125 Q365,1281.3438 365.8438,1282.0313 Q366.6875,1282.7188 368.1875,1282.7188 Q369.0781,1282.7188 369.7031,1282.5156 Q370.0625,1282.4063 370.4688,1282.0469 Q370.7344,1281.8438 370.875,1281.7813 Q371.0156,1281.7188 371.1875,1281.7188 Q371.5156,1281.7188 371.75,1281.9844 Q372,1282.2344 372,1282.5938 Q372,1282.9375 371.6563,1283.3438 Q371.1563,1283.9375 370.3594,1284.2656 Q369.3125,1284.7188 368.0313,1284.7188 Q366.5313,1284.7188 365.3281,1284.125 Q364.3594,1283.6563 363.6719,1282.6406 Q363,1281.625 363,1280.4219 L363,1279.3281 Q363,1278.0781 363.5938,1276.9844 Q364.2031,1275.8906 365.25,1275.3125 Q366.3125,1274.7188 367.5,1274.7188 Q368.2188,1274.7188 368.8438,1274.9688 Q369.4688,1275.2188 370,1275.7188 Z " fill="#000000"/><text fill="#000000" font-family="sans-serif" font-size="14" lengthAdjust="spacing" textLength="116" x="382" y="1284.9473">jGameClassExpert</text><line style="stroke:#181818;stroke-width:0.5;" x1="354" x2="500" y1="1295.2188" y2="1295.2188"/><line style="stroke:#181818;stroke-width:0.5;" x1="354" x2="500" y1="1303.2188" y2="1303.2188"/></g><!--MD5=[e31470382bb68d39f07b013d3d1b7adf]
reverse link it.polimi.ingsw.client.view.ViewInterface to it.polimi.ingsw.client.view.cli.cliClass--><g id="link_it.polimi.ingsw.client.view.ViewInterface_it.polimi.ingsw.client.view.cli.cliClass"><path codeLine="59" d="M320,210.6488 C320,227.7288 320,249.0287 320,273.1088 " fill="none" id="it.polimi.ingsw.client.view.ViewInterface-backto-it.polimi.ingsw.client.view.cli.cliClass" style="stroke:#181818;stroke-width:1.0;stroke-dasharray:7.0,7.0;"/><polygon fill="none" points="313,210.4588,320,190.4588,327,210.4588,313,210.4588" style="stroke:#181818;stroke-width:1.0;"/></g><!--MD5=[1118433e81a359e490bb35f83a04db03]
reverse link it.polimi.ingsw.client.view.cli.cliClass to it.polimi.ingsw.client.view.cli.components.EriantysCLI--><g id="link_it.polimi.ingsw.client.view.cli.cliClass_it.polimi.ingsw.client.view.cli.components.EriantysCLI"><path codeLine="60" d="M265.23,1126.5688 C257.73,1185.7588 251.41,1235.6388 247.92,1263.1888 " fill="none" id="it.polimi.ingsw.client.view.cli.cliClass-backto-it.polimi.ingsw.client.view.cli.components.EriantysCLI" style="stroke:#181818;stroke-width:1.0;"/><polygon fill="none" points="266.89,1113.3988,262.1633,1118.8447,265.3724,1125.3024,270.0991,1119.8565,266.89,1113.3988" style="stroke:#181818;stroke-width:1.0;"/><text fill="#000000" font-family="sans-serif" font-size="13" lengthAdjust="spacing" textLength="65" x="256" y="1207.7139">eriantysCLI</text></g><!--MD5=[f6267ef65873783064074b6aacddd759]
reverse link it.polimi.ingsw.client.view.cli.cliClass to it.polimi.ingsw.client.view.jsonObjects.jGameClassExpert--><g id="link_it.polimi.ingsw.client.view.cli.cliClass_it.polimi.ingsw.client.view.jsonObjects.jGameClassExpert"><path codeLine="61" d="M398.08,1126.1988 C408.8,1185.5488 417.85,1235.5788 422.84,1263.1888 " fill="none" id="it.polimi.ingsw.client.view.cli.cliClass-backto-it.polimi.ingsw.client.view.jsonObjects.jGameClassExpert" style="stroke:#181818;stroke-width:1.0;"/><polygon fill="none" points="395.76,1113.3988,392.8926,1120.0153,397.8973,1125.2069,400.7647,1118.5904,395.76,1113.3988" style="stroke:#181818;stroke-width:1.0;"/><text fill="#000000" font-family="sans-serif" font-size="13" lengthAdjust="spacing" textLength="59" x="412" y="1207.7139">gameData</text></g><rect height="50.3125" style="stroke:#00000000;stroke-width:1.0;fill:none;" width="394" x="220" y="1333.2188"/><text fill="#888888" font-family="sans-serif" font-size="10" lengthAdjust="spacing" textLength="3" x="415.5" y="1343.5996"> </text><text fill="#888888" font-family="sans-serif" font-size="10" lengthAdjust="spacing" textLength="3" x="415.5" y="1356.1777"> </text><text fill="#888888" font-family="sans-serif" font-size="10" lengthAdjust="spacing" textLength="392" x="221" y="1368.7559">PlantUML diagram generated by SketchIt! (https://bitbucket.org/pmesmeur/sketch.it)</text><text fill="#888888" font-family="sans-serif" font-size="10" lengthAdjust="spacing" textLength="394" x="220" y="1381.334">For more information about this tool, please contact philippe.mesmeur@gmail.com</text><!--MD5=[62e7b7d28948d5a1f41577070b0d15f1]
@startuml

title __CLI's Class Diagram__\n

  namespace it.polimi.ingsw.client {
    namespace view {
      namespace cli {
        class it.polimi.ingsw.client.view.cli.cliClass {
            ~ gameConsole : BufferedReader
            ~ gson : Gson
            - countETX : int
            - currentState : String
            - effectCommands : HashMap<jEffectCard, String>
            - effectDescriptions : HashMap<jEffectCard, String>
            - effectStrings : ArrayList<String>
            - expertMode : Boolean
            - gameView : ArrayList<String>
            - ip : String
            - mainThread : Thread
            - nextLineMessage : String
            - playedEffect : Boolean
            - playerNumber : int
            - port : int
            + cliClass()
            + endScene()
            + helperScene()
            + lockView()
            + manageReconnection()
            + messageScene()
            + startScene()
            + updateView()
            + waitLobbyScene()
            + wizardScene()
            - changeState()
            - flushCLI()
            - helpMessages()
            - nextLine()
            - parseCTE()
            - parseETX()
            - parseExpert()
            - parseHelper()
            - parseInput()
            - parseLobby()
            - parseNature()
            - parseNewGame()
            - parseNickname()
            - parsePort()
            - parseQuit()
            - parseStart()
            - parseWizard()
            - printBlock()
            - showEffectsMenu()
            - waitUnlock()
        }
      }
    }
  }
  

  it.polimi.ingsw.client.view.cli.cliClass .up.|> it.polimi.ingsw.client.view.ViewInterface
  it.polimi.ingsw.client.view.cli.cliClass o- - it.polimi.ingsw.client.view.cli.components.EriantysCLI : eriantysCLI
  it.polimi.ingsw.client.view.cli.cliClass o- - it.polimi.ingsw.client.view.jsonObjects.jGameClassExpert : gameData


right footer


PlantUML diagram generated by SketchIt! (https://bitbucket.org/pmesmeur/sketch.it)
For more information about this tool, please contact philippe.mesmeur@gmail.com
endfooter

@enduml

PlantUML version 1.2022.5(Sat Apr 30 12:55:52 CEST 2022)
(GPL source distribution)
Java Runtime: OpenJDK Runtime Environment
JVM: OpenJDK 64-Bit Server VM
Default Encoding: Cp1252
Language: en
Country: US
--></g></svg>