<?xml version="1.0" encoding="UTF-8" standalone="no"?><svg xmlns="http://www.w3.org/2000/svg" xmlns:xlink="http://www.w3.org/1999/xlink" contentStyleType="text/css" height="261px" preserveAspectRatio="none" style="width:402px;height:261px;background:#FFFFFF;" version="1.1" viewBox="0 0 402 261" width="402px" zoomAndPan="magnify"><defs/><g><rect height="45.2188" style="stroke:#00000000;stroke-width:1.0;fill:none;" width="180" x="107" y="5"/><text fill="#000000" font-family="sans-serif" font-size="14" font-weight="bold" lengthAdjust="spacing" text-decoration="underline" textLength="170" x="112" y="24.5332">SERVER's Class Diagram</text><text fill="#000000" font-family="sans-serif" font-size="14" font-weight="bold" lengthAdjust="spacing" textLength="4" x="195" y="42.1426"> </text><!--MD5=[6ff9cca172c9c23be7720fa07ee26538]
cluster it.polimi.ingsw.server--><g id="cluster_it.polimi.ingsw.server"><path d="M93.5,62.2188 L245.5,62.2188 A3.75,3.75 0 0 1 248,64.7188 L255,85.8281 L313.5,85.8281 A2.5,2.5 0 0 1 316,88.3281 L316,194.7188 A2.5,2.5 0 0 1 313.5,197.2188 L93.5,197.2188 A2.5,2.5 0 0 1 91,194.7188 L91,64.7188 A2.5,2.5 0 0 1 93.5,62.2188 " style="stroke:#000000;stroke-width:1.5;fill:none;"/><line style="stroke:#000000;stroke-width:1.5;fill:none;" x1="91" x2="255" y1="85.8281" y2="85.8281"/><text fill="#000000" font-family="sans-serif" font-size="14" font-weight="bold" lengthAdjust="spacing" textLength="151" x="95" y="78.752">it.polimi.ingsw.server</text></g><!--MD5=[040b9920109c8902d56e12b8ea95a731]
class it.polimi.ingsw.server.App--><g id="elem_it.polimi.ingsw.server.App"><rect codeLine="5" fill="#F1F1F1" height="65.6094" id="it.polimi.ingsw.server.App" rx="2.5" ry="2.5" style="stroke:#181818;stroke-width:0.5;" width="66" x="234" y="106.7188"/><ellipse cx="253.05" cy="122.7188" fill="#ADD1B2" rx="11" ry="11" style="stroke:#181818;stroke-width:1.0;"/><path d="M255.05,119.2188 Q255.2531,118.7188 255.4875,118.4688 Q255.7219,118.2188 255.9875,118.2188 Q256.4563,118.2188 256.7531,118.5 Q257.05,118.7813 257.05,119.4375 L257.05,121 Q257.05,121.6563 256.7688,121.9375 Q256.4875,122.2188 256.05,122.2188 Q255.6594,122.2188 255.4094,122.0469 Q255.1594,121.875 255.05,121.4219 Q255.0031,121.1094 254.8313,120.9375 Q254.5188,120.6094 253.9563,120.4219 Q253.3938,120.2188 252.8313,120.2188 Q252.1281,120.2188 251.5344,120.5 Q250.9563,120.7813 250.5031,121.4063 Q250.05,122.0313 250.05,122.8906 L250.05,123.8125 Q250.05,124.8438 250.8938,125.5313 Q251.7375,126.2188 253.2375,126.2188 Q254.1281,126.2188 254.7531,126.0156 Q255.1125,125.9063 255.5188,125.5469 Q255.7844,125.3438 255.925,125.2813 Q256.0656,125.2188 256.2375,125.2188 Q256.5656,125.2188 256.8,125.4844 Q257.05,125.7344 257.05,126.0938 Q257.05,126.4375 256.7063,126.8438 Q256.2063,127.4375 255.4094,127.7656 Q254.3625,128.2188 253.0813,128.2188 Q251.5813,128.2188 250.3781,127.625 Q249.4094,127.1563 248.7219,126.1406 Q248.05,125.125 248.05,123.9219 L248.05,122.8281 Q248.05,121.5781 248.6438,120.4844 Q249.2531,119.3906 250.3,118.8125 Q251.3625,118.2188 252.55,118.2188 Q253.2688,118.2188 253.8938,118.4688 Q254.5188,118.7188 255.05,119.2188 Z " fill="#000000"/><text fill="#000000" font-family="sans-serif" font-size="14" lengthAdjust="spacing" textLength="25" x="267.95" y="128.4473">App</text><line style="stroke:#181818;stroke-width:0.5;" x1="235" x2="299" y1="138.7188" y2="138.7188"/><line style="stroke:#181818;stroke-width:0.5;" x1="235" x2="299" y1="146.7188" y2="146.7188"/><ellipse cx="245" cy="157.7188" fill="#84BE84" rx="3" ry="3" style="stroke:#038048;stroke-width:1.0;"/><text fill="#000000" font-family="sans-serif" font-size="14" lengthAdjust="spacing" text-decoration="underline" textLength="40" x="254" y="165.252">main()</text></g><!--MD5=[e7f232240bcc771657abf1d0e4ed0e64]
class it.polimi.ingsw.server.Logger--><g id="elem_it.polimi.ingsw.server.Logger"><rect codeLine="12" fill="#F1F1F1" height="83.2188" id="it.polimi.ingsw.server.Logger" rx="2.5" ry="2.5" style="stroke:#181818;stroke-width:0.5;" width="92" x="107" y="98.2188"/><ellipse cx="128.75" cy="114.2188" fill="#ADD1B2" rx="11" ry="11" style="stroke:#181818;stroke-width:1.0;"/><path d="M130.75,110.7188 Q130.9531,110.2188 131.1875,109.9688 Q131.4219,109.7188 131.6875,109.7188 Q132.1563,109.7188 132.4531,110 Q132.75,110.2813 132.75,110.9375 L132.75,112.5 Q132.75,113.1563 132.4688,113.4375 Q132.1875,113.7188 131.75,113.7188 Q131.3594,113.7188 131.1094,113.5469 Q130.8594,113.375 130.75,112.9219 Q130.7031,112.6094 130.5313,112.4375 Q130.2188,112.1094 129.6563,111.9219 Q129.0938,111.7188 128.5313,111.7188 Q127.8281,111.7188 127.2344,112 Q126.6563,112.2813 126.2031,112.9063 Q125.75,113.5313 125.75,114.3906 L125.75,115.3125 Q125.75,116.3438 126.5938,117.0313 Q127.4375,117.7188 128.9375,117.7188 Q129.8281,117.7188 130.4531,117.5156 Q130.8125,117.4063 131.2188,117.0469 Q131.4844,116.8438 131.625,116.7813 Q131.7656,116.7188 131.9375,116.7188 Q132.2656,116.7188 132.5,116.9844 Q132.75,117.2344 132.75,117.5938 Q132.75,117.9375 132.4063,118.3438 Q131.9063,118.9375 131.1094,119.2656 Q130.0625,119.7188 128.7813,119.7188 Q127.2813,119.7188 126.0781,119.125 Q125.1094,118.6563 124.4219,117.6406 Q123.75,116.625 123.75,115.4219 L123.75,114.3281 Q123.75,113.0781 124.3438,111.9844 Q124.9531,110.8906 126,110.3125 Q127.0625,109.7188 128.25,109.7188 Q128.9688,109.7188 129.5938,109.9688 Q130.2188,110.2188 130.75,110.7188 Z " fill="#000000"/><text fill="#000000" font-family="sans-serif" font-size="14" lengthAdjust="spacing" textLength="45" x="144.25" y="119.9473">Logger</text><line style="stroke:#181818;stroke-width:0.5;" x1="108" x2="198" y1="130.2188" y2="130.2188"/><line style="stroke:#181818;stroke-width:0.5;" x1="108" x2="198" y1="138.2188" y2="138.2188"/><ellipse cx="118" cy="149.2188" fill="#84BE84" rx="3" ry="3" style="stroke:#038048;stroke-width:1.0;"/><text fill="#000000" font-family="sans-serif" font-size="14" lengthAdjust="spacing" textLength="55" x="127" y="156.752">Logger()</text><ellipse cx="118" cy="166.8281" fill="#84BE84" rx="3" ry="3" style="stroke:#038048;stroke-width:1.0;"/><text fill="#000000" font-family="sans-serif" font-size="14" lengthAdjust="spacing" text-decoration="underline" textLength="66" x="127" y="174.3613">storeLog()</text></g><rect height="50.3125" style="stroke:#00000000;stroke-width:1.0;fill:none;" width="394" x="0" y="203.2188"/><text fill="#888888" font-family="sans-serif" font-size="10" lengthAdjust="spacing" textLength="3" x="195.5" y="213.5996"> </text><text fill="#888888" font-family="sans-serif" font-size="10" lengthAdjust="spacing" textLength="3" x="195.5" y="226.1777"> </text><text fill="#888888" font-family="sans-serif" font-size="10" lengthAdjust="spacing" textLength="392" x="1" y="238.7559">PlantUML diagram generated by SketchIt! (https://bitbucket.org/pmesmeur/sketch.it)</text><text fill="#888888" font-family="sans-serif" font-size="10" lengthAdjust="spacing" textLength="394" x="0" y="251.334">For more information about this tool, please contact philippe.mesmeur@gmail.com</text><!--MD5=[58ce468c3bbbf5a2e05274b1d6c3eaa7]
@startuml

title __SERVER's Class Diagram__\n

  namespace it.polimi.ingsw.server {
    class it.polimi.ingsw.server.App {
        {static} + main()
    }
  }
  

  namespace it.polimi.ingsw.server {
    class it.polimi.ingsw.server.Logger {
        + Logger()
        {static} + storeLog()
    }
  }
  



right footer


PlantUML diagram generated by SketchIt! (https://bitbucket.org/pmesmeur/sketch.it)
For more information about this tool, please contact philippe.mesmeur@gmail.com
endfooter

@enduml

PlantUML version 1.2022.5(Sat Apr 30 12:55:52 CEST 2022)
(GPL source distribution)
Java Runtime: OpenJDK Runtime Environment
JVM: OpenJDK 64-Bit Server VM
Default Encoding: Cp1252
Language: en
Country: US
--></g></svg>