<?xml version="1.0" encoding="UTF-8" standalone="no"?><svg xmlns="http://www.w3.org/2000/svg" xmlns:xlink="http://www.w3.org/1999/xlink" contentStyleType="text/css" height="755px" preserveAspectRatio="none" style="width:581px;height:755px;background:#FFFFFF;" version="1.1" viewBox="0 0 581 755" width="581px" zoomAndPan="magnify"><defs/><g><rect height="45.2188" style="stroke:#00000000;stroke-width:1.0;fill:none;" width="172" x="197.5" y="5"/><text fill="#000000" font-family="sans-serif" font-size="14" font-weight="bold" lengthAdjust="spacing" text-decoration="underline" textLength="162" x="202.5" y="24.5332">CARDS's Class Diagram</text><text fill="#000000" font-family="sans-serif" font-size="14" font-weight="bold" lengthAdjust="spacing" textLength="4" x="281.5" y="42.1426"> </text><!--MD5=[6ff9cca172c9c23be7720fa07ee26538]
cluster it.polimi.ingsw.server--><g id="cluster_it.polimi.ingsw.server"><path d="M8.5,62.2188 L160.5,62.2188 A3.75,3.75 0 0 1 163,64.7188 L170,85.8281 L571.5,85.8281 A2.5,2.5 0 0 1 574,88.3281 L574,688.7188 A2.5,2.5 0 0 1 571.5,691.2188 L8.5,691.2188 A2.5,2.5 0 0 1 6,688.7188 L6,64.7188 A2.5,2.5 0 0 1 8.5,62.2188 " style="stroke:#000000;stroke-width:1.5;fill:none;"/><line style="stroke:#000000;stroke-width:1.5;fill:none;" x1="6" x2="170" y1="85.8281" y2="85.8281"/><text fill="#000000" font-family="sans-serif" font-size="14" font-weight="bold" lengthAdjust="spacing" textLength="151" x="10" y="78.752">it.polimi.ingsw.server</text></g><!--MD5=[d74938be96b9aa462ff19a3531fdd989]
cluster model.cards--><g id="cluster_model.cards"><path d="M32.5,106.2188 L119.5,106.2188 A3.75,3.75 0 0 1 122,108.7188 L129,129.8281 L547.5,129.8281 A2.5,2.5 0 0 1 550,132.3281 L550,664.7188 A2.5,2.5 0 0 1 547.5,667.2188 L32.5,667.2188 A2.5,2.5 0 0 1 30,664.7188 L30,108.7188 A2.5,2.5 0 0 1 32.5,106.2188 " style="stroke:#000000;stroke-width:1.5;fill:none;"/><line style="stroke:#000000;stroke-width:1.5;fill:none;" x1="30" x2="129" y1="129.8281" y2="129.8281"/><text fill="#000000" font-family="sans-serif" font-size="14" font-weight="bold" lengthAdjust="spacing" textLength="86" x="34" y="122.752">model.cards</text></g><!--MD5=[f99603f6e3eded1f2b7aef20bee78be0]
class it.polimi.ingsw.server.model.cards.EffectCard--><g id="elem_it.polimi.ingsw.server.model.cards.EffectCard"><rect codeLine="6" fill="#F1F1F1" height="294.5313" id="it.polimi.ingsw.server.model.cards.EffectCard" rx="2.5" ry="2.5" style="stroke:#181818;stroke-width:0.5;" width="177" x="46.5" y="142.2188"/><ellipse cx="97.25" cy="158.2188" fill="#ADD1B2" rx="11" ry="11" style="stroke:#181818;stroke-width:1.0;"/><path d="M99.25,154.7188 Q99.4531,154.2188 99.6875,153.9688 Q99.9219,153.7188 100.1875,153.7188 Q100.6563,153.7188 100.9531,154 Q101.25,154.2813 101.25,154.9375 L101.25,156.5 Q101.25,157.1563 100.9688,157.4375 Q100.6875,157.7188 100.25,157.7188 Q99.8594,157.7188 99.6094,157.5469 Q99.3594,157.375 99.25,156.9219 Q99.2031,156.6094 99.0313,156.4375 Q98.7188,156.1094 98.1563,155.9219 Q97.5938,155.7188 97.0313,155.7188 Q96.3281,155.7188 95.7344,156 Q95.1563,156.2813 94.7031,156.9063 Q94.25,157.5313 94.25,158.3906 L94.25,159.3125 Q94.25,160.3438 95.0938,161.0313 Q95.9375,161.7188 97.4375,161.7188 Q98.3281,161.7188 98.9531,161.5156 Q99.3125,161.4063 99.7188,161.0469 Q99.9844,160.8438 100.125,160.7813 Q100.2656,160.7188 100.4375,160.7188 Q100.7656,160.7188 101,160.9844 Q101.25,161.2344 101.25,161.5938 Q101.25,161.9375 100.9063,162.3438 Q100.4063,162.9375 99.6094,163.2656 Q98.5625,163.7188 97.2813,163.7188 Q95.7813,163.7188 94.5781,163.125 Q93.6094,162.6563 92.9219,161.6406 Q92.25,160.625 92.25,159.4219 L92.25,158.3281 Q92.25,157.0781 92.8438,155.9844 Q93.4531,154.8906 94.5,154.3125 Q95.5625,153.7188 96.75,153.7188 Q97.4688,153.7188 98.0938,153.9688 Q98.7188,154.2188 99.25,154.7188 Z " fill="#000000"/><text fill="#000000" font-family="sans-serif" font-size="14" lengthAdjust="spacing" textLength="67" x="117.75" y="163.9473">EffectCard</text><line style="stroke:#181818;stroke-width:0.5;" x1="47.5" x2="222.5" y1="174.2188" y2="174.2188"/><ellipse cx="57.5" cy="185.2188" fill="none" rx="3" ry="3" style="stroke:#038048;stroke-width:1.0;"/><text fill="#000000" font-family="sans-serif" font-size="14" lengthAdjust="spacing" textLength="124" x="66.5" y="192.752">prohibitionCard : int</text><rect fill="none" height="6" style="stroke:#C82930;stroke-width:1.0;" width="6" x="54.5" y="199.8281"/><text fill="#000000" font-family="sans-serif" font-size="14" lengthAdjust="spacing" textLength="118" x="66.5" y="210.3613">description : String</text><rect fill="none" height="6" style="stroke:#C82930;stroke-width:1.0;" width="6" x="54.5" y="217.4375"/><text fill="#000000" font-family="sans-serif" font-size="14" lengthAdjust="spacing" textLength="58" x="66.5" y="227.9707">price : int</text><rect fill="none" height="6" style="stroke:#C82930;stroke-width:1.0;" width="6" x="54.5" y="235.0469"/><text fill="#000000" font-family="sans-serif" font-size="14" lengthAdjust="spacing" textLength="151" x="66.5" y="245.5801">students : ColoredDisc[]</text><rect fill="none" height="6" style="stroke:#C82930;stroke-width:1.0;" width="6" x="54.5" y="252.6563"/><text fill="#000000" font-family="sans-serif" font-size="14" lengthAdjust="spacing" textLength="94" x="66.5" y="263.1895">used : boolean</text><line style="stroke:#181818;stroke-width:0.5;" x1="47.5" x2="222.5" y1="270.2656" y2="270.2656"/><ellipse cx="57.5" cy="281.2656" fill="#84BE84" rx="3" ry="3" style="stroke:#038048;stroke-width:1.0;"/><text fill="#000000" font-family="sans-serif" font-size="14" lengthAdjust="spacing" textLength="77" x="66.5" y="288.7988">EffectCard()</text><ellipse cx="57.5" cy="298.875" fill="#84BE84" rx="3" ry="3" style="stroke:#038048;stroke-width:1.0;"/><text fill="#000000" font-family="sans-serif" font-size="14" lengthAdjust="spacing" textLength="83" x="66.5" y="306.4082">addStudent()</text><ellipse cx="57.5" cy="316.4844" fill="#84BE84" rx="3" ry="3" style="stroke:#038048;stroke-width:1.0;"/><text fill="#000000" font-family="sans-serif" font-size="14" lengthAdjust="spacing" textLength="43" x="66.5" y="324.0176">getID()</text><ellipse cx="57.5" cy="334.0938" fill="#84BE84" rx="3" ry="3" style="stroke:#038048;stroke-width:1.0;"/><text fill="#000000" font-family="sans-serif" font-size="14" lengthAdjust="spacing" textLength="62" x="66.5" y="341.627">getPrice()</text><ellipse cx="57.5" cy="351.7031" fill="#84BE84" rx="3" ry="3" style="stroke:#038048;stroke-width:1.0;"/><text fill="#000000" font-family="sans-serif" font-size="14" lengthAdjust="spacing" textLength="128" x="66.5" y="359.2363">getProhibitionCard()</text><ellipse cx="57.5" cy="369.3125" fill="#84BE84" rx="3" ry="3" style="stroke:#038048;stroke-width:1.0;"/><text fill="#000000" font-family="sans-serif" font-size="14" lengthAdjust="spacing" textLength="86" x="66.5" y="376.8457">getStudents()</text><ellipse cx="57.5" cy="386.9219" fill="#84BE84" rx="3" ry="3" style="stroke:#038048;stroke-width:1.0;"/><text fill="#000000" font-family="sans-serif" font-size="14" lengthAdjust="spacing" textLength="52" x="66.5" y="394.4551">isUsed()</text><ellipse cx="57.5" cy="404.5313" fill="#84BE84" rx="3" ry="3" style="stroke:#038048;stroke-width:1.0;"/><text fill="#000000" font-family="sans-serif" font-size="14" lengthAdjust="spacing" textLength="106" x="66.5" y="412.0645">removeStudent()</text><ellipse cx="57.5" cy="422.1406" fill="#84BE84" rx="3" ry="3" style="stroke:#038048;stroke-width:1.0;"/><text fill="#000000" font-family="sans-serif" font-size="14" lengthAdjust="spacing" textLength="64" x="66.5" y="429.6738">useCard()</text></g><!--MD5=[5534b0eb7c11f970786242dc3cc627aa]
class model.cards.EffectName--><g id="elem_model.cards.EffectName"><rect codeLine="28" fill="#F1F1F1" height="259.3125" id="model.cards.EffectName" rx="2.5" ry="2.5" style="stroke:#181818;stroke-width:0.5;" width="104" x="259" y="160.2188"/><ellipse cx="274" cy="176.2188" fill="#EB937F" rx="11" ry="11" style="stroke:#181818;stroke-width:1.0;"/><path d="M272.5,177.2188 L272.5,179.2188 L276.5,179.2188 L276.5,178.2188 L276.5,177.7344 L277.125,177.2188 L277.5,177.2188 L277.875,177.2188 L278.5,177.7344 L278.5,178.2188 L278.5,181.2188 L270.5,181.2188 L270.0156,181.2188 L269.5,180.5938 L269.5,180.2188 L269.5,179.8438 L270.0156,179.2188 L270.5,179.2188 L270.5,179.2188 L270.5,173.2188 L270.5,173.2188 L270.0156,173.2188 L269.5,172.5938 L269.5,172.2188 L269.5,171.8438 L270.0156,171.2188 L270.5,171.2188 L278.5,171.2188 L278.5,174.2188 L278.5,174.7031 L277.875,175.2188 L277.5,175.2188 L277.125,175.2188 L276.5,174.7031 L276.5,174.2188 L276.5,173.2188 L272.5,173.2188 L272.5,175.2188 L273.5,175.2188 L273.5,174.7344 L273.5,174.7344 L274.125,174.2188 L274.5,174.2188 L274.875,174.2188 L275.5,174.7344 L275.5,175.2188 L275.5,177.2188 L275.5,177.7031 L274.875,178.2188 L274.875,178.2188 L274.5,178.2188 L274.125,178.2188 L273.5,177.7031 L273.5,177.7031 L273.5,177.2188 L272.5,177.2188 Z " fill="#000000"/><text fill="#000000" font-family="sans-serif" font-size="14" lengthAdjust="spacing" textLength="72" x="288" y="181.9473">EffectName</text><line style="stroke:#181818;stroke-width:0.5;" x1="260" x2="362" y1="192.2188" y2="192.2188"/><text fill="#000000" font-family="sans-serif" font-size="14" lengthAdjust="spacing" textLength="49" x="265" y="210.752">BANDIT</text><text fill="#000000" font-family="sans-serif" font-size="14" lengthAdjust="spacing" textLength="67" x="265" y="228.3613">CAVALIER</text><text fill="#000000" font-family="sans-serif" font-size="14" lengthAdjust="spacing" textLength="65" x="265" y="245.9707">CENTAUR</text><text fill="#000000" font-family="sans-serif" font-size="14" lengthAdjust="spacing" textLength="41" x="265" y="263.5801">COOK</text><text fill="#000000" font-family="sans-serif" font-size="14" lengthAdjust="spacing" textLength="42" x="265" y="281.1895">JOLLY</text><text fill="#000000" font-family="sans-serif" font-size="14" lengthAdjust="spacing" textLength="36" x="265" y="298.7988">LADY</text><text fill="#000000" font-family="sans-serif" font-size="14" lengthAdjust="spacing" textLength="39" x="265" y="316.4082">LORD</text><text fill="#000000" font-family="sans-serif" font-size="14" lengthAdjust="spacing" textLength="65" x="265" y="334.0176">MAGICIAN</text><text fill="#000000" font-family="sans-serif" font-size="14" lengthAdjust="spacing" textLength="40" x="265" y="351.627">MONK</text><text fill="#000000" font-family="sans-serif" font-size="14" lengthAdjust="spacing" textLength="63" x="265" y="369.2363">MUSICIAN</text><text fill="#000000" font-family="sans-serif" font-size="14" lengthAdjust="spacing" textLength="47" x="265" y="386.8457">QUEEN</text><text fill="#000000" font-family="sans-serif" font-size="14" lengthAdjust="spacing" textLength="49" x="265" y="404.4551">VILLAIN</text><line style="stroke:#181818;stroke-width:0.5;" x1="260" x2="362" y1="411.5313" y2="411.5313"/></g><!--MD5=[1ea437b5d48386d29ca3ce0194fe1075]
class it.polimi.ingsw.server.model.cards.HelperCard--><g id="elem_it.polimi.ingsw.server.model.cards.HelperCard"><rect codeLine="48" fill="#F1F1F1" height="188.875" id="it.polimi.ingsw.server.model.cards.HelperCard" rx="2.5" ry="2.5" style="stroke:#181818;stroke-width:0.5;" width="136" x="398" y="195.2188"/><ellipse cx="427.4" cy="211.2188" fill="#ADD1B2" rx="11" ry="11" style="stroke:#181818;stroke-width:1.0;"/><path d="M429.4,207.7188 Q429.6031,207.2188 429.8375,206.9688 Q430.0719,206.7188 430.3375,206.7188 Q430.8063,206.7188 431.1031,207 Q431.4,207.2813 431.4,207.9375 L431.4,209.5 Q431.4,210.1563 431.1188,210.4375 Q430.8375,210.7188 430.4,210.7188 Q430.0094,210.7188 429.7594,210.5469 Q429.5094,210.375 429.4,209.9219 Q429.3531,209.6094 429.1813,209.4375 Q428.8688,209.1094 428.3063,208.9219 Q427.7438,208.7188 427.1813,208.7188 Q426.4781,208.7188 425.8844,209 Q425.3063,209.2813 424.8531,209.9063 Q424.4,210.5313 424.4,211.3906 L424.4,212.3125 Q424.4,213.3438 425.2438,214.0313 Q426.0875,214.7188 427.5875,214.7188 Q428.4781,214.7188 429.1031,214.5156 Q429.4625,214.4063 429.8688,214.0469 Q430.1344,213.8438 430.275,213.7813 Q430.4156,213.7188 430.5875,213.7188 Q430.9156,213.7188 431.15,213.9844 Q431.4,214.2344 431.4,214.5938 Q431.4,214.9375 431.0563,215.3438 Q430.5563,215.9375 429.7594,216.2656 Q428.7125,216.7188 427.4313,216.7188 Q425.9313,216.7188 424.7281,216.125 Q423.7594,215.6563 423.0719,214.6406 Q422.4,213.625 422.4,212.4219 L422.4,211.3281 Q422.4,210.0781 422.9938,208.9844 Q423.6031,207.8906 424.65,207.3125 Q425.7125,206.7188 426.9,206.7188 Q427.6188,206.7188 428.2438,206.9688 Q428.8688,207.2188 429.4,207.7188 Z " fill="#000000"/><text fill="#000000" font-family="sans-serif" font-size="14" lengthAdjust="spacing" textLength="72" x="444.6" y="216.9473">HelperCard</text><line style="stroke:#181818;stroke-width:0.5;" x1="399" x2="533" y1="227.2188" y2="227.2188"/><rect fill="none" height="6" style="stroke:#C82930;stroke-width:1.0;" width="6" x="406" y="235.2188"/><text fill="#000000" font-family="sans-serif" font-size="14" lengthAdjust="spacing" textLength="104" x="418" y="245.752">cardNumber : int</text><rect fill="none" height="6" style="stroke:#C82930;stroke-width:1.0;" width="6" x="406" y="252.8281"/><text fill="#000000" font-family="sans-serif" font-size="14" lengthAdjust="spacing" textLength="93" x="418" y="263.3613">maxMoves : int</text><rect fill="none" height="6" style="stroke:#C82930;stroke-width:1.0;" width="6" x="406" y="270.4375"/><text fill="#000000" font-family="sans-serif" font-size="14" lengthAdjust="spacing" textLength="94" x="418" y="280.9707">used : boolean</text><line style="stroke:#181818;stroke-width:0.5;" x1="399" x2="533" y1="288.0469" y2="288.0469"/><ellipse cx="409" cy="299.0469" fill="#84BE84" rx="3" ry="3" style="stroke:#038048;stroke-width:1.0;"/><text fill="#000000" font-family="sans-serif" font-size="14" lengthAdjust="spacing" textLength="82" x="418" y="306.5801">HelperCard()</text><ellipse cx="409" cy="316.6563" fill="#84BE84" rx="3" ry="3" style="stroke:#038048;stroke-width:1.0;"/><text fill="#000000" font-family="sans-serif" font-size="14" lengthAdjust="spacing" textLength="110" x="418" y="324.1895">getCardNumber()</text><ellipse cx="409" cy="334.2656" fill="#84BE84" rx="3" ry="3" style="stroke:#038048;stroke-width:1.0;"/><text fill="#000000" font-family="sans-serif" font-size="14" lengthAdjust="spacing" textLength="96" x="418" y="341.7988">getMaxMoves()</text><ellipse cx="409" cy="351.875" fill="#84BE84" rx="3" ry="3" style="stroke:#038048;stroke-width:1.0;"/><text fill="#000000" font-family="sans-serif" font-size="14" lengthAdjust="spacing" textLength="52" x="418" y="359.4082">isUsed()</text><ellipse cx="409" cy="369.4844" fill="#84BE84" rx="3" ry="3" style="stroke:#038048;stroke-width:1.0;"/><text fill="#000000" font-family="sans-serif" font-size="14" lengthAdjust="spacing" textLength="61" x="418" y="377.0176">setUsed()</text></g><!--MD5=[cb269890168ffd51ca93beb87a7d2bbe]
class model.cards.Wizard--><g id="elem_model.cards.Wizard"><rect codeLine="64" fill="#F1F1F1" height="136.0469" id="model.cards.Wizard" rx="2.5" ry="2.5" style="stroke:#181818;stroke-width:0.5;" width="75" x="273.5" y="515.2188"/><ellipse cx="288.5" cy="531.2188" fill="#EB937F" rx="11" ry="11" style="stroke:#181818;stroke-width:1.0;"/><path d="M287,532.2188 L287,534.2188 L291,534.2188 L291,533.2188 L291,532.7344 L291.625,532.2188 L292,532.2188 L292.375,532.2188 L293,532.7344 L293,533.2188 L293,536.2188 L285,536.2188 L284.5156,536.2188 L284,535.5938 L284,535.2188 L284,534.8438 L284.5156,534.2188 L285,534.2188 L285,534.2188 L285,528.2188 L285,528.2188 L284.5156,528.2188 L284,527.5938 L284,527.2188 L284,526.8438 L284.5156,526.2188 L285,526.2188 L293,526.2188 L293,529.2188 L293,529.7031 L292.375,530.2188 L292,530.2188 L291.625,530.2188 L291,529.7031 L291,529.2188 L291,528.2188 L287,528.2188 L287,530.2188 L288,530.2188 L288,529.7344 L288,529.7344 L288.625,529.2188 L289,529.2188 L289.375,529.2188 L290,529.7344 L290,530.2188 L290,532.2188 L290,532.7031 L289.375,533.2188 L289.375,533.2188 L289,533.2188 L288.625,533.2188 L288,532.7031 L288,532.7031 L288,532.2188 L287,532.2188 Z " fill="#000000"/><text fill="#000000" font-family="sans-serif" font-size="14" lengthAdjust="spacing" textLength="43" x="302.5" y="536.9473">Wizard</text><line style="stroke:#181818;stroke-width:0.5;" x1="274.5" x2="347.5" y1="547.2188" y2="547.2188"/><text fill="#000000" font-family="sans-serif" font-size="14" lengthAdjust="spacing" textLength="57" x="279.5" y="565.752">SPECIAL</text><text fill="#000000" font-family="sans-serif" font-size="14" lengthAdjust="spacing" textLength="61" x="279.5" y="583.3613">WIZARD1</text><text fill="#000000" font-family="sans-serif" font-size="14" lengthAdjust="spacing" textLength="61" x="279.5" y="600.9707">WIZARD2</text><text fill="#000000" font-family="sans-serif" font-size="14" lengthAdjust="spacing" textLength="61" x="279.5" y="618.5801">WIZARD3</text><text fill="#000000" font-family="sans-serif" font-size="14" lengthAdjust="spacing" textLength="61" x="279.5" y="636.1895">WIZARD4</text><line style="stroke:#181818;stroke-width:0.5;" x1="274.5" x2="347.5" y1="643.2656" y2="643.2656"/></g><!--MD5=[6286a0356ca3e6904334cc584c28194f]
class it.polimi.ingsw.server.model.cards.EffectName--><g id="elem_it.polimi.ingsw.server.model.cards.EffectName"><rect fill="#F1F1F1" height="48" id="it.polimi.ingsw.server.model.cards.EffectName" rx="2.5" ry="2.5" style="stroke:#181818;stroke-width:0.5;" width="104" x="83" y="559.2188"/><ellipse cx="98" cy="575.2188" fill="#ADD1B2" rx="11" ry="11" style="stroke:#181818;stroke-width:1.0;"/><path d="M100,571.7188 Q100.2031,571.2188 100.4375,570.9688 Q100.6719,570.7188 100.9375,570.7188 Q101.4063,570.7188 101.7031,571 Q102,571.2813 102,571.9375 L102,573.5 Q102,574.1563 101.7188,574.4375 Q101.4375,574.7188 101,574.7188 Q100.6094,574.7188 100.3594,574.5469 Q100.1094,574.375 100,573.9219 Q99.9531,573.6094 99.7813,573.4375 Q99.4688,573.1094 98.9063,572.9219 Q98.3438,572.7188 97.7813,572.7188 Q97.0781,572.7188 96.4844,573 Q95.9063,573.2813 95.4531,573.9063 Q95,574.5313 95,575.3906 L95,576.3125 Q95,577.3438 95.8438,578.0313 Q96.6875,578.7188 98.1875,578.7188 Q99.0781,578.7188 99.7031,578.5156 Q100.0625,578.4063 100.4688,578.0469 Q100.7344,577.8438 100.875,577.7813 Q101.0156,577.7188 101.1875,577.7188 Q101.5156,577.7188 101.75,577.9844 Q102,578.2344 102,578.5938 Q102,578.9375 101.6563,579.3438 Q101.1563,579.9375 100.3594,580.2656 Q99.3125,580.7188 98.0313,580.7188 Q96.5313,580.7188 95.3281,580.125 Q94.3594,579.6563 93.6719,578.6406 Q93,577.625 93,576.4219 L93,575.3281 Q93,574.0781 93.5938,572.9844 Q94.2031,571.8906 95.25,571.3125 Q96.3125,570.7188 97.5,570.7188 Q98.2188,570.7188 98.8438,570.9688 Q99.4688,571.2188 100,571.7188 Z " fill="#000000"/><text fill="#000000" font-family="sans-serif" font-size="14" lengthAdjust="spacing" textLength="72" x="112" y="580.9473">EffectName</text><line style="stroke:#181818;stroke-width:0.5;" x1="84" x2="186" y1="591.2188" y2="591.2188"/><line style="stroke:#181818;stroke-width:0.5;" x1="84" x2="186" y1="599.2188" y2="599.2188"/></g><!--MD5=[eea50f4ce875bf1680d1e2d8b4037db2]
reverse link it.polimi.ingsw.server.model.cards.EffectCard to it.polimi.ingsw.server.model.cards.EffectName--><g id="link_it.polimi.ingsw.server.model.cards.EffectCard_it.polimi.ingsw.server.model.cards.EffectName"><path codeLine="75" d="M135,450.3488 C135,493.1788 135,534.3988 135,559.0288 " fill="none" id="it.polimi.ingsw.server.model.cards.EffectCard-backto-it.polimi.ingsw.server.model.cards.EffectName" style="stroke:#181818;stroke-width:1.0;"/><polygon fill="none" points="135,437.3188,131,443.3188,135,449.3188,139,443.3188,135,437.3188" style="stroke:#181818;stroke-width:1.0;"/><text fill="#000000" font-family="sans-serif" font-size="13" lengthAdjust="spacing" textLength="12" x="136" y="481.7139">ID</text></g><rect height="50.3125" style="stroke:#00000000;stroke-width:1.0;fill:none;" width="394" x="173" y="697.2188"/><text fill="#888888" font-family="sans-serif" font-size="10" lengthAdjust="spacing" textLength="3" x="368.5" y="707.5996"> </text><text fill="#888888" font-family="sans-serif" font-size="10" lengthAdjust="spacing" textLength="3" x="368.5" y="720.1777"> </text><text fill="#888888" font-family="sans-serif" font-size="10" lengthAdjust="spacing" textLength="392" x="174" y="732.7559">PlantUML diagram generated by SketchIt! (https://bitbucket.org/pmesmeur/sketch.it)</text><text fill="#888888" font-family="sans-serif" font-size="10" lengthAdjust="spacing" textLength="394" x="173" y="745.334">For more information about this tool, please contact philippe.mesmeur@gmail.com</text><!--MD5=[da904c6f289d5488ca1cb77fa3d69a8d]
@startuml

title __CARDS's Class Diagram__\n

  namespace it.polimi.ingsw.server {
    namespace model.cards {
      class it.polimi.ingsw.server.model.cards.EffectCard {
          + prohibitionCard : int
          - description : String
          - price : int
          - students : ColoredDisc[]
          - used : boolean
          + EffectCard()
          + addStudent()
          + getID()
          + getPrice()
          + getProhibitionCard()
          + getStudents()
          + isUsed()
          + removeStudent()
          + useCard()
      }
    }
  }
  

  namespace it.polimi.ingsw.server {
    namespace model.cards {
      enum EffectName {
        BANDIT
        CAVALIER
        CENTAUR
        COOK
        JOLLY
        LADY
        LORD
        MAGICIAN
        MONK
        MUSICIAN
        QUEEN
        VILLAIN
      }
    }
  }
  

  namespace it.polimi.ingsw.server {
    namespace model.cards {
      class it.polimi.ingsw.server.model.cards.HelperCard {
          - cardNumber : int
          - maxMoves : int
          - used : boolean
          + HelperCard()
          + getCardNumber()
          + getMaxMoves()
          + isUsed()
          + setUsed()
      }
    }
  }
  

  namespace it.polimi.ingsw.server {
    namespace model.cards {
      enum Wizard {
        SPECIAL
        WIZARD1
        WIZARD2
        WIZARD3
        WIZARD4
      }
    }
  }
  

  it.polimi.ingsw.server.model.cards.EffectCard o- - it.polimi.ingsw.server.model.cards.EffectName : ID


right footer


PlantUML diagram generated by SketchIt! (https://bitbucket.org/pmesmeur/sketch.it)
For more information about this tool, please contact philippe.mesmeur@gmail.com
endfooter

@enduml

PlantUML version 1.2022.5(Sat Apr 30 12:55:52 CEST 2022)
(GPL source distribution)
Java Runtime: OpenJDK Runtime Environment
JVM: OpenJDK 64-Bit Server VM
Default Encoding: Cp1252
Language: en
Country: US
--></g></svg>