<?xml version="1.0" encoding="UTF-8" standalone="no"?><svg xmlns="http://www.w3.org/2000/svg" xmlns:xlink="http://www.w3.org/1999/xlink" contentStyleType="text/css" height="1423px" preserveAspectRatio="none" style="width:734px;height:1423px;background:#FFFFFF;" version="1.1" viewBox="0 0 734 1423" width="734px" zoomAndPan="magnify"><defs/><g><rect height="45.2188" style="stroke:#00000000;stroke-width:1.0;fill:none;" width="229" x="245.5" y="5"/><text fill="#000000" font-family="sans-serif" font-size="14" font-weight="bold" lengthAdjust="spacing" text-decoration="underline" textLength="219" x="250.5" y="24.5332">GAMECLASSES's Class Diagram</text><text fill="#000000" font-family="sans-serif" font-size="14" font-weight="bold" lengthAdjust="spacing" textLength="4" x="358" y="42.1426"> </text><!--MD5=[6ff9cca172c9c23be7720fa07ee26538]
cluster it.polimi.ingsw.server--><g id="cluster_it.polimi.ingsw.server"><path d="M8.5,62.2188 L160.5,62.2188 A3.75,3.75 0 0 1 163,64.7188 L170,85.8281 L395.5,85.8281 A2.5,2.5 0 0 1 398,88.3281 L398,1356.7188 A2.5,2.5 0 0 1 395.5,1359.2188 L8.5,1359.2188 A2.5,2.5 0 0 1 6,1356.7188 L6,64.7188 A2.5,2.5 0 0 1 8.5,62.2188 " style="stroke:#000000;stroke-width:1.5;fill:none;"/><line style="stroke:#000000;stroke-width:1.5;fill:none;" x1="6" x2="170" y1="85.8281" y2="85.8281"/><text fill="#000000" font-family="sans-serif" font-size="14" font-weight="bold" lengthAdjust="spacing" textLength="151" x="10" y="78.752">it.polimi.ingsw.server</text></g><!--MD5=[92850a9bde823d1c51807e2c1a5f7555]
cluster model.gameClasses--><g id="cluster_model.gameClasses"><path d="M32.5,106.2188 L173.5,106.2188 A3.75,3.75 0 0 1 176,108.7188 L183,129.8281 L371.5,129.8281 A2.5,2.5 0 0 1 374,132.3281 L374,1332.7188 A2.5,2.5 0 0 1 371.5,1335.2188 L32.5,1335.2188 A2.5,2.5 0 0 1 30,1332.7188 L30,108.7188 A2.5,2.5 0 0 1 32.5,106.2188 " style="stroke:#000000;stroke-width:1.5;fill:none;"/><line style="stroke:#000000;stroke-width:1.5;fill:none;" x1="30" x2="183" y1="129.8281" y2="129.8281"/><text fill="#000000" font-family="sans-serif" font-size="14" font-weight="bold" lengthAdjust="spacing" textLength="140" x="34" y="122.752">model.gameClasses</text></g><!--MD5=[4d2fb3d139da4401463b31b4f7dee0ef]
cluster it.polimi.ingsw.server.model.components--><g id="cluster_it.polimi.ingsw.server.model.components"><path d="M424.5,997.7188 L714.5,997.7188 A3.75,3.75 0 0 1 717,1000.2188 L724,1021.3281 L724.5,1021.3281 A2.5,2.5 0 0 1 727,1023.8281 L727,1095.2188 A2.5,2.5 0 0 1 724.5,1097.7188 L424.5,1097.7188 A2.5,2.5 0 0 1 422,1095.2188 L422,1000.2188 A2.5,2.5 0 0 1 424.5,997.7188 " style="stroke:#000000;stroke-width:1.5;fill:none;"/><line style="stroke:#000000;stroke-width:1.5;fill:none;" x1="422" x2="724" y1="1021.3281" y2="1021.3281"/><text fill="#000000" font-family="sans-serif" font-size="14" font-weight="bold" lengthAdjust="spacing" textLength="289" x="426" y="1014.252">it.polimi.ingsw.server.model.components</text></g><!--MD5=[385ab338233e696960f3a7d24cc61f25]
class it.polimi.ingsw.server.model.gameClasses.GameClass--><g id="elem_it.polimi.ingsw.server.model.gameClasses.GameClass"><rect codeLine="6" fill="#F1F1F1" height="576.2813" id="it.polimi.ingsw.server.model.gameClasses.GameClass" rx="2.5" ry="2.5" style="stroke:#181818;stroke-width:0.5;" width="261" x="96.5" y="142.2188"/><ellipse cx="186.25" cy="158.2188" fill="#ADD1B2" rx="11" ry="11" style="stroke:#181818;stroke-width:1.0;"/><path d="M188.25,154.7188 Q188.4531,154.2188 188.6875,153.9688 Q188.9219,153.7188 189.1875,153.7188 Q189.6563,153.7188 189.9531,154 Q190.25,154.2813 190.25,154.9375 L190.25,156.5 Q190.25,157.1563 189.9688,157.4375 Q189.6875,157.7188 189.25,157.7188 Q188.8594,157.7188 188.6094,157.5469 Q188.3594,157.375 188.25,156.9219 Q188.2031,156.6094 188.0313,156.4375 Q187.7188,156.1094 187.1563,155.9219 Q186.5938,155.7188 186.0313,155.7188 Q185.3281,155.7188 184.7344,156 Q184.1563,156.2813 183.7031,156.9063 Q183.25,157.5313 183.25,158.3906 L183.25,159.3125 Q183.25,160.3438 184.0938,161.0313 Q184.9375,161.7188 186.4375,161.7188 Q187.3281,161.7188 187.9531,161.5156 Q188.3125,161.4063 188.7188,161.0469 Q188.9844,160.8438 189.125,160.7813 Q189.2656,160.7188 189.4375,160.7188 Q189.7656,160.7188 190,160.9844 Q190.25,161.2344 190.25,161.5938 Q190.25,161.9375 189.9063,162.3438 Q189.4063,162.9375 188.6094,163.2656 Q187.5625,163.7188 186.2813,163.7188 Q184.7813,163.7188 183.5781,163.125 Q182.6094,162.6563 181.9219,161.6406 Q181.25,160.625 181.25,159.4219 L181.25,158.3281 Q181.25,157.0781 181.8438,155.9844 Q182.4531,154.8906 183.5,154.3125 Q184.5625,153.7188 185.75,153.7188 Q186.4688,153.7188 187.0938,153.9688 Q187.7188,154.2188 188.25,154.7188 Z " fill="#000000"/><text fill="#000000" font-family="sans-serif" font-size="14" lengthAdjust="spacing" textLength="73" x="206.75" y="163.9473">GameClass</text><line style="stroke:#181818;stroke-width:0.5;" x1="97.5" x2="356.5" y1="174.2188" y2="174.2188"/><polygon fill="none" points="107.5,180.2188,111.5,184.2188,107.5,188.2188,103.5,184.2188" style="stroke:#B38D22;stroke-width:1.0;"/><text fill="#000000" font-family="sans-serif" font-size="14" lengthAdjust="spacing" textLength="100" x="116.5" y="192.752">GameID : String</text><polygon fill="none" points="107.5,197.8281,111.5,201.8281,107.5,205.8281,103.5,201.8281" style="stroke:#B38D22;stroke-width:1.0;"/><text fill="#000000" font-family="sans-serif" font-size="14" lengthAdjust="spacing" textLength="114" x="116.5" y="210.3613">NumOfIslands : int</text><polygon fill="none" points="107.5,215.4375,111.5,219.4375,107.5,223.4375,103.5,219.4375" style="stroke:#B38D22;stroke-width:1.0;"/><text fill="#000000" font-family="sans-serif" font-size="14" lengthAdjust="spacing" textLength="116" x="116.5" y="227.9707">PlayerNumber : int</text><polygon fill="none" points="107.5,233.0469,111.5,237.0469,107.5,241.0469,103.5,237.0469" style="stroke:#B38D22;stroke-width:1.0;"/><text fill="#000000" font-family="sans-serif" font-size="14" lengthAdjust="spacing" textLength="235" x="116.5" y="245.5801">StudentBag : ArrayList&lt;ColoredDisc&gt;</text><polygon fill="none" points="107.5,250.6563,111.5,254.6563,107.5,258.6563,103.5,254.6563" style="stroke:#B38D22;stroke-width:1.0;"/><text fill="#000000" font-family="sans-serif" font-size="14" lengthAdjust="spacing" textLength="162" x="116.5" y="263.1895">clouds : ArrayList&lt;Cloud&gt;</text><polygon fill="none" points="107.5,268.2656,111.5,272.2656,107.5,276.2656,103.5,272.2656" style="stroke:#B38D22;stroke-width:1.0;"/><text fill="#000000" font-family="sans-serif" font-size="14" lengthAdjust="spacing" textLength="165" x="116.5" y="280.7988">islands : ArrayList&lt;Island&gt;</text><polygon fill="none" points="107.5,285.875,111.5,289.875,107.5,293.875,103.5,289.875" style="stroke:#B38D22;stroke-width:1.0;"/><text fill="#000000" font-family="sans-serif" font-size="14" lengthAdjust="spacing" textLength="188" x="116.5" y="298.4082">nicknames : ArrayList&lt;String&gt;</text><polygon fill="none" points="107.5,303.4844,111.5,307.4844,107.5,311.4844,103.5,307.4844" style="stroke:#B38D22;stroke-width:1.0;"/><text fill="#000000" font-family="sans-serif" font-size="14" lengthAdjust="spacing" textLength="141" x="116.5" y="316.0176">playerCardValue : int[]</text><polygon fill="none" points="107.5,321.0938,111.5,325.0938,107.5,329.0938,103.5,325.0938" style="stroke:#B38D22;stroke-width:1.0;"/><text fill="#000000" font-family="sans-serif" font-size="14" lengthAdjust="spacing" textLength="140" x="116.5" y="333.627">playerMaxMoves : int[]</text><polygon fill="none" points="107.5,338.7031,111.5,342.7031,107.5,346.7031,103.5,342.7031" style="stroke:#B38D22;stroke-width:1.0;"/><text fill="#000000" font-family="sans-serif" font-size="14" lengthAdjust="spacing" textLength="170" x="116.5" y="351.2363">players : ArrayList&lt;Player&gt;</text><line style="stroke:#181818;stroke-width:0.5;" x1="97.5" x2="356.5" y1="358.3125" y2="358.3125"/><ellipse cx="107.5" cy="369.3125" fill="#84BE84" rx="3" ry="3" style="stroke:#038048;stroke-width:1.0;"/><text fill="#000000" font-family="sans-serif" font-size="14" lengthAdjust="spacing" textLength="89" x="116.5" y="376.8457">BagToCloud()</text><ellipse cx="107.5" cy="386.9219" fill="#84BE84" rx="3" ry="3" style="stroke:#038048;stroke-width:1.0;"/><text fill="#000000" font-family="sans-serif" font-size="14" lengthAdjust="spacing" textLength="121" x="116.5" y="394.4551">CloudToEntrance()</text><ellipse cx="107.5" cy="404.5313" fill="#84BE84" rx="3" ry="3" style="stroke:#038048;stroke-width:1.0;"/><text fill="#000000" font-family="sans-serif" font-size="14" lengthAdjust="spacing" textLength="121" x="116.5" y="412.0645">EntranceToIsland()</text><ellipse cx="107.5" cy="422.1406" fill="#84BE84" rx="3" ry="3" style="stroke:#038048;stroke-width:1.0;"/><text fill="#000000" font-family="sans-serif" font-size="14" lengthAdjust="spacing" textLength="127" x="116.5" y="429.6738">EntranceToTables()</text><ellipse cx="107.5" cy="439.75" fill="#84BE84" rx="3" ry="3" style="stroke:#038048;stroke-width:1.0;"/><text fill="#000000" font-family="sans-serif" font-size="14" lengthAdjust="spacing" textLength="122" x="116.5" y="447.2832">EvaluateInfluence()</text><ellipse cx="107.5" cy="457.3594" fill="#84BE84" rx="3" ry="3" style="stroke:#038048;stroke-width:1.0;"/><text fill="#000000" font-family="sans-serif" font-size="14" lengthAdjust="spacing" textLength="83" x="116.5" y="464.8926">GameClass()</text><ellipse cx="107.5" cy="474.9688" fill="#84BE84" rx="3" ry="3" style="stroke:#038048;stroke-width:1.0;"/><text fill="#000000" font-family="sans-serif" font-size="14" lengthAdjust="spacing" textLength="130" x="116.5" y="482.502">MoveMotherNature()</text><ellipse cx="107.5" cy="492.5781" fill="#84BE84" rx="3" ry="3" style="stroke:#038048;stroke-width:1.0;"/><text fill="#000000" font-family="sans-serif" font-size="14" lengthAdjust="spacing" textLength="108" x="116.5" y="500.1113">bagToEntrance()</text><ellipse cx="107.5" cy="510.1875" fill="#84BE84" rx="3" ry="3" style="stroke:#038048;stroke-width:1.0;"/><text fill="#000000" font-family="sans-serif" font-size="14" lengthAdjust="spacing" textLength="74" x="116.5" y="517.7207">getClouds()</text><ellipse cx="107.5" cy="527.7969" fill="#84BE84" rx="3" ry="3" style="stroke:#038048;stroke-width:1.0;"/><text fill="#000000" font-family="sans-serif" font-size="14" lengthAdjust="spacing" textLength="77" x="116.5" y="535.3301">getPlayers()</text><ellipse cx="107.5" cy="545.4063" fill="#84BE84" rx="3" ry="3" style="stroke:#038048;stroke-width:1.0;"/><text fill="#000000" font-family="sans-serif" font-size="14" lengthAdjust="spacing" textLength="133" x="116.5" y="552.9395">islandsGameEnded()</text><ellipse cx="107.5" cy="563.0156" fill="#84BE84" rx="3" ry="3" style="stroke:#038048;stroke-width:1.0;"/><text fill="#000000" font-family="sans-serif" font-size="14" lengthAdjust="spacing" textLength="181" x="116.5" y="570.5488">lessTowersMoreProfessors()</text><ellipse cx="107.5" cy="580.625" fill="#84BE84" rx="3" ry="3" style="stroke:#038048;stroke-width:1.0;"/><text fill="#000000" font-family="sans-serif" font-size="14" lengthAdjust="spacing" textLength="115" x="116.5" y="588.1582">playerMaxMoves()</text><ellipse cx="107.5" cy="598.2344" fill="#84BE84" rx="3" ry="3" style="stroke:#038048;stroke-width:1.0;"/><text fill="#000000" font-family="sans-serif" font-size="14" lengthAdjust="spacing" textLength="126" x="116.5" y="605.7676">roundGameEnded()</text><ellipse cx="107.5" cy="615.8438" fill="#84BE84" rx="3" ry="3" style="stroke:#038048;stroke-width:1.0;"/><text fill="#000000" font-family="sans-serif" font-size="14" lengthAdjust="spacing" textLength="73" x="116.5" y="623.377">setClouds()</text><ellipse cx="107.5" cy="633.4531" fill="#84BE84" rx="3" ry="3" style="stroke:#038048;stroke-width:1.0;"/><text fill="#000000" font-family="sans-serif" font-size="14" lengthAdjust="spacing" textLength="76" x="116.5" y="640.9863">setPlayers()</text><ellipse cx="107.5" cy="651.0625" fill="#84BE84" rx="3" ry="3" style="stroke:#038048;stroke-width:1.0;"/><text fill="#000000" font-family="sans-serif" font-size="14" lengthAdjust="spacing" textLength="123" x="116.5" y="658.5957">towerGameEnded()</text><ellipse cx="107.5" cy="668.6719" fill="#84BE84" rx="3" ry="3" style="stroke:#038048;stroke-width:1.0;"/><text fill="#000000" font-family="sans-serif" font-size="14" lengthAdjust="spacing" textLength="105" x="116.5" y="676.2051">useHelperCard()</text><polygon fill="#FFFF44" points="107.5,681.2813,111.5,685.2813,107.5,689.2813,103.5,685.2813" style="stroke:#B38D22;stroke-width:1.0;"/><text fill="#000000" font-family="sans-serif" font-size="14" lengthAdjust="spacing" textLength="132" x="116.5" y="693.8145">evaluateProfessors()</text><polygon fill="#FFFF44" points="107.5,698.8906,111.5,702.8906,107.5,706.8906,103.5,702.8906" style="stroke:#B38D22;stroke-width:1.0;"/><text fill="#000000" font-family="sans-serif" font-size="14" lengthAdjust="spacing" textLength="94" x="116.5" y="711.4238">getIslandById()</text></g><!--MD5=[7e058ea6d6f8291600129098899be434]
class it.polimi.ingsw.server.model.gameClasses.GameClassExpert--><g id="elem_it.polimi.ingsw.server.model.gameClasses.GameClassExpert"><rect codeLine="44" fill="#F1F1F1" height="523.4531" id="it.polimi.ingsw.server.model.gameClasses.GameClassExpert" rx="2.5" ry="2.5" style="stroke:#181818;stroke-width:0.5;" width="312" x="46" y="796.2188"/><ellipse cx="141.25" cy="812.2188" fill="#ADD1B2" rx="11" ry="11" style="stroke:#181818;stroke-width:1.0;"/><path d="M143.25,808.7188 Q143.4531,808.2188 143.6875,807.9688 Q143.9219,807.7188 144.1875,807.7188 Q144.6563,807.7188 144.9531,808 Q145.25,808.2813 145.25,808.9375 L145.25,810.5 Q145.25,811.1563 144.9688,811.4375 Q144.6875,811.7188 144.25,811.7188 Q143.8594,811.7188 143.6094,811.5469 Q143.3594,811.375 143.25,810.9219 Q143.2031,810.6094 143.0313,810.4375 Q142.7188,810.1094 142.1563,809.9219 Q141.5938,809.7188 141.0313,809.7188 Q140.3281,809.7188 139.7344,810 Q139.1563,810.2813 138.7031,810.9063 Q138.25,811.5313 138.25,812.3906 L138.25,813.3125 Q138.25,814.3438 139.0938,815.0313 Q139.9375,815.7188 141.4375,815.7188 Q142.3281,815.7188 142.9531,815.5156 Q143.3125,815.4063 143.7188,815.0469 Q143.9844,814.8438 144.125,814.7813 Q144.2656,814.7188 144.4375,814.7188 Q144.7656,814.7188 145,814.9844 Q145.25,815.2344 145.25,815.5938 Q145.25,815.9375 144.9063,816.3438 Q144.4063,816.9375 143.6094,817.2656 Q142.5625,817.7188 141.2813,817.7188 Q139.7813,817.7188 138.5781,817.125 Q137.6094,816.6563 136.9219,815.6406 Q136.25,814.625 136.25,813.4219 L136.25,812.3281 Q136.25,811.0781 136.8438,809.9844 Q137.4531,808.8906 138.5,808.3125 Q139.5625,807.7188 140.75,807.7188 Q141.4688,807.7188 142.0938,807.9688 Q142.7188,808.2188 143.25,808.7188 Z " fill="#000000"/><text fill="#000000" font-family="sans-serif" font-size="14" lengthAdjust="spacing" textLength="113" x="161.75" y="817.9473">GameClassExpert</text><line style="stroke:#181818;stroke-width:0.5;" x1="47" x2="357" y1="828.2188" y2="828.2188"/><polygon fill="none" points="57,834.2188,61,838.2188,57,842.2188,53,838.2188" style="stroke:#B38D22;stroke-width:1.0;"/><text fill="#000000" font-family="sans-serif" font-size="14" lengthAdjust="spacing" textLength="238" x="66" y="846.752">ChosenCards : ArrayList&lt;EffectCard&gt;</text><rect fill="none" height="6" style="stroke:#C82930;stroke-width:1.0;" width="6" x="54" y="853.8281"/><text fill="#000000" font-family="sans-serif" font-size="14" lengthAdjust="spacing" textLength="147" x="66" y="864.3613">centaurEffect : boolean</text><rect fill="none" height="6" style="stroke:#C82930;stroke-width:1.0;" width="6" x="54" y="871.4375"/><text fill="#000000" font-family="sans-serif" font-size="14" lengthAdjust="spacing" textLength="232" x="66" y="881.9707">cookColors : ArrayList&lt;ColoredDisc&gt;</text><rect fill="none" height="6" style="stroke:#C82930;stroke-width:1.0;" width="6" x="54" y="889.0469"/><text fill="#000000" font-family="sans-serif" font-size="14" lengthAdjust="spacing" textLength="263" x="66" y="899.5801">extraInfluencePlayers : ArrayList&lt;Integer&gt;</text><rect fill="none" height="6" style="stroke:#C82930;stroke-width:1.0;" width="6" x="54" y="906.6563"/><text fill="#000000" font-family="sans-serif" font-size="14" lengthAdjust="spacing" textLength="286" x="66" y="917.1895">extraMotherNatureMoves : ArrayList&lt;Integer&gt;</text><rect fill="none" height="6" style="stroke:#C82930;stroke-width:1.0;" width="6" x="54" y="924.2656"/><text fill="#000000" font-family="sans-serif" font-size="14" lengthAdjust="spacing" textLength="131" x="66" y="934.7988">prohibitionCards : int</text><rect fill="none" height="6" style="stroke:#C82930;stroke-width:1.0;" width="6" x="54" y="941.875"/><text fill="#000000" font-family="sans-serif" font-size="14" lengthAdjust="spacing" textLength="240" x="66" y="952.4082">villainContribution : ArrayList&lt;Integer&gt;</text><line style="stroke:#181818;stroke-width:0.5;" x1="47" x2="357" y1="959.4844" y2="959.4844"/><ellipse cx="57" cy="970.4844" fill="#84BE84" rx="3" ry="3" style="stroke:#038048;stroke-width:1.0;"/><text fill="#000000" font-family="sans-serif" font-size="14" lengthAdjust="spacing" textLength="127" x="66" y="978.0176">EntranceToTables()</text><ellipse cx="57" cy="988.0938" fill="#84BE84" rx="3" ry="3" style="stroke:#038048;stroke-width:1.0;"/><text fill="#000000" font-family="sans-serif" font-size="14" lengthAdjust="spacing" textLength="122" x="66" y="995.627">EvaluateInfluence()</text><ellipse cx="57" cy="1005.7031" fill="#84BE84" rx="3" ry="3" style="stroke:#038048;stroke-width:1.0;"/><text fill="#000000" font-family="sans-serif" font-size="14" lengthAdjust="spacing" textLength="123" x="66" y="1013.2363">GameClassExpert()</text><ellipse cx="57" cy="1023.3125" fill="#84BE84" rx="3" ry="3" style="stroke:#038048;stroke-width:1.0;"/><text fill="#000000" font-family="sans-serif" font-size="14" lengthAdjust="spacing" textLength="130" x="66" y="1030.8457">MoveMotherNature()</text><ellipse cx="57" cy="1040.9219" fill="#84BE84" rx="3" ry="3" style="stroke:#038048;stroke-width:1.0;"/><text fill="#000000" font-family="sans-serif" font-size="14" lengthAdjust="spacing" textLength="85" x="66" y="1048.4551">banditEffect()</text><ellipse cx="57" cy="1058.5313" fill="#84BE84" rx="3" ry="3" style="stroke:#038048;stroke-width:1.0;"/><text fill="#000000" font-family="sans-serif" font-size="14" lengthAdjust="spacing" textLength="76" x="66" y="1066.0645">cookEffect()</text><ellipse cx="57" cy="1076.1406" fill="#84BE84" rx="3" ry="3" style="stroke:#038048;stroke-width:1.0;"/><text fill="#000000" font-family="sans-serif" font-size="14" lengthAdjust="spacing" textLength="101" x="66" y="1083.6738">endCardEffect()</text><ellipse cx="57" cy="1093.75" fill="#84BE84" rx="3" ry="3" style="stroke:#038048;stroke-width:1.0;"/><text fill="#000000" font-family="sans-serif" font-size="14" lengthAdjust="spacing" textLength="104" x="66" y="1101.2832">getEffectCards()</text><ellipse cx="57" cy="1111.3594" fill="#84BE84" rx="3" ry="3" style="stroke:#038048;stroke-width:1.0;"/><text fill="#000000" font-family="sans-serif" font-size="14" lengthAdjust="spacing" textLength="94" x="66" y="1118.8926">jollyEffectCall()</text><ellipse cx="57" cy="1128.9688" fill="#84BE84" rx="3" ry="3" style="stroke:#038048;stroke-width:1.0;"/><text fill="#000000" font-family="sans-serif" font-size="14" lengthAdjust="spacing" textLength="72" x="66" y="1136.502">ladyEffect()</text><ellipse cx="57" cy="1146.5781" fill="#84BE84" rx="3" ry="3" style="stroke:#038048;stroke-width:1.0;"/><text fill="#000000" font-family="sans-serif" font-size="14" lengthAdjust="spacing" textLength="70" x="66" y="1154.1113">lordEffect()</text><ellipse cx="57" cy="1164.1875" fill="#84BE84" rx="3" ry="3" style="stroke:#038048;stroke-width:1.0;"/><text fill="#000000" font-family="sans-serif" font-size="14" lengthAdjust="spacing" textLength="80" x="66" y="1171.7207">monkEffect()</text><ellipse cx="57" cy="1181.7969" fill="#84BE84" rx="3" ry="3" style="stroke:#038048;stroke-width:1.0;"/><text fill="#000000" font-family="sans-serif" font-size="14" lengthAdjust="spacing" textLength="101" x="66" y="1189.3301">musicianEffect()</text><ellipse cx="57" cy="1199.4063" fill="#84BE84" rx="3" ry="3" style="stroke:#038048;stroke-width:1.0;"/><text fill="#000000" font-family="sans-serif" font-size="14" lengthAdjust="spacing" textLength="115" x="66" y="1206.9395">playerMaxMoves()</text><ellipse cx="57" cy="1217.0156" fill="#84BE84" rx="3" ry="3" style="stroke:#038048;stroke-width:1.0;"/><text fill="#000000" font-family="sans-serif" font-size="14" lengthAdjust="spacing" textLength="86" x="66" y="1224.5488">queenEffect()</text><ellipse cx="57" cy="1234.625" fill="#84BE84" rx="3" ry="3" style="stroke:#038048;stroke-width:1.0;"/><text fill="#000000" font-family="sans-serif" font-size="14" lengthAdjust="spacing" textLength="100" x="66" y="1242.1582">useCardEffect()</text><polygon fill="#FFFF44" points="57,1247.2344,61,1251.2344,57,1255.2344,53,1251.2344" style="stroke:#B38D22;stroke-width:1.0;"/><text fill="#000000" font-family="sans-serif" font-size="14" lengthAdjust="spacing" textLength="132" x="66" y="1259.7676">evaluateProfessors()</text><rect fill="#F24D5C" height="6" style="stroke:#C82930;stroke-width:1.0;" width="6" x="54" y="1266.8438"/><text fill="#000000" font-family="sans-serif" font-size="14" lengthAdjust="spacing" textLength="130" x="66" y="1277.377">MoveMotherNature()</text><rect fill="#F24D5C" height="6" style="stroke:#C82930;stroke-width:1.0;" width="6" x="54" y="1284.4531"/><text fill="#000000" font-family="sans-serif" font-size="14" lengthAdjust="spacing" textLength="113" x="66" y="1294.9863">getCardByName()</text><rect fill="#F24D5C" height="6" style="stroke:#C82930;stroke-width:1.0;" width="6" x="54" y="1302.0625"/><text fill="#000000" font-family="sans-serif" font-size="14" lengthAdjust="spacing" textLength="89" x="66" y="1312.5957">handleCoins()</text></g><!--MD5=[8e77c677d481ae5bca17b64b2af6c55e]
class it.polimi.ingsw.server.model.components.Island--><g id="elem_it.polimi.ingsw.server.model.components.Island"><rect fill="#F1F1F1" height="48" id="it.polimi.ingsw.server.model.components.Island" rx="2.5" ry="2.5" style="stroke:#181818;stroke-width:0.5;" width="69" x="438.5" y="1033.7188"/><ellipse cx="453.5" cy="1049.7188" fill="#ADD1B2" rx="11" ry="11" style="stroke:#181818;stroke-width:1.0;"/><path d="M455.5,1046.2188 Q455.7031,1045.7188 455.9375,1045.4688 Q456.1719,1045.2188 456.4375,1045.2188 Q456.9063,1045.2188 457.2031,1045.5 Q457.5,1045.7813 457.5,1046.4375 L457.5,1048 Q457.5,1048.6563 457.2188,1048.9375 Q456.9375,1049.2188 456.5,1049.2188 Q456.1094,1049.2188 455.8594,1049.0469 Q455.6094,1048.875 455.5,1048.4219 Q455.4531,1048.1094 455.2813,1047.9375 Q454.9688,1047.6094 454.4063,1047.4219 Q453.8438,1047.2188 453.2813,1047.2188 Q452.5781,1047.2188 451.9844,1047.5 Q451.4063,1047.7813 450.9531,1048.4063 Q450.5,1049.0313 450.5,1049.8906 L450.5,1050.8125 Q450.5,1051.8438 451.3438,1052.5313 Q452.1875,1053.2188 453.6875,1053.2188 Q454.5781,1053.2188 455.2031,1053.0156 Q455.5625,1052.9063 455.9688,1052.5469 Q456.2344,1052.3438 456.375,1052.2813 Q456.5156,1052.2188 456.6875,1052.2188 Q457.0156,1052.2188 457.25,1052.4844 Q457.5,1052.7344 457.5,1053.0938 Q457.5,1053.4375 457.1563,1053.8438 Q456.6563,1054.4375 455.8594,1054.7656 Q454.8125,1055.2188 453.5313,1055.2188 Q452.0313,1055.2188 450.8281,1054.625 Q449.8594,1054.1563 449.1719,1053.1406 Q448.5,1052.125 448.5,1050.9219 L448.5,1049.8281 Q448.5,1048.5781 449.0938,1047.4844 Q449.7031,1046.3906 450.75,1045.8125 Q451.8125,1045.2188 453,1045.2188 Q453.7188,1045.2188 454.3438,1045.4688 Q454.9688,1045.7188 455.5,1046.2188 Z " fill="#000000"/><text fill="#000000" font-family="sans-serif" font-size="14" lengthAdjust="spacing" textLength="37" x="467.5" y="1055.4473">Island</text><line style="stroke:#181818;stroke-width:0.5;" x1="439.5" x2="506.5" y1="1065.7188" y2="1065.7188"/><line style="stroke:#181818;stroke-width:0.5;" x1="439.5" x2="506.5" y1="1073.7188" y2="1073.7188"/></g><!--MD5=[5fe02b723c6bc3a4f085827333ee9ee0]
class it.polimi.ingsw.server.model.components.StudentBag--><g id="elem_it.polimi.ingsw.server.model.components.StudentBag"><rect fill="#F1F1F1" height="48" id="it.polimi.ingsw.server.model.components.StudentBag" rx="2.5" ry="2.5" style="stroke:#181818;stroke-width:0.5;" width="106" x="543" y="1033.7188"/><ellipse cx="558" cy="1049.7188" fill="#ADD1B2" rx="11" ry="11" style="stroke:#181818;stroke-width:1.0;"/><path d="M560,1046.2188 Q560.2031,1045.7188 560.4375,1045.4688 Q560.6719,1045.2188 560.9375,1045.2188 Q561.4063,1045.2188 561.7031,1045.5 Q562,1045.7813 562,1046.4375 L562,1048 Q562,1048.6563 561.7188,1048.9375 Q561.4375,1049.2188 561,1049.2188 Q560.6094,1049.2188 560.3594,1049.0469 Q560.1094,1048.875 560,1048.4219 Q559.9531,1048.1094 559.7813,1047.9375 Q559.4688,1047.6094 558.9063,1047.4219 Q558.3438,1047.2188 557.7813,1047.2188 Q557.0781,1047.2188 556.4844,1047.5 Q555.9063,1047.7813 555.4531,1048.4063 Q555,1049.0313 555,1049.8906 L555,1050.8125 Q555,1051.8438 555.8438,1052.5313 Q556.6875,1053.2188 558.1875,1053.2188 Q559.0781,1053.2188 559.7031,1053.0156 Q560.0625,1052.9063 560.4688,1052.5469 Q560.7344,1052.3438 560.875,1052.2813 Q561.0156,1052.2188 561.1875,1052.2188 Q561.5156,1052.2188 561.75,1052.4844 Q562,1052.7344 562,1053.0938 Q562,1053.4375 561.6563,1053.8438 Q561.1563,1054.4375 560.3594,1054.7656 Q559.3125,1055.2188 558.0313,1055.2188 Q556.5313,1055.2188 555.3281,1054.625 Q554.3594,1054.1563 553.6719,1053.1406 Q553,1052.125 553,1050.9219 L553,1049.8281 Q553,1048.5781 553.5938,1047.4844 Q554.2031,1046.3906 555.25,1045.8125 Q556.3125,1045.2188 557.5,1045.2188 Q558.2188,1045.2188 558.8438,1045.4688 Q559.4688,1045.7188 560,1046.2188 Z " fill="#000000"/><text fill="#000000" font-family="sans-serif" font-size="14" lengthAdjust="spacing" textLength="74" x="572" y="1055.4473">StudentBag</text><line style="stroke:#181818;stroke-width:0.5;" x1="544" x2="648" y1="1065.7188" y2="1065.7188"/><line style="stroke:#181818;stroke-width:0.5;" x1="544" x2="648" y1="1073.7188" y2="1073.7188"/></g><!--MD5=[e90e7728190a63fa4ca6d14a6b91c04b]
reverse link it.polimi.ingsw.server.model.gameClasses.GameClass to it.polimi.ingsw.server.model.components.Island--><g id="link_it.polimi.ingsw.server.model.gameClasses.GameClass_it.polimi.ingsw.server.model.components.Island"><path codeLine="77" d="M348.18,730.7288 C356.97,752.8688 365.65,774.8788 374,796.2188 C408.21,883.6288 447.42,988.1588 464.41,1033.6588 " fill="none" id="it.polimi.ingsw.server.model.gameClasses.GameClass-backto-it.polimi.ingsw.server.model.components.Island" style="stroke:#181818;stroke-width:1.0;"/><polygon fill="none" points="343.28,718.4188,341.78,725.4721,347.7139,729.5695,349.2139,722.5162,343.28,718.4188" style="stroke:#181818;stroke-width:1.0;"/><text fill="#000000" font-family="sans-serif" font-size="13" lengthAdjust="spacing" textLength="76" x="359" y="762.7139">CurrentIsland</text></g><!--MD5=[38139a4d1c719a7440312918833d5cc9]
reverse link it.polimi.ingsw.server.model.gameClasses.GameClass to it.polimi.ingsw.server.model.components.StudentBag--><g id="link_it.polimi.ingsw.server.model.gameClasses.GameClass_it.polimi.ingsw.server.model.components.StudentBag"><path codeLine="78" d="M366.51,573.2888 C422.62,637.0688 483.69,715.9588 525,796.2188 C566.94,877.6988 586.23,986.6488 593.01,1033.5988 " fill="none" id="it.polimi.ingsw.server.model.gameClasses.GameClass-backto-it.polimi.ingsw.server.model.components.StudentBag" style="stroke:#181818;stroke-width:1.0;"/><polygon fill="none" points="357.55,563.1888,358.5387,570.3317,365.5125,572.1664,364.5238,565.0234,357.55,563.1888" style="stroke:#181818;stroke-width:1.0;"/><text fill="#000000" font-family="sans-serif" font-size="13" lengthAdjust="spacing" textLength="21" x="507" y="762.7139">bag</text></g><!--MD5=[0d52ca3840350efc3e7ddccad3005891]
reverse link it.polimi.ingsw.server.model.gameClasses.GameClass to it.polimi.ingsw.server.model.gameClasses.GameClassExpert--><g id="link_it.polimi.ingsw.server.model.gameClasses.GameClass_it.polimi.ingsw.server.model.gameClasses.GameClassExpert"><path codeLine="79" d="M214.72,738.3688 C213.95,757.6088 213.18,776.8788 212.42,795.8888 " fill="none" id="it.polimi.ingsw.server.model.gameClasses.GameClass-backto-it.polimi.ingsw.server.model.gameClasses.GameClassExpert" style="stroke:#181818;stroke-width:1.0;"/><polygon fill="none" points="207.73,738.0388,215.52,718.3388,221.72,738.5988,207.73,738.0388" style="stroke:#181818;stroke-width:1.0;"/></g><rect height="50.3125" style="stroke:#00000000;stroke-width:1.0;fill:none;" width="394" x="326" y="1365.2188"/><text fill="#888888" font-family="sans-serif" font-size="10" lengthAdjust="spacing" textLength="3" x="521.5" y="1375.5996"> </text><text fill="#888888" font-family="sans-serif" font-size="10" lengthAdjust="spacing" textLength="3" x="521.5" y="1388.1777"> </text><text fill="#888888" font-family="sans-serif" font-size="10" lengthAdjust="spacing" textLength="392" x="327" y="1400.7559">PlantUML diagram generated by SketchIt! (https://bitbucket.org/pmesmeur/sketch.it)</text><text fill="#888888" font-family="sans-serif" font-size="10" lengthAdjust="spacing" textLength="394" x="326" y="1413.334">For more information about this tool, please contact philippe.mesmeur@gmail.com</text><!--MD5=[062086fc5528e57d3b000c9cac286858]
@startuml

title __GAMECLASSES's Class Diagram__\n

  namespace it.polimi.ingsw.server {
    namespace model.gameClasses {
      class it.polimi.ingsw.server.model.gameClasses.GameClass {
          # GameID : String
          # NumOfIslands : int
          # PlayerNumber : int
          # StudentBag : ArrayList<ColoredDisc>
          # clouds : ArrayList<Cloud>
          # islands : ArrayList<Island>
          # nicknames : ArrayList<String>
          # playerCardValue : int[]
          # playerMaxMoves : int[]
          # players : ArrayList<Player>
          + BagToCloud()
          + CloudToEntrance()
          + EntranceToIsland()
          + EntranceToTables()
          + EvaluateInfluence()
          + GameClass()
          + MoveMotherNature()
          + bagToEntrance()
          + getClouds()
          + getPlayers()
          + islandsGameEnded()
          + lessTowersMoreProfessors()
          + playerMaxMoves()
          + roundGameEnded()
          + setClouds()
          + setPlayers()
          + towerGameEnded()
          + useHelperCard()
          # evaluateProfessors()
          # getIslandById()
      }
    }
  }
  

  namespace it.polimi.ingsw.server {
    namespace model.gameClasses {
      class it.polimi.ingsw.server.model.gameClasses.GameClassExpert {
          # ChosenCards : ArrayList<EffectCard>
          - centaurEffect : boolean
          - cookColors : ArrayList<ColoredDisc>
          - extraInfluencePlayers : ArrayList<Integer>
          - extraMotherNatureMoves : ArrayList<Integer>
          - prohibitionCards : int
          - villainContribution : ArrayList<Integer>
          + EntranceToTables()
          + EvaluateInfluence()
          + GameClassExpert()
          + MoveMotherNature()
          + banditEffect()
          + cookEffect()
          + endCardEffect()
          + getEffectCards()
          + jollyEffectCall()
          + ladyEffect()
          + lordEffect()
          + monkEffect()
          + musicianEffect()
          + playerMaxMoves()
          + queenEffect()
          + useCardEffect()
          # evaluateProfessors()
          - MoveMotherNature()
          - getCardByName()
          - handleCoins()
      }
    }
  }
  

  it.polimi.ingsw.server.model.gameClasses.GameClass o- - it.polimi.ingsw.server.model.components.Island : CurrentIsland
  it.polimi.ingsw.server.model.gameClasses.GameClass o- - it.polimi.ingsw.server.model.components.StudentBag : bag
  it.polimi.ingsw.server.model.gameClasses.GameClassExpert -up-|> it.polimi.ingsw.server.model.gameClasses.GameClass


right footer


PlantUML diagram generated by SketchIt! (https://bitbucket.org/pmesmeur/sketch.it)
For more information about this tool, please contact philippe.mesmeur@gmail.com
endfooter

@enduml

PlantUML version 1.2022.5(Sat Apr 30 12:55:52 CEST 2022)
(GPL source distribution)
Java Runtime: OpenJDK Runtime Environment
JVM: OpenJDK 64-Bit Server VM
Default Encoding: Cp1252
Language: en
Country: US
--></g></svg>