<?xml version="1.0" encoding="UTF-8" standalone="no"?><svg xmlns="http://www.w3.org/2000/svg" xmlns:xlink="http://www.w3.org/1999/xlink" contentStyleType="text/css" height="1321px" preserveAspectRatio="none" style="width:577px;height:1321px;background:#FFFFFF;" version="1.1" viewBox="0 0 577 1321" width="577px" zoomAndPan="magnify"><defs/><g><rect height="45.2188" style="stroke:#00000000;stroke-width:1.0;fill:none;" width="219" x="172" y="5"/><text fill="#000000" font-family="sans-serif" font-size="14" font-weight="bold" lengthAdjust="spacing" text-decoration="underline" textLength="209" x="177" y="24.5332">CONTROLLER's Class Diagram</text><text fill="#000000" font-family="sans-serif" font-size="14" font-weight="bold" lengthAdjust="spacing" textLength="4" x="279.5" y="42.1426"> </text><!--MD5=[1254e979b773d7dd91b2a0f20daaeac0]
cluster it.polimi.ingsw.client--><g id="cluster_it.polimi.ingsw.client"><path d="M8.5,62.2188 L152.5,62.2188 A3.75,3.75 0 0 1 155,64.7188 L162,85.8281 L347.5,85.8281 A2.5,2.5 0 0 1 350,88.3281 L350,1254.7188 A2.5,2.5 0 0 1 347.5,1257.2188 L8.5,1257.2188 A2.5,2.5 0 0 1 6,1254.7188 L6,64.7188 A2.5,2.5 0 0 1 8.5,62.2188 " style="stroke:#000000;stroke-width:1.5;fill:none;"/><line style="stroke:#000000;stroke-width:1.5;fill:none;" x1="6" x2="162" y1="85.8281" y2="85.8281"/><text fill="#000000" font-family="sans-serif" font-size="14" font-weight="bold" lengthAdjust="spacing" textLength="143" x="10" y="78.752">it.polimi.ingsw.client</text></g><!--MD5=[d2682686a630b2a347d42fef716b7e86]
cluster it.polimi.ingsw.client.controller--><g id="cluster_it.polimi.ingsw.client.controller"><path d="M32.5,106.2188 L102.5,106.2188 A3.75,3.75 0 0 1 105,108.7188 L112,129.8281 L323.5,129.8281 A2.5,2.5 0 0 1 326,132.3281 L326,1230.7188 A2.5,2.5 0 0 1 323.5,1233.2188 L32.5,1233.2188 A2.5,2.5 0 0 1 30,1230.7188 L30,108.7188 A2.5,2.5 0 0 1 32.5,106.2188 " style="stroke:#000000;stroke-width:1.5;fill:none;"/><line style="stroke:#000000;stroke-width:1.5;fill:none;" x1="30" x2="112" y1="129.8281" y2="129.8281"/><text fill="#000000" font-family="sans-serif" font-size="14" font-weight="bold" lengthAdjust="spacing" textLength="69" x="34" y="122.752">controller</text></g><!--MD5=[0ebdcbcf3276cc12072e15e40929a817]
cluster it.polimi.ingsw.client.view--><g id="cluster_it.polimi.ingsw.client.view"><path d="M376.5,1062.7188 L557.5,1062.7188 A3.75,3.75 0 0 1 560,1065.2188 L567,1086.3281 L567.5,1086.3281 A2.5,2.5 0 0 1 570,1088.8281 L570,1160.2188 A2.5,2.5 0 0 1 567.5,1162.7188 L376.5,1162.7188 A2.5,2.5 0 0 1 374,1160.2188 L374,1065.2188 A2.5,2.5 0 0 1 376.5,1062.7188 " style="stroke:#000000;stroke-width:1.5;fill:none;"/><line style="stroke:#000000;stroke-width:1.5;fill:none;" x1="374" x2="567" y1="1086.3281" y2="1086.3281"/><text fill="#000000" font-family="sans-serif" font-size="14" font-weight="bold" lengthAdjust="spacing" textLength="180" x="378" y="1079.252">it.polimi.ingsw.client.view</text></g><!--MD5=[8848b1e65c58f6a704fcaa22f9a804af]
class it.polimi.ingsw.client.controller.ClientController--><g id="elem_it.polimi.ingsw.client.controller.ClientController"><rect codeLine="6" fill="#F1F1F1" height="593.8906" id="it.polimi.ingsw.client.controller.ClientController" rx="2.5" ry="2.5" style="stroke:#181818;stroke-width:0.5;" width="263" x="46.5" y="356.2188"/><ellipse cx="124.75" cy="372.2188" fill="#ADD1B2" rx="11" ry="11" style="stroke:#181818;stroke-width:1.0;"/><path d="M126.75,368.7188 Q126.9531,368.2188 127.1875,367.9688 Q127.4219,367.7188 127.6875,367.7188 Q128.1563,367.7188 128.4531,368 Q128.75,368.2813 128.75,368.9375 L128.75,370.5 Q128.75,371.1563 128.4688,371.4375 Q128.1875,371.7188 127.75,371.7188 Q127.3594,371.7188 127.1094,371.5469 Q126.8594,371.375 126.75,370.9219 Q126.7031,370.6094 126.5313,370.4375 Q126.2188,370.1094 125.6563,369.9219 Q125.0938,369.7188 124.5313,369.7188 Q123.8281,369.7188 123.2344,370 Q122.6563,370.2813 122.2031,370.9063 Q121.75,371.5313 121.75,372.3906 L121.75,373.3125 Q121.75,374.3438 122.5938,375.0313 Q123.4375,375.7188 124.9375,375.7188 Q125.8281,375.7188 126.4531,375.5156 Q126.8125,375.4063 127.2188,375.0469 Q127.4844,374.8438 127.625,374.7813 Q127.7656,374.7188 127.9375,374.7188 Q128.2656,374.7188 128.5,374.9844 Q128.75,375.2344 128.75,375.5938 Q128.75,375.9375 128.4063,376.3438 Q127.9063,376.9375 127.1094,377.2656 Q126.0625,377.7188 124.7813,377.7188 Q123.2813,377.7188 122.0781,377.125 Q121.1094,376.6563 120.4219,375.6406 Q119.75,374.625 119.75,373.4219 L119.75,372.3281 Q119.75,371.0781 120.3438,369.9844 Q120.9531,368.8906 122,368.3125 Q123.0625,367.7188 124.25,367.7188 Q124.9688,367.7188 125.5938,367.9688 Q126.2188,368.2188 126.75,368.7188 Z " fill="#000000"/><text fill="#000000" font-family="sans-serif" font-size="14" lengthAdjust="spacing" textLength="98" x="145.25" y="377.9473">ClientController</text><line style="stroke:#181818;stroke-width:0.5;" x1="47.5" x2="308.5" y1="388.2188" y2="388.2188"/><rect fill="none" height="6" style="stroke:#C82930;stroke-width:1.0;" width="6" x="54.5" y="396.2188"/><text fill="#000000" font-family="sans-serif" font-size="14" lengthAdjust="spacing" textLength="149" x="66.5" y="406.752">playerNickname : String</text><rect fill="none" height="6" style="stroke:#C82930;stroke-width:1.0;" width="6" x="54.5" y="413.8281"/><text fill="#000000" font-family="sans-serif" font-size="14" lengthAdjust="spacing" textLength="237" x="66.5" y="424.3613">serverBuffer : ArrayList&lt;List&lt;String&gt;&gt;</text><rect fill="none" height="6" style="stroke:#C82930;stroke-width:1.0;" width="6" x="54.5" y="431.4375"/><text fill="#000000" font-family="sans-serif" font-size="14" lengthAdjust="spacing" textLength="101" x="66.5" y="441.9707">serverIP : String</text><rect fill="none" height="6" style="stroke:#C82930;stroke-width:1.0;" width="6" x="54.5" y="449.0469"/><text fill="#000000" font-family="sans-serif" font-size="14" lengthAdjust="spacing" textLength="186" x="66.5" y="459.5801">viewBuffer : ArrayList&lt;String&gt;</text><rect fill="none" height="6" style="stroke:#C82930;stroke-width:1.0;" width="6" x="54.5" y="466.6563"/><text fill="#000000" font-family="sans-serif" font-size="14" lengthAdjust="spacing" textLength="137" x="66.5" y="477.1895">viewLocked : Boolean</text><rect fill="none" height="6" style="stroke:#C82930;stroke-width:1.0;" width="6" x="54.5" y="484.2656"/><text fill="#000000" font-family="sans-serif" font-size="14" lengthAdjust="spacing" textLength="111" x="66.5" y="494.7988">viewMode : String</text><line style="stroke:#181818;stroke-width:0.5;" x1="47.5" x2="308.5" y1="501.875" y2="501.875"/><ellipse cx="57.5" cy="512.875" fill="#84BE84" rx="3" ry="3" style="stroke:#038048;stroke-width:1.0;"/><text fill="#000000" font-family="sans-serif" font-size="14" lengthAdjust="spacing" textLength="108" x="66.5" y="520.4082">ClientController()</text><ellipse cx="57.5" cy="530.4844" fill="#84BE84" rx="3" ry="3" style="stroke:#038048;stroke-width:1.0;"/><text fill="#000000" font-family="sans-serif" font-size="14" lengthAdjust="spacing" textLength="91" x="66.5" y="538.0176">getNickname()</text><ellipse cx="57.5" cy="548.0938" fill="#84BE84" rx="3" ry="3" style="stroke:#038048;stroke-width:1.0;"/><text fill="#000000" font-family="sans-serif" font-size="14" lengthAdjust="spacing" textLength="84" x="66.5" y="555.627">getServerIP()</text><ellipse cx="57.5" cy="565.7031" fill="#84BE84" rx="3" ry="3" style="stroke:#038048;stroke-width:1.0;"/><text fill="#000000" font-family="sans-serif" font-size="14" lengthAdjust="spacing" textLength="105" x="66.5" y="573.2363">getViewLocked()</text><ellipse cx="57.5" cy="583.3125" fill="#84BE84" rx="3" ry="3" style="stroke:#038048;stroke-width:1.0;"/><text fill="#000000" font-family="sans-serif" font-size="14" lengthAdjust="spacing" textLength="94" x="66.5" y="590.8457">getViewMode()</text><ellipse cx="57.5" cy="600.9219" fill="#84BE84" rx="3" ry="3" style="stroke:#038048;stroke-width:1.0;"/><text fill="#000000" font-family="sans-serif" font-size="14" lengthAdjust="spacing" textLength="58" x="66.5" y="608.4551">lockGUI()</text><ellipse cx="57.5" cy="618.5313" fill="#84BE84" rx="3" ry="3" style="stroke:#038048;stroke-width:1.0;"/><text fill="#000000" font-family="sans-serif" font-size="14" lengthAdjust="spacing" textLength="145" x="66.5" y="626.0645">parseServerMessage()</text><ellipse cx="57.5" cy="636.1406" fill="#84BE84" rx="3" ry="3" style="stroke:#038048;stroke-width:1.0;"/><text fill="#000000" font-family="sans-serif" font-size="14" lengthAdjust="spacing" textLength="135" x="66.5" y="643.6738">playerDisconnected()</text><ellipse cx="57.5" cy="653.75" fill="#84BE84" rx="3" ry="3" style="stroke:#038048;stroke-width:1.0;"/><text fill="#000000" font-family="sans-serif" font-size="14" lengthAdjust="spacing" textLength="72" x="66.5" y="661.2832">quitLobby()</text><ellipse cx="57.5" cy="671.3594" fill="#84BE84" rx="3" ry="3" style="stroke:#038048;stroke-width:1.0;"/><text fill="#000000" font-family="sans-serif" font-size="14" lengthAdjust="spacing" textLength="89" x="66.5" y="678.8926">reconnected()</text><ellipse cx="57.5" cy="688.9688" fill="#84BE84" rx="3" ry="3" style="stroke:#038048;stroke-width:1.0;"/><text fill="#000000" font-family="sans-serif" font-size="14" lengthAdjust="spacing" textLength="86" x="66.5" y="696.502">requestCTE()</text><ellipse cx="57.5" cy="706.5781" fill="#84BE84" rx="3" ry="3" style="stroke:#038048;stroke-width:1.0;"/><text fill="#000000" font-family="sans-serif" font-size="14" lengthAdjust="spacing" textLength="130" x="66.5" y="714.1113">requestConnection()</text><ellipse cx="57.5" cy="724.1875" fill="#84BE84" rx="3" ry="3" style="stroke:#038048;stroke-width:1.0;"/><text fill="#000000" font-family="sans-serif" font-size="14" lengthAdjust="spacing" textLength="79" x="66.5" y="731.7207">requestETI()</text><ellipse cx="57.5" cy="741.7969" fill="#84BE84" rx="3" ry="3" style="stroke:#038048;stroke-width:1.0;"/><text fill="#000000" font-family="sans-serif" font-size="14" lengthAdjust="spacing" textLength="85" x="66.5" y="749.3301">requestETT()</text><ellipse cx="57.5" cy="759.4063" fill="#84BE84" rx="3" ry="3" style="stroke:#038048;stroke-width:1.0;"/><text fill="#000000" font-family="sans-serif" font-size="14" lengthAdjust="spacing" textLength="94" x="66.5" y="766.9395">requestEffect()</text><ellipse cx="57.5" cy="777.0156" fill="#84BE84" rx="3" ry="3" style="stroke:#038048;stroke-width:1.0;"/><text fill="#000000" font-family="sans-serif" font-size="14" lengthAdjust="spacing" textLength="99" x="66.5" y="784.5488">requestHelper()</text><ellipse cx="57.5" cy="794.625" fill="#84BE84" rx="3" ry="3" style="stroke:#038048;stroke-width:1.0;"/><text fill="#000000" font-family="sans-serif" font-size="14" lengthAdjust="spacing" textLength="100" x="66.5" y="802.1582">requestNature()</text><ellipse cx="57.5" cy="812.2344" fill="#84BE84" rx="3" ry="3" style="stroke:#038048;stroke-width:1.0;"/><text fill="#000000" font-family="sans-serif" font-size="14" lengthAdjust="spacing" textLength="122" x="66.5" y="819.7676">requestNewGame()</text><ellipse cx="57.5" cy="829.8438" fill="#84BE84" rx="3" ry="3" style="stroke:#038048;stroke-width:1.0;"/><text fill="#000000" font-family="sans-serif" font-size="14" lengthAdjust="spacing" textLength="119" x="66.5" y="837.377">requestNickname()</text><ellipse cx="57.5" cy="847.4531" fill="#84BE84" rx="3" ry="3" style="stroke:#038048;stroke-width:1.0;"/><text fill="#000000" font-family="sans-serif" font-size="14" lengthAdjust="spacing" textLength="95" x="66.5" y="854.9863">requestString()</text><ellipse cx="57.5" cy="865.0625" fill="#84BE84" rx="3" ry="3" style="stroke:#038048;stroke-width:1.0;"/><text fill="#000000" font-family="sans-serif" font-size="14" lengthAdjust="spacing" textLength="101" x="66.5" y="872.5957">requestWizard()</text><ellipse cx="57.5" cy="882.6719" fill="#84BE84" rx="3" ry="3" style="stroke:#038048;stroke-width:1.0;"/><text fill="#000000" font-family="sans-serif" font-size="14" lengthAdjust="spacing" textLength="105" x="66.5" y="890.2051">waitViewUnlock()</text><rect fill="#F24D5C" height="6" style="stroke:#C82930;stroke-width:1.0;" width="6" x="54.5" y="897.2813"/><text fill="#000000" font-family="sans-serif" font-size="14" lengthAdjust="spacing" textLength="121" x="66.5" y="907.8145">clearServerBuffer()</text><rect fill="#F24D5C" height="6" style="stroke:#C82930;stroke-width:1.0;" width="6" x="54.5" y="914.8906"/><text fill="#000000" font-family="sans-serif" font-size="14" lengthAdjust="spacing" textLength="174" x="66.5" y="925.4238">manageGameProsecution()</text><rect fill="#F24D5C" height="6" style="stroke:#C82930;stroke-width:1.0;" width="6" x="54.5" y="932.5"/><text fill="#000000" font-family="sans-serif" font-size="14" lengthAdjust="spacing" textLength="135" x="66.5" y="943.0332">nextServerMessage()</text></g><!--MD5=[042c1af2ab2f6a9a22cf13bbc23d3045]
class it.polimi.ingsw.client.controller.ClientControllerSingleton--><g id="elem_it.polimi.ingsw.client.controller.ClientControllerSingleton"><rect codeLine="45" fill="#F1F1F1" height="136.0469" id="it.polimi.ingsw.client.controller.ClientControllerSingleton" rx="2.5" ry="2.5" style="stroke:#181818;stroke-width:0.5;" width="248" x="54" y="142.2188"/><ellipse cx="95.55" cy="158.2188" fill="#ADD1B2" rx="11" ry="11" style="stroke:#181818;stroke-width:1.0;"/><path d="M97.55,154.7188 Q97.7531,154.2188 97.9875,153.9688 Q98.2219,153.7188 98.4875,153.7188 Q98.9563,153.7188 99.2531,154 Q99.55,154.2813 99.55,154.9375 L99.55,156.5 Q99.55,157.1563 99.2688,157.4375 Q98.9875,157.7188 98.55,157.7188 Q98.1594,157.7188 97.9094,157.5469 Q97.6594,157.375 97.55,156.9219 Q97.5031,156.6094 97.3313,156.4375 Q97.0188,156.1094 96.4563,155.9219 Q95.8938,155.7188 95.3313,155.7188 Q94.6281,155.7188 94.0344,156 Q93.4563,156.2813 93.0031,156.9063 Q92.55,157.5313 92.55,158.3906 L92.55,159.3125 Q92.55,160.3438 93.3938,161.0313 Q94.2375,161.7188 95.7375,161.7188 Q96.6281,161.7188 97.2531,161.5156 Q97.6125,161.4063 98.0188,161.0469 Q98.2844,160.8438 98.425,160.7813 Q98.5656,160.7188 98.7375,160.7188 Q99.0656,160.7188 99.3,160.9844 Q99.55,161.2344 99.55,161.5938 Q99.55,161.9375 99.2063,162.3438 Q98.7063,162.9375 97.9094,163.2656 Q96.8625,163.7188 95.5813,163.7188 Q94.0813,163.7188 92.8781,163.125 Q91.9094,162.6563 91.2219,161.6406 Q90.55,160.625 90.55,159.4219 L90.55,158.3281 Q90.55,157.0781 91.1438,155.9844 Q91.7531,154.8906 92.8,154.3125 Q93.8625,153.7188 95.05,153.7188 Q95.7688,153.7188 96.3938,153.9688 Q97.0188,154.2188 97.55,154.7188 Z " fill="#000000"/><text fill="#000000" font-family="sans-serif" font-size="14" lengthAdjust="spacing" textLength="157" x="115.45" y="163.9473">ClientControllerSingleton</text><line style="stroke:#181818;stroke-width:0.5;" x1="55" x2="301" y1="174.2188" y2="174.2188"/><rect fill="none" height="6" style="stroke:#C82930;stroke-width:1.0;" width="6" x="62" y="182.2188"/><text fill="#000000" font-family="sans-serif" font-size="14" lengthAdjust="spacing" text-decoration="underline" textLength="222" x="74" y="192.752">instance : ClientControllerSingleton</text><line style="stroke:#181818;stroke-width:0.5;" x1="55" x2="301" y1="199.8281" y2="199.8281"/><ellipse cx="65" cy="210.8281" fill="#84BE84" rx="3" ry="3" style="stroke:#038048;stroke-width:1.0;"/><text fill="#000000" font-family="sans-serif" font-size="14" lengthAdjust="spacing" textLength="128" x="74" y="218.3613">getClientController()</text><ellipse cx="65" cy="228.4375" fill="#84BE84" rx="3" ry="3" style="stroke:#038048;stroke-width:1.0;"/><text fill="#000000" font-family="sans-serif" font-size="14" lengthAdjust="spacing" text-decoration="underline" textLength="83" x="74" y="235.9707">getInstance()</text><ellipse cx="65" cy="246.0469" fill="#84BE84" rx="3" ry="3" style="stroke:#038048;stroke-width:1.0;"/><text fill="#000000" font-family="sans-serif" font-size="14" lengthAdjust="spacing" textLength="127" x="74" y="253.5801">setClientController()</text><rect fill="#F24D5C" height="6" style="stroke:#C82930;stroke-width:1.0;" width="6" x="62" y="260.6563"/><text fill="#000000" font-family="sans-serif" font-size="14" lengthAdjust="spacing" textLength="167" x="74" y="271.1895">ClientControllerSingleton()</text></g><!--MD5=[ee773c1a46450b7ebb76f6685a5e2889]
class it.polimi.ingsw.client.controller.ClientNetwork--><g id="elem_it.polimi.ingsw.client.controller.ClientNetwork"><rect codeLine="58" fill="#F1F1F1" height="188.875" id="it.polimi.ingsw.client.controller.ClientNetwork" rx="2.5" ry="2.5" style="stroke:#181818;stroke-width:0.5;" width="169" x="88.5" y="1028.2188"/><ellipse cx="126.45" cy="1044.2188" fill="#ADD1B2" rx="11" ry="11" style="stroke:#181818;stroke-width:1.0;"/><path d="M128.45,1040.7188 Q128.6531,1040.2188 128.8875,1039.9688 Q129.1219,1039.7188 129.3875,1039.7188 Q129.8563,1039.7188 130.1531,1040 Q130.45,1040.2813 130.45,1040.9375 L130.45,1042.5 Q130.45,1043.1563 130.1688,1043.4375 Q129.8875,1043.7188 129.45,1043.7188 Q129.0594,1043.7188 128.8094,1043.5469 Q128.5594,1043.375 128.45,1042.9219 Q128.4031,1042.6094 128.2313,1042.4375 Q127.9188,1042.1094 127.3563,1041.9219 Q126.7938,1041.7188 126.2313,1041.7188 Q125.5281,1041.7188 124.9344,1042 Q124.3563,1042.2813 123.9031,1042.9063 Q123.45,1043.5313 123.45,1044.3906 L123.45,1045.3125 Q123.45,1046.3438 124.2938,1047.0313 Q125.1375,1047.7188 126.6375,1047.7188 Q127.5281,1047.7188 128.1531,1047.5156 Q128.5125,1047.4063 128.9188,1047.0469 Q129.1844,1046.8438 129.325,1046.7813 Q129.4656,1046.7188 129.6375,1046.7188 Q129.9656,1046.7188 130.2,1046.9844 Q130.45,1047.2344 130.45,1047.5938 Q130.45,1047.9375 130.1063,1048.3438 Q129.6063,1048.9375 128.8094,1049.2656 Q127.7625,1049.7188 126.4813,1049.7188 Q124.9813,1049.7188 123.7781,1049.125 Q122.8094,1048.6563 122.1219,1047.6406 Q121.45,1046.625 121.45,1045.4219 L121.45,1044.3281 Q121.45,1043.0781 122.0438,1041.9844 Q122.6531,1040.8906 123.7,1040.3125 Q124.7625,1039.7188 125.95,1039.7188 Q126.6688,1039.7188 127.2938,1039.9688 Q127.9188,1040.2188 128.45,1040.7188 Z " fill="#000000"/><text fill="#000000" font-family="sans-serif" font-size="14" lengthAdjust="spacing" textLength="86" x="145.55" y="1049.9473">ClientNetwork</text><line style="stroke:#181818;stroke-width:0.5;" x1="89.5" x2="256.5" y1="1060.2188" y2="1060.2188"/><polygon fill="none" points="99.5,1067.2188,95.5,1073.2188,103.5,1073.2188" style="stroke:#1963A0;stroke-width:1.0;"/><text fill="#000000" font-family="sans-serif" font-size="14" lengthAdjust="spacing" textLength="130" x="108.5" y="1078.752">connected : Boolean</text><polygon fill="none" points="99.5,1084.8281,95.5,1090.8281,103.5,1090.8281" style="stroke:#1963A0;stroke-width:1.0;"/><text fill="#000000" font-family="sans-serif" font-size="14" lengthAdjust="spacing" textLength="96" x="108.5" y="1096.3613">socket : Socket</text><polygon fill="none" points="99.5,1102.4375,95.5,1108.4375,103.5,1108.4375" style="stroke:#1963A0;stroke-width:1.0;"/><text fill="#000000" font-family="sans-serif" font-size="14" lengthAdjust="spacing" textLength="117" x="108.5" y="1113.9707">socketIn : Scanner</text><polygon fill="none" points="99.5,1120.0469,95.5,1126.0469,103.5,1126.0469" style="stroke:#1963A0;stroke-width:1.0;"/><text fill="#000000" font-family="sans-serif" font-size="14" lengthAdjust="spacing" textLength="143" x="108.5" y="1131.5801">socketOut : PrintWriter</text><line style="stroke:#181818;stroke-width:0.5;" x1="89.5" x2="256.5" y1="1138.6563" y2="1138.6563"/><ellipse cx="99.5" cy="1149.6563" fill="#84BE84" rx="3" ry="3" style="stroke:#038048;stroke-width:1.0;"/><text fill="#000000" font-family="sans-serif" font-size="14" lengthAdjust="spacing" textLength="96" x="108.5" y="1157.1895">ClientNetwork()</text><ellipse cx="99.5" cy="1167.2656" fill="#84BE84" rx="3" ry="3" style="stroke:#038048;stroke-width:1.0;"/><text fill="#000000" font-family="sans-serif" font-size="14" lengthAdjust="spacing" textLength="98" x="108.5" y="1174.7988">sendMessage()</text><rect fill="#F24D5C" height="6" style="stroke:#C82930;stroke-width:1.0;" width="6" x="96.5" y="1181.875"/><text fill="#000000" font-family="sans-serif" font-size="14" lengthAdjust="spacing" textLength="105" x="108.5" y="1192.4082">catchException()</text><rect fill="#F24D5C" height="6" style="stroke:#C82930;stroke-width:1.0;" width="6" x="96.5" y="1199.4844"/><text fill="#000000" font-family="sans-serif" font-size="14" lengthAdjust="spacing" textLength="97" x="108.5" y="1210.0176">finalException()</text></g><!--MD5=[e65d535a5ae2e6d0b3d0a405acfa3469]
class it.polimi.ingsw.client.view.ViewInterface--><g id="elem_it.polimi.ingsw.client.view.ViewInterface"><rect fill="#F1F1F1" height="48" id="it.polimi.ingsw.client.view.ViewInterface" rx="2.5" ry="2.5" style="stroke:#181818;stroke-width:0.5;" width="116" x="390" y="1098.7188"/><ellipse cx="405" cy="1114.7188" fill="#ADD1B2" rx="11" ry="11" style="stroke:#181818;stroke-width:1.0;"/><path d="M407,1111.2188 Q407.2031,1110.7188 407.4375,1110.4688 Q407.6719,1110.2188 407.9375,1110.2188 Q408.4063,1110.2188 408.7031,1110.5 Q409,1110.7813 409,1111.4375 L409,1113 Q409,1113.6563 408.7188,1113.9375 Q408.4375,1114.2188 408,1114.2188 Q407.6094,1114.2188 407.3594,1114.0469 Q407.1094,1113.875 407,1113.4219 Q406.9531,1113.1094 406.7813,1112.9375 Q406.4688,1112.6094 405.9063,1112.4219 Q405.3438,1112.2188 404.7813,1112.2188 Q404.0781,1112.2188 403.4844,1112.5 Q402.9063,1112.7813 402.4531,1113.4063 Q402,1114.0313 402,1114.8906 L402,1115.8125 Q402,1116.8438 402.8438,1117.5313 Q403.6875,1118.2188 405.1875,1118.2188 Q406.0781,1118.2188 406.7031,1118.0156 Q407.0625,1117.9063 407.4688,1117.5469 Q407.7344,1117.3438 407.875,1117.2813 Q408.0156,1117.2188 408.1875,1117.2188 Q408.5156,1117.2188 408.75,1117.4844 Q409,1117.7344 409,1118.0938 Q409,1118.4375 408.6563,1118.8438 Q408.1563,1119.4375 407.3594,1119.7656 Q406.3125,1120.2188 405.0313,1120.2188 Q403.5313,1120.2188 402.3281,1119.625 Q401.3594,1119.1563 400.6719,1118.1406 Q400,1117.125 400,1115.9219 L400,1114.8281 Q400,1113.5781 400.5938,1112.4844 Q401.2031,1111.3906 402.25,1110.8125 Q403.3125,1110.2188 404.5,1110.2188 Q405.2188,1110.2188 405.8438,1110.4688 Q406.4688,1110.7188 407,1111.2188 Z " fill="#000000"/><text fill="#000000" font-family="sans-serif" font-size="14" lengthAdjust="spacing" textLength="84" x="419" y="1120.4473">ViewInterface</text><line style="stroke:#181818;stroke-width:0.5;" x1="391" x2="505" y1="1130.7188" y2="1130.7188"/><line style="stroke:#181818;stroke-width:0.5;" x1="391" x2="505" y1="1138.7188" y2="1138.7188"/></g><!--MD5=[7b3d68f254872c620948622517cf693c]
reverse link it.polimi.ingsw.client.controller.ClientController to it.polimi.ingsw.client.controller.ClientNetwork--><g id="link_it.polimi.ingsw.client.controller.ClientController_it.polimi.ingsw.client.controller.ClientNetwork"><path codeLine="72" d="M96.55,963.8087 C97.91,975.4488 100.03,986.9488 103,998.2188 C105.64,1008.2288 109.3,1018.2788 113.57,1028.0788 " fill="none" id="it.polimi.ingsw.client.controller.ClientController-backto-it.polimi.ingsw.client.controller.ClientNetwork" style="stroke:#181818;stroke-width:1.0;"/><polygon fill="none" points="95.32,950.6188,91.8979,956.9662,96.4409,962.5663,99.863,956.2189,95.32,950.6188" style="stroke:#181818;stroke-width:1.0;"/><text fill="#000000" font-family="sans-serif" font-size="13" lengthAdjust="spacing" textLength="68" x="104" y="994.7139">connectivity</text></g><!--MD5=[9d120af762b06617d91b0dc21274bc45]
reverse link it.polimi.ingsw.client.controller.ClientNetwork to it.polimi.ingsw.client.controller.ClientController--><g id="link_it.polimi.ingsw.client.controller.ClientNetwork_it.polimi.ingsw.client.controller.ClientController"><path codeLine="75" d="M176.66,1014.8288 C176.79,1009.2088 176.9,1003.6488 177,998.2188 C177.28,982.5487 177.51,966.4688 177.7,950.2388 " fill="none" id="it.polimi.ingsw.client.controller.ClientNetwork-backto-it.polimi.ingsw.client.controller.ClientController" style="stroke:#181818;stroke-width:1.0;"/><polygon fill="none" points="176.33,1027.9988,180.4803,1022.1017,176.6332,1016.0026,172.4829,1021.8996,176.33,1027.9988" style="stroke:#181818;stroke-width:1.0;"/><text fill="#000000" font-family="sans-serif" font-size="13" lengthAdjust="spacing" textLength="53" x="179" y="994.7139">controller</text></g><!--MD5=[3e0810c33b41fff0a9a05d89074427d0]
reverse link it.polimi.ingsw.client.controller.ClientController to it.polimi.ingsw.client.view.ViewInterface--><g id="link_it.polimi.ingsw.client.controller.ClientController_it.polimi.ingsw.client.view.ViewInterface"><path codeLine="73" d="M316.28,893.6488 C364.45,977.0487 412.06,1059.4788 434.56,1098.4488 " fill="none" id="it.polimi.ingsw.client.controller.ClientController-backto-it.polimi.ingsw.client.view.ViewInterface" style="stroke:#181818;stroke-width:1.0;"/><polygon fill="none" points="309.64,882.1488,309.1762,889.3449,315.6405,892.5408,316.1042,885.3446,309.64,882.1488" style="stroke:#181818;stroke-width:1.0;"/><text fill="#000000" font-family="sans-serif" font-size="13" lengthAdjust="spacing" textLength="24" x="376" y="994.7139">view</text></g><!--MD5=[d33d60bb50c0eef73a67fcc2d6833ca3]
reverse link it.polimi.ingsw.client.controller.ClientControllerSingleton to it.polimi.ingsw.client.controller.ClientController--><g id="link_it.polimi.ingsw.client.controller.ClientControllerSingleton_it.polimi.ingsw.client.controller.ClientController"><path codeLine="74" d="M178,291.9288 C178,311.1888 178,332.8688 178,355.7988 " fill="none" id="it.polimi.ingsw.client.controller.ClientControllerSingleton-backto-it.polimi.ingsw.client.controller.ClientController" style="stroke:#181818;stroke-width:1.0;"/><polygon fill="none" points="178,278.6788,174,284.6788,178,290.6788,182,284.6788,178,278.6788" style="stroke:#181818;stroke-width:1.0;"/><text fill="#000000" font-family="sans-serif" font-size="13" lengthAdjust="spacing" textLength="86" x="179" y="322.7139">clientController</text></g><rect height="50.3125" style="stroke:#00000000;stroke-width:1.0;fill:none;" width="394" x="169" y="1263.2188"/><text fill="#888888" font-family="sans-serif" font-size="10" lengthAdjust="spacing" textLength="3" x="364.5" y="1273.5996"> </text><text fill="#888888" font-family="sans-serif" font-size="10" lengthAdjust="spacing" textLength="3" x="364.5" y="1286.1777"> </text><text fill="#888888" font-family="sans-serif" font-size="10" lengthAdjust="spacing" textLength="392" x="170" y="1298.7559">PlantUML diagram generated by SketchIt! (https://bitbucket.org/pmesmeur/sketch.it)</text><text fill="#888888" font-family="sans-serif" font-size="10" lengthAdjust="spacing" textLength="394" x="169" y="1311.334">For more information about this tool, please contact philippe.mesmeur@gmail.com</text><!--MD5=[01c3398cbe632e30f9f35f65127cf663]
@startuml

title __CONTROLLER's Class Diagram__\n

  namespace it.polimi.ingsw.client {
    namespace controller {
      class it.polimi.ingsw.client.controller.ClientController {
          - playerNickname : String
          - serverBuffer : ArrayList<List<String>>
          - serverIP : String
          - viewBuffer : ArrayList<String>
          - viewLocked : Boolean
          - viewMode : String
          + ClientController()
          + getNickname()
          + getServerIP()
          + getViewLocked()
          + getViewMode()
          + lockGUI()
          + parseServerMessage()
          + playerDisconnected()
          + quitLobby()
          + reconnected()
          + requestCTE()
          + requestConnection()
          + requestETI()
          + requestETT()
          + requestEffect()
          + requestHelper()
          + requestNature()
          + requestNewGame()
          + requestNickname()
          + requestString()
          + requestWizard()
          + waitViewUnlock()
          - clearServerBuffer()
          - manageGameProsecution()
          - nextServerMessage()
      }
    }
  }
  

  namespace it.polimi.ingsw.client {
    namespace controller {
      class it.polimi.ingsw.client.controller.ClientControllerSingleton {
          {static} - instance : ClientControllerSingleton
          + getClientController()
          {static} + getInstance()
          + setClientController()
          - ClientControllerSingleton()
      }
    }
  }
  

  namespace it.polimi.ingsw.client {
    namespace controller {
      class it.polimi.ingsw.client.controller.ClientNetwork {
          ~ connected : Boolean
          ~ socket : Socket
          ~ socketIn : Scanner
          ~ socketOut : PrintWriter
          + ClientNetwork()
          + sendMessage()
          - catchException()
          - finalException()
      }
    }
  }
  

  it.polimi.ingsw.client.controller.ClientController o- - it.polimi.ingsw.client.controller.ClientNetwork : connectivity
  it.polimi.ingsw.client.controller.ClientController o- - it.polimi.ingsw.client.view.ViewInterface : view
  it.polimi.ingsw.client.controller.ClientControllerSingleton o- - it.polimi.ingsw.client.controller.ClientController : clientController
  it.polimi.ingsw.client.controller.ClientNetwork o- - it.polimi.ingsw.client.controller.ClientController : controller


right footer


PlantUML diagram generated by SketchIt! (https://bitbucket.org/pmesmeur/sketch.it)
For more information about this tool, please contact philippe.mesmeur@gmail.com
endfooter

@enduml

PlantUML version 1.2022.5(Sat Apr 30 12:55:52 CEST 2022)
(GPL source distribution)
Java Runtime: OpenJDK Runtime Environment
JVM: OpenJDK 64-Bit Server VM
Default Encoding: Cp1252
Language: en
Country: US
--></g></svg>