<?xml version="1.0" encoding="UTF-8" standalone="no"?><svg xmlns="http://www.w3.org/2000/svg" xmlns:xlink="http://www.w3.org/1999/xlink" contentStyleType="text/css" height="998px" preserveAspectRatio="none" style="width:1069px;height:998px;background:#FFFFFF;" version="1.1" viewBox="0 0 1069 998" width="1069px" zoomAndPan="magnify"><defs/><g><rect height="45.2188" style="stroke:#00000000;stroke-width:1.0;fill:none;" width="149" x="453" y="5"/><text fill="#000000" font-family="sans-serif" font-size="14" font-weight="bold" lengthAdjust="spacing" text-decoration="underline" textLength="139" x="458" y="24.5332">GUI's Class Diagram</text><text fill="#000000" font-family="sans-serif" font-size="14" font-weight="bold" lengthAdjust="spacing" textLength="4" x="525.5" y="42.1426"> </text><!--MD5=[1254e979b773d7dd91b2a0f20daaeac0]
cluster it.polimi.ingsw.client--><g id="cluster_it.polimi.ingsw.client"><path d="M599.5,62.2188 L743.5,62.2188 A3.75,3.75 0 0 1 746,64.7188 L753,85.8281 L896.5,85.8281 A2.5,2.5 0 0 1 899,88.3281 L899,931.7188 A2.5,2.5 0 0 1 896.5,934.2188 L599.5,934.2188 A2.5,2.5 0 0 1 597,931.7188 L597,64.7188 A2.5,2.5 0 0 1 599.5,62.2188 " style="stroke:#000000;stroke-width:1.5;fill:none;"/><line style="stroke:#000000;stroke-width:1.5;fill:none;" x1="597" x2="753" y1="85.8281" y2="85.8281"/><text fill="#000000" font-family="sans-serif" font-size="14" font-weight="bold" lengthAdjust="spacing" textLength="143" x="601" y="78.752">it.polimi.ingsw.client</text></g><!--MD5=[0ebdcbcf3276cc12072e15e40929a817]
cluster it.polimi.ingsw.client.view--><g id="cluster_it.polimi.ingsw.client.view"><path d="M623.5,106.2188 L657.5,106.2188 A3.75,3.75 0 0 1 660,108.7188 L667,129.8281 L872.5,129.8281 A2.5,2.5 0 0 1 875,132.3281 L875,907.7188 A2.5,2.5 0 0 1 872.5,910.2188 L623.5,910.2188 A2.5,2.5 0 0 1 621,907.7188 L621,108.7188 A2.5,2.5 0 0 1 623.5,106.2188 " style="stroke:#000000;stroke-width:1.5;fill:none;"/><line style="stroke:#000000;stroke-width:1.5;fill:none;" x1="621" x2="667" y1="129.8281" y2="129.8281"/><text fill="#000000" font-family="sans-serif" font-size="14" font-weight="bold" lengthAdjust="spacing" textLength="33" x="625" y="122.752">view</text></g><!--MD5=[75b296e927e6120ed93bef6c87995796]
cluster it.polimi.ingsw.client.view.gui--><g id="cluster_it.polimi.ingsw.client.view.gui"><path d="M647.5,237.2188 L670.5,237.2188 A3.75,3.75 0 0 1 673,239.7188 L680,260.8281 L848.5,260.8281 A2.5,2.5 0 0 1 851,263.3281 L851,883.7188 A2.5,2.5 0 0 1 848.5,886.2188 L647.5,886.2188 A2.5,2.5 0 0 1 645,883.7188 L645,239.7188 A2.5,2.5 0 0 1 647.5,237.2188 " style="stroke:#000000;stroke-width:1.5;fill:none;"/><line style="stroke:#000000;stroke-width:1.5;fill:none;" x1="645" x2="680" y1="260.8281" y2="260.8281"/><text fill="#000000" font-family="sans-serif" font-size="14" font-weight="bold" lengthAdjust="spacing" textLength="22" x="649" y="253.752">gui</text></g><!--MD5=[d2682686a630b2a347d42fef716b7e86]
cluster it.polimi.ingsw.client.controller--><g id="cluster_it.polimi.ingsw.client.controller"><path d="M8.5,671.7188 L225.5,671.7188 A3.75,3.75 0 0 1 228,674.2188 L235,695.3281 L235.5,695.3281 A2.5,2.5 0 0 1 238,697.8281 L238,769.2188 A2.5,2.5 0 0 1 235.5,771.7188 L8.5,771.7188 A2.5,2.5 0 0 1 6,769.2188 L6,674.2188 A2.5,2.5 0 0 1 8.5,671.7188 " style="stroke:#000000;stroke-width:1.5;fill:none;"/><line style="stroke:#000000;stroke-width:1.5;fill:none;" x1="6" x2="235" y1="695.3281" y2="695.3281"/><text fill="#000000" font-family="sans-serif" font-size="14" font-weight="bold" lengthAdjust="spacing" textLength="216" x="10" y="688.252">it.polimi.ingsw.client.controller</text></g><!--MD5=[e3dde271ecea58e0813f7d965ac3aba6]
cluster it.polimi.ingsw.server.model.gameClasses--><g id="cluster_it.polimi.ingsw.server.model.gameClasses"><path d="M264.5,671.7188 L560.5,671.7188 A3.75,3.75 0 0 1 563,674.2188 L570,695.3281 L570.5,695.3281 A2.5,2.5 0 0 1 573,697.8281 L573,769.2188 A2.5,2.5 0 0 1 570.5,771.7188 L264.5,771.7188 A2.5,2.5 0 0 1 262,769.2188 L262,674.2188 A2.5,2.5 0 0 1 264.5,671.7188 " style="stroke:#000000;stroke-width:1.5;fill:none;"/><line style="stroke:#000000;stroke-width:1.5;fill:none;" x1="262" x2="570" y1="695.3281" y2="695.3281"/><text fill="#000000" font-family="sans-serif" font-size="14" font-weight="bold" lengthAdjust="spacing" textLength="295" x="266" y="688.252">it.polimi.ingsw.server.model.gameClasses</text></g><!--MD5=[315bf7c36bcdbdaee5bb7549ab6e8767]
cluster javafx.application--><g id="cluster_javafx.application"><path d="M925.5,334.2188 L1049.5,334.2188 A3.75,3.75 0 0 1 1052,336.7188 L1059,357.8281 L1059.5,357.8281 A2.5,2.5 0 0 1 1062,360.3281 L1062,431.7188 A2.5,2.5 0 0 1 1059.5,434.2188 L925.5,434.2188 A2.5,2.5 0 0 1 923,431.7188 L923,336.7188 A2.5,2.5 0 0 1 925.5,334.2188 " style="stroke:#000000;stroke-width:1.5;fill:none;"/><line style="stroke:#000000;stroke-width:1.5;fill:none;" x1="923" x2="1059" y1="357.8281" y2="357.8281"/><text fill="#000000" font-family="sans-serif" font-size="14" font-weight="bold" lengthAdjust="spacing" textLength="123" x="927" y="350.752">javafx.application</text></g><!--MD5=[e65d535a5ae2e6d0b3d0a405acfa3469]
class it.polimi.ingsw.client.view.ViewInterface--><g id="elem_it.polimi.ingsw.client.view.ViewInterface"><rect fill="#F1F1F1" height="48" id="it.polimi.ingsw.client.view.ViewInterface" rx="2.5" ry="2.5" style="stroke:#181818;stroke-width:0.5;" width="116" x="690" y="142.2188"/><ellipse cx="705" cy="158.2188" fill="#ADD1B2" rx="11" ry="11" style="stroke:#181818;stroke-width:1.0;"/><path d="M707,154.7188 Q707.2031,154.2188 707.4375,153.9688 Q707.6719,153.7188 707.9375,153.7188 Q708.4063,153.7188 708.7031,154 Q709,154.2813 709,154.9375 L709,156.5 Q709,157.1563 708.7188,157.4375 Q708.4375,157.7188 708,157.7188 Q707.6094,157.7188 707.3594,157.5469 Q707.1094,157.375 707,156.9219 Q706.9531,156.6094 706.7813,156.4375 Q706.4688,156.1094 705.9063,155.9219 Q705.3438,155.7188 704.7813,155.7188 Q704.0781,155.7188 703.4844,156 Q702.9063,156.2813 702.4531,156.9063 Q702,157.5313 702,158.3906 L702,159.3125 Q702,160.3438 702.8438,161.0313 Q703.6875,161.7188 705.1875,161.7188 Q706.0781,161.7188 706.7031,161.5156 Q707.0625,161.4063 707.4688,161.0469 Q707.7344,160.8438 707.875,160.7813 Q708.0156,160.7188 708.1875,160.7188 Q708.5156,160.7188 708.75,160.9844 Q709,161.2344 709,161.5938 Q709,161.9375 708.6563,162.3438 Q708.1563,162.9375 707.3594,163.2656 Q706.3125,163.7188 705.0313,163.7188 Q703.5313,163.7188 702.3281,163.125 Q701.3594,162.6563 700.6719,161.6406 Q700,160.625 700,159.4219 L700,158.3281 Q700,157.0781 700.5938,155.9844 Q701.2031,154.8906 702.25,154.3125 Q703.3125,153.7188 704.5,153.7188 Q705.2188,153.7188 705.8438,153.9688 Q706.4688,154.2188 707,154.7188 Z " fill="#000000"/><text fill="#000000" font-family="sans-serif" font-size="14" lengthAdjust="spacing" textLength="84" x="719" y="163.9473">ViewInterface</text><line style="stroke:#181818;stroke-width:0.5;" x1="691" x2="805" y1="174.2188" y2="174.2188"/><line style="stroke:#181818;stroke-width:0.5;" x1="691" x2="805" y1="182.2188" y2="182.2188"/></g><!--MD5=[885ac0b90fc51b063e86d0d2723201d9]
class it.polimi.ingsw.client.view.gui.guiClass--><g id="elem_it.polimi.ingsw.client.view.gui.guiClass"><rect codeLine="7" fill="#F1F1F1" height="241.7031" id="it.polimi.ingsw.client.view.gui.guiClass" rx="2.5" ry="2.5" style="stroke:#181818;stroke-width:0.5;" width="174" x="661" y="273.2188"/><ellipse cx="716.75" cy="289.2188" fill="#ADD1B2" rx="11" ry="11" style="stroke:#181818;stroke-width:1.0;"/><path d="M718.75,285.7188 Q718.9531,285.2188 719.1875,284.9688 Q719.4219,284.7188 719.6875,284.7188 Q720.1563,284.7188 720.4531,285 Q720.75,285.2813 720.75,285.9375 L720.75,287.5 Q720.75,288.1563 720.4688,288.4375 Q720.1875,288.7188 719.75,288.7188 Q719.3594,288.7188 719.1094,288.5469 Q718.8594,288.375 718.75,287.9219 Q718.7031,287.6094 718.5313,287.4375 Q718.2188,287.1094 717.6563,286.9219 Q717.0938,286.7188 716.5313,286.7188 Q715.8281,286.7188 715.2344,287 Q714.6563,287.2813 714.2031,287.9063 Q713.75,288.5313 713.75,289.3906 L713.75,290.3125 Q713.75,291.3438 714.5938,292.0313 Q715.4375,292.7188 716.9375,292.7188 Q717.8281,292.7188 718.4531,292.5156 Q718.8125,292.4063 719.2188,292.0469 Q719.4844,291.8438 719.625,291.7813 Q719.7656,291.7188 719.9375,291.7188 Q720.2656,291.7188 720.5,291.9844 Q720.75,292.2344 720.75,292.5938 Q720.75,292.9375 720.4063,293.3438 Q719.9063,293.9375 719.1094,294.2656 Q718.0625,294.7188 716.7813,294.7188 Q715.2813,294.7188 714.0781,294.125 Q713.1094,293.6563 712.4219,292.6406 Q711.75,291.625 711.75,290.4219 L711.75,289.3281 Q711.75,288.0781 712.3438,286.9844 Q712.9531,285.8906 714,285.3125 Q715.0625,284.7188 716.25,284.7188 Q716.9688,284.7188 717.5938,284.9688 Q718.2188,285.2188 718.75,285.7188 Z " fill="#000000"/><text fill="#000000" font-family="sans-serif" font-size="14" lengthAdjust="spacing" textLength="54" x="737.25" y="294.9473">guiClass</text><line style="stroke:#181818;stroke-width:0.5;" x1="662" x2="834" y1="305.2188" y2="305.2188"/><polygon fill="none" points="672,312.2188,668,318.2188,676,318.2188" style="stroke:#1963A0;stroke-width:1.0;"/><text fill="#000000" font-family="sans-serif" font-size="14" lengthAdjust="spacing" textLength="77" x="681" y="323.752">gson : Gson</text><line style="stroke:#181818;stroke-width:0.5;" x1="662" x2="834" y1="330.8281" y2="330.8281"/><ellipse cx="672" cy="341.8281" fill="#84BE84" rx="3" ry="3" style="stroke:#038048;stroke-width:1.0;"/><text fill="#000000" font-family="sans-serif" font-size="14" lengthAdjust="spacing" textLength="74" x="681" y="349.3613">endScene()</text><ellipse cx="672" cy="359.4375" fill="#84BE84" rx="3" ry="3" style="stroke:#038048;stroke-width:1.0;"/><text fill="#000000" font-family="sans-serif" font-size="14" lengthAdjust="spacing" textLength="64" x="681" y="366.9707">guiClass()</text><ellipse cx="672" cy="377.0469" fill="#84BE84" rx="3" ry="3" style="stroke:#038048;stroke-width:1.0;"/><text fill="#000000" font-family="sans-serif" font-size="14" lengthAdjust="spacing" textLength="90" x="681" y="384.5801">helperScene()</text><ellipse cx="672" cy="394.6563" fill="#84BE84" rx="3" ry="3" style="stroke:#038048;stroke-width:1.0;"/><text fill="#000000" font-family="sans-serif" font-size="14" lengthAdjust="spacing" textLength="64" x="681" y="402.1895">lockView()</text><ellipse cx="672" cy="412.2656" fill="#84BE84" rx="3" ry="3" style="stroke:#038048;stroke-width:1.0;"/><text fill="#000000" font-family="sans-serif" font-size="14" lengthAdjust="spacing" textLength="148" x="681" y="419.7988">manageReconnection()</text><ellipse cx="672" cy="429.875" fill="#84BE84" rx="3" ry="3" style="stroke:#038048;stroke-width:1.0;"/><text fill="#000000" font-family="sans-serif" font-size="14" lengthAdjust="spacing" textLength="107" x="681" y="437.4082">messageScene()</text><ellipse cx="672" cy="447.4844" fill="#84BE84" rx="3" ry="3" style="stroke:#038048;stroke-width:1.0;"/><text fill="#000000" font-family="sans-serif" font-size="14" lengthAdjust="spacing" textLength="78" x="681" y="455.0176">startScene()</text><ellipse cx="672" cy="465.0938" fill="#84BE84" rx="3" ry="3" style="stroke:#038048;stroke-width:1.0;"/><text fill="#000000" font-family="sans-serif" font-size="14" lengthAdjust="spacing" textLength="83" x="681" y="472.627">updateView()</text><ellipse cx="672" cy="482.7031" fill="#84BE84" rx="3" ry="3" style="stroke:#038048;stroke-width:1.0;"/><text fill="#000000" font-family="sans-serif" font-size="14" lengthAdjust="spacing" textLength="113" x="681" y="490.2363">waitLobbyScene()</text><ellipse cx="672" cy="500.3125" fill="#84BE84" rx="3" ry="3" style="stroke:#038048;stroke-width:1.0;"/><text fill="#000000" font-family="sans-serif" font-size="14" lengthAdjust="spacing" textLength="89" x="681" y="507.8457">wizardScene()</text></g><!--MD5=[3b77fa728f39adf800987c02dff2352e]
class it.polimi.ingsw.client.view.gui.mainStage--><g id="elem_it.polimi.ingsw.client.view.gui.mainStage"><rect codeLine="28" fill="#F1F1F1" height="276.9219" id="it.polimi.ingsw.client.view.gui.mainStage" rx="2.5" ry="2.5" style="stroke:#181818;stroke-width:0.5;" width="147" x="683.5" y="593.2188"/><ellipse cx="720.1" cy="609.2188" fill="#ADD1B2" rx="11" ry="11" style="stroke:#181818;stroke-width:1.0;"/><path d="M722.1,605.7188 Q722.3031,605.2188 722.5375,604.9688 Q722.7719,604.7188 723.0375,604.7188 Q723.5063,604.7188 723.8031,605 Q724.1,605.2813 724.1,605.9375 L724.1,607.5 Q724.1,608.1563 723.8188,608.4375 Q723.5375,608.7188 723.1,608.7188 Q722.7094,608.7188 722.4594,608.5469 Q722.2094,608.375 722.1,607.9219 Q722.0531,607.6094 721.8813,607.4375 Q721.5688,607.1094 721.0063,606.9219 Q720.4438,606.7188 719.8813,606.7188 Q719.1781,606.7188 718.5844,607 Q718.0063,607.2813 717.5531,607.9063 Q717.1,608.5313 717.1,609.3906 L717.1,610.3125 Q717.1,611.3438 717.9438,612.0313 Q718.7875,612.7188 720.2875,612.7188 Q721.1781,612.7188 721.8031,612.5156 Q722.1625,612.4063 722.5688,612.0469 Q722.8344,611.8438 722.975,611.7813 Q723.1156,611.7188 723.2875,611.7188 Q723.6156,611.7188 723.85,611.9844 Q724.1,612.2344 724.1,612.5938 Q724.1,612.9375 723.7563,613.3438 Q723.2563,613.9375 722.4594,614.2656 Q721.4125,614.7188 720.1313,614.7188 Q718.6313,614.7188 717.4281,614.125 Q716.4594,613.6563 715.7719,612.6406 Q715.1,611.625 715.1,610.4219 L715.1,609.3281 Q715.1,608.0781 715.6938,606.9844 Q716.3031,605.8906 717.35,605.3125 Q718.4125,604.7188 719.6,604.7188 Q720.3188,604.7188 720.9438,604.9688 Q721.5688,605.2188 722.1,605.7188 Z " fill="#000000"/><text fill="#000000" font-family="sans-serif" font-size="14" lengthAdjust="spacing" textLength="67" x="738.9" y="614.9473">mainStage</text><line style="stroke:#181818;stroke-width:0.5;" x1="684.5" x2="829.5" y1="625.2188" y2="625.2188"/><rect fill="none" height="6" style="stroke:#C82930;stroke-width:1.0;" width="6" x="691.5" y="633.2188"/><text fill="#000000" font-family="sans-serif" font-size="14" lengthAdjust="spacing" textLength="108" x="703.5" y="643.752">deckPath : String</text><rect fill="none" height="6" style="stroke:#C82930;stroke-width:1.0;" width="6" x="691.5" y="650.8281"/><text fill="#000000" font-family="sans-serif" font-size="14" lengthAdjust="spacing" textLength="79" x="703.5" y="661.3613">root : Parent</text><rect fill="none" height="6" style="stroke:#C82930;stroke-width:1.0;" width="6" x="691.5" y="668.4375"/><text fill="#000000" font-family="sans-serif" font-size="14" lengthAdjust="spacing" textLength="90" x="703.5" y="678.9707">scene : Scene</text><rect fill="none" height="6" style="stroke:#C82930;stroke-width:1.0;" width="6" x="691.5" y="686.0469"/><text fill="#000000" font-family="sans-serif" font-size="14" lengthAdjust="spacing" textLength="84" x="703.5" y="696.5801">stage : Stage</text><rect fill="none" height="6" style="stroke:#C82930;stroke-width:1.0;" width="6" x="691.5" y="703.6563"/><text fill="#000000" font-family="sans-serif" font-size="14" lengthAdjust="spacing" textLength="106" x="703.5" y="714.1895">startPath : String</text><rect fill="none" height="6" style="stroke:#C82930;stroke-width:1.0;" width="6" x="691.5" y="721.2656"/><text fill="#000000" font-family="sans-serif" font-size="14" lengthAdjust="spacing" textLength="121" x="703.5" y="731.7988">waitingPath : String</text><rect fill="none" height="6" style="stroke:#C82930;stroke-width:1.0;" width="6" x="691.5" y="738.875"/><text fill="#000000" font-family="sans-serif" font-size="14" lengthAdjust="spacing" textLength="117" x="703.5" y="749.4082">wizardPath : String</text><line style="stroke:#181818;stroke-width:0.5;" x1="684.5" x2="829.5" y1="756.4844" y2="756.4844"/><ellipse cx="694.5" cy="767.4844" fill="#84BE84" rx="3" ry="3" style="stroke:#038048;stroke-width:1.0;"/><text fill="#000000" font-family="sans-serif" font-size="14" lengthAdjust="spacing" textLength="90" x="703.5" y="775.0176">helperScene()</text><ellipse cx="694.5" cy="785.0938" fill="#84BE84" rx="3" ry="3" style="stroke:#038048;stroke-width:1.0;"/><text fill="#000000" font-family="sans-serif" font-size="14" lengthAdjust="spacing" text-decoration="underline" textLength="40" x="703.5" y="792.627">main()</text><ellipse cx="694.5" cy="802.7031" fill="#84BE84" rx="3" ry="3" style="stroke:#038048;stroke-width:1.0;"/><text fill="#000000" font-family="sans-serif" font-size="14" lengthAdjust="spacing" textLength="38" x="703.5" y="810.2363">start()</text><ellipse cx="694.5" cy="820.3125" fill="#84BE84" rx="3" ry="3" style="stroke:#038048;stroke-width:1.0;"/><text fill="#000000" font-family="sans-serif" font-size="14" lengthAdjust="spacing" textLength="78" x="703.5" y="827.8457">startScene()</text><ellipse cx="694.5" cy="837.9219" fill="#84BE84" rx="3" ry="3" style="stroke:#038048;stroke-width:1.0;"/><text fill="#000000" font-family="sans-serif" font-size="14" lengthAdjust="spacing" textLength="93" x="703.5" y="845.4551">waitingScene()</text><ellipse cx="694.5" cy="855.5313" fill="#84BE84" rx="3" ry="3" style="stroke:#038048;stroke-width:1.0;"/><text fill="#000000" font-family="sans-serif" font-size="14" lengthAdjust="spacing" textLength="89" x="703.5" y="863.0645">wizardScene()</text></g><!--MD5=[8848b1e65c58f6a704fcaa22f9a804af]
class it.polimi.ingsw.client.controller.ClientController--><g id="elem_it.polimi.ingsw.client.controller.ClientController"><rect fill="#F1F1F1" height="48" id="it.polimi.ingsw.client.controller.ClientController" rx="2.5" ry="2.5" style="stroke:#181818;stroke-width:0.5;" width="130" x="92" y="707.7188"/><ellipse cx="107" cy="723.7188" fill="#ADD1B2" rx="11" ry="11" style="stroke:#181818;stroke-width:1.0;"/><path d="M109,720.2188 Q109.2031,719.7188 109.4375,719.4688 Q109.6719,719.2188 109.9375,719.2188 Q110.4063,719.2188 110.7031,719.5 Q111,719.7813 111,720.4375 L111,722 Q111,722.6563 110.7188,722.9375 Q110.4375,723.2188 110,723.2188 Q109.6094,723.2188 109.3594,723.0469 Q109.1094,722.875 109,722.4219 Q108.9531,722.1094 108.7813,721.9375 Q108.4688,721.6094 107.9063,721.4219 Q107.3438,721.2188 106.7813,721.2188 Q106.0781,721.2188 105.4844,721.5 Q104.9063,721.7813 104.4531,722.4063 Q104,723.0313 104,723.8906 L104,724.8125 Q104,725.8438 104.8438,726.5313 Q105.6875,727.2188 107.1875,727.2188 Q108.0781,727.2188 108.7031,727.0156 Q109.0625,726.9063 109.4688,726.5469 Q109.7344,726.3438 109.875,726.2813 Q110.0156,726.2188 110.1875,726.2188 Q110.5156,726.2188 110.75,726.4844 Q111,726.7344 111,727.0938 Q111,727.4375 110.6563,727.8438 Q110.1563,728.4375 109.3594,728.7656 Q108.3125,729.2188 107.0313,729.2188 Q105.5313,729.2188 104.3281,728.625 Q103.3594,728.1563 102.6719,727.1406 Q102,726.125 102,724.9219 L102,723.8281 Q102,722.5781 102.5938,721.4844 Q103.2031,720.3906 104.25,719.8125 Q105.3125,719.2188 106.5,719.2188 Q107.2188,719.2188 107.8438,719.4688 Q108.4688,719.7188 109,720.2188 Z " fill="#000000"/><text fill="#000000" font-family="sans-serif" font-size="14" lengthAdjust="spacing" textLength="98" x="121" y="729.4473">ClientController</text><line style="stroke:#181818;stroke-width:0.5;" x1="93" x2="221" y1="739.7188" y2="739.7188"/><line style="stroke:#181818;stroke-width:0.5;" x1="93" x2="221" y1="747.7188" y2="747.7188"/></g><!--MD5=[385ab338233e696960f3a7d24cc61f25]
class it.polimi.ingsw.server.model.gameClasses.GameClass--><g id="elem_it.polimi.ingsw.server.model.gameClasses.GameClass"><rect fill="#F1F1F1" height="48" id="it.polimi.ingsw.server.model.gameClasses.GameClass" rx="2.5" ry="2.5" style="stroke:#181818;stroke-width:0.5;" width="105" x="451.5" y="707.7188"/><ellipse cx="466.5" cy="723.7188" fill="#ADD1B2" rx="11" ry="11" style="stroke:#181818;stroke-width:1.0;"/><path d="M468.5,720.2188 Q468.7031,719.7188 468.9375,719.4688 Q469.1719,719.2188 469.4375,719.2188 Q469.9063,719.2188 470.2031,719.5 Q470.5,719.7813 470.5,720.4375 L470.5,722 Q470.5,722.6563 470.2188,722.9375 Q469.9375,723.2188 469.5,723.2188 Q469.1094,723.2188 468.8594,723.0469 Q468.6094,722.875 468.5,722.4219 Q468.4531,722.1094 468.2813,721.9375 Q467.9688,721.6094 467.4063,721.4219 Q466.8438,721.2188 466.2813,721.2188 Q465.5781,721.2188 464.9844,721.5 Q464.4063,721.7813 463.9531,722.4063 Q463.5,723.0313 463.5,723.8906 L463.5,724.8125 Q463.5,725.8438 464.3438,726.5313 Q465.1875,727.2188 466.6875,727.2188 Q467.5781,727.2188 468.2031,727.0156 Q468.5625,726.9063 468.9688,726.5469 Q469.2344,726.3438 469.375,726.2813 Q469.5156,726.2188 469.6875,726.2188 Q470.0156,726.2188 470.25,726.4844 Q470.5,726.7344 470.5,727.0938 Q470.5,727.4375 470.1563,727.8438 Q469.6563,728.4375 468.8594,728.7656 Q467.8125,729.2188 466.5313,729.2188 Q465.0313,729.2188 463.8281,728.625 Q462.8594,728.1563 462.1719,727.1406 Q461.5,726.125 461.5,724.9219 L461.5,723.8281 Q461.5,722.5781 462.0938,721.4844 Q462.7031,720.3906 463.75,719.8125 Q464.8125,719.2188 466,719.2188 Q466.7188,719.2188 467.3438,719.4688 Q467.9688,719.7188 468.5,720.2188 Z " fill="#000000"/><text fill="#000000" font-family="sans-serif" font-size="14" lengthAdjust="spacing" textLength="73" x="480.5" y="729.4473">GameClass</text><line style="stroke:#181818;stroke-width:0.5;" x1="452.5" x2="555.5" y1="739.7188" y2="739.7188"/><line style="stroke:#181818;stroke-width:0.5;" x1="452.5" x2="555.5" y1="747.7188" y2="747.7188"/></g><!--MD5=[e3612552781b2b3849880f2b7cc3064d]
class javafx.application.Application--><g id="elem_javafx.application.Application"><rect fill="#F1F1F1" height="48" id="javafx.application.Application" rx="2.5" ry="2.5" style="stroke:#181818;stroke-width:0.5;" width="101" x="939.5" y="370.2188"/><ellipse cx="954.5" cy="386.2188" fill="#ADD1B2" rx="11" ry="11" style="stroke:#181818;stroke-width:1.0;"/><path d="M956.5,382.7188 Q956.7031,382.2188 956.9375,381.9688 Q957.1719,381.7188 957.4375,381.7188 Q957.9063,381.7188 958.2031,382 Q958.5,382.2813 958.5,382.9375 L958.5,384.5 Q958.5,385.1563 958.2188,385.4375 Q957.9375,385.7188 957.5,385.7188 Q957.1094,385.7188 956.8594,385.5469 Q956.6094,385.375 956.5,384.9219 Q956.4531,384.6094 956.2813,384.4375 Q955.9688,384.1094 955.4063,383.9219 Q954.8438,383.7188 954.2813,383.7188 Q953.5781,383.7188 952.9844,384 Q952.4063,384.2813 951.9531,384.9063 Q951.5,385.5313 951.5,386.3906 L951.5,387.3125 Q951.5,388.3438 952.3438,389.0313 Q953.1875,389.7188 954.6875,389.7188 Q955.5781,389.7188 956.2031,389.5156 Q956.5625,389.4063 956.9688,389.0469 Q957.2344,388.8438 957.375,388.7813 Q957.5156,388.7188 957.6875,388.7188 Q958.0156,388.7188 958.25,388.9844 Q958.5,389.2344 958.5,389.5938 Q958.5,389.9375 958.1563,390.3438 Q957.6563,390.9375 956.8594,391.2656 Q955.8125,391.7188 954.5313,391.7188 Q953.0313,391.7188 951.8281,391.125 Q950.8594,390.6563 950.1719,389.6406 Q949.5,388.625 949.5,387.4219 L949.5,386.3281 Q949.5,385.0781 950.0938,383.9844 Q950.7031,382.8906 951.75,382.3125 Q952.8125,381.7188 954,381.7188 Q954.7188,381.7188 955.3438,381.9688 Q955.9688,382.2188 956.5,382.7188 Z " fill="#000000"/><text fill="#000000" font-family="sans-serif" font-size="14" lengthAdjust="spacing" textLength="69" x="968.5" y="391.9473">Application</text><line style="stroke:#181818;stroke-width:0.5;" x1="940.5" x2="1039.5" y1="402.2188" y2="402.2188"/><line style="stroke:#181818;stroke-width:0.5;" x1="940.5" x2="1039.5" y1="410.2188" y2="410.2188"/></g><!--MD5=[3303062621aed750b2b7d3ded28b03a2]
reverse link it.polimi.ingsw.client.view.ViewInterface to it.polimi.ingsw.client.view.gui.guiClass--><g id="link_it.polimi.ingsw.client.view.ViewInterface_it.polimi.ingsw.client.view.gui.guiClass"><path codeLine="48" d="M748,210.7888 C748,228.8787 748,250.8388 748,273.1688 " fill="none" id="it.polimi.ingsw.client.view.ViewInterface-backto-it.polimi.ingsw.client.view.gui.guiClass" style="stroke:#181818;stroke-width:1.0;stroke-dasharray:7.0,7.0;"/><polygon fill="none" points="741,210.5488,748,190.5488,755,210.5488,741,210.5488" style="stroke:#181818;stroke-width:1.0;"/></g><!--MD5=[9ae200b8d52bce5709b03d9850a6c5b6]
reverse link it.polimi.ingsw.client.view.gui.guiClass to it.polimi.ingsw.client.controller.ClientController--><g id="link_it.polimi.ingsw.client.view.gui.guiClass_it.polimi.ingsw.client.controller.ClientController"><path codeLine="49" d="M649.14,451.3388 C517.4,526.1288 290.2,655.0988 197.83,707.5387 " fill="none" id="it.polimi.ingsw.client.view.gui.guiClass-backto-it.polimi.ingsw.client.controller.ClientController" style="stroke:#181818;stroke-width:1.0;"/><polygon fill="none" points="660.8,444.7188,653.6069,444.2089,650.3697,450.6525,657.5628,451.1624,660.8,444.7188" style="stroke:#181818;stroke-width:1.0;"/><text fill="#000000" font-family="sans-serif" font-size="13" lengthAdjust="spacing" textLength="53" x="471" y="559.7139">controller</text></g><!--MD5=[38a0c3bbf20c63966b87c970816f7251]
reverse link it.polimi.ingsw.client.view.gui.guiClass to it.polimi.ingsw.server.model.gameClasses.GameClass--><g id="link_it.polimi.ingsw.client.view.gui.guiClass_it.polimi.ingsw.server.model.gameClasses.GameClass"><path codeLine="50" d="M653.08,525.7288 C603.73,593.5888 548.15,670.0088 520.9,707.4788 " fill="none" id="it.polimi.ingsw.client.view.gui.guiClass-backto-it.polimi.ingsw.server.model.gameClasses.GameClass" style="stroke:#181818;stroke-width:1.0;"/><polygon fill="none" points="660.94,514.9188,654.1766,517.4201,653.8843,524.6253,660.6477,522.1239,660.94,514.9188" style="stroke:#181818;stroke-width:1.0;"/><text fill="#000000" font-family="sans-serif" font-size="13" lengthAdjust="spacing" textLength="59" x="634" y="559.7139">gameData</text></g><!--MD5=[d299b3acb3ccad3b07c89e59e2556ba3]
reverse link it.polimi.ingsw.client.view.gui.guiClass to it.polimi.ingsw.client.view.gui.mainStage--><g id="link_it.polimi.ingsw.client.view.gui.guiClass_it.polimi.ingsw.client.view.gui.mainStage"><path codeLine="51" d="M751.58,528.5088 C752.15,549.7588 752.74,571.7788 753.31,593.1188 " fill="none" id="it.polimi.ingsw.client.view.gui.guiClass-backto-it.polimi.ingsw.client.view.gui.mainStage" style="stroke:#181818;stroke-width:1.0;"/><polygon fill="none" points="751.22,515.3988,747.3796,521.5021,751.5364,527.3946,755.3768,521.2912,751.22,515.3988" style="stroke:#181818;stroke-width:1.0;"/><text fill="#000000" font-family="sans-serif" font-size="13" lengthAdjust="spacing" textLength="60" x="753" y="559.7139">mainstage</text></g><!--MD5=[d5034050dca7050ee8d6712f0be2a4dc]
reverse link javafx.application.Application to it.polimi.ingsw.client.view.gui.mainStage--><g id="link_javafx.application.Application_it.polimi.ingsw.client.view.gui.mainStage"><path codeLine="52" d="M962.4,434.9588 C930.15,481.3988 875.49,560.0988 830.66,624.6488 " fill="none" id="javafx.application.Application-backto-it.polimi.ingsw.client.view.gui.mainStage" style="stroke:#181818;stroke-width:1.0;"/><polygon fill="none" points="956.83,430.7088,973.98,418.2787,968.33,438.6988,956.83,430.7088" style="stroke:#181818;stroke-width:1.0;"/></g><rect height="50.3125" style="stroke:#00000000;stroke-width:1.0;fill:none;" width="394" x="661" y="940.2188"/><text fill="#888888" font-family="sans-serif" font-size="10" lengthAdjust="spacing" textLength="3" x="856.5" y="950.5996"> </text><text fill="#888888" font-family="sans-serif" font-size="10" lengthAdjust="spacing" textLength="3" x="856.5" y="963.1777"> </text><text fill="#888888" font-family="sans-serif" font-size="10" lengthAdjust="spacing" textLength="392" x="662" y="975.7559">PlantUML diagram generated by SketchIt! (https://bitbucket.org/pmesmeur/sketch.it)</text><text fill="#888888" font-family="sans-serif" font-size="10" lengthAdjust="spacing" textLength="394" x="661" y="988.334">For more information about this tool, please contact philippe.mesmeur@gmail.com</text><!--MD5=[4513ad1a40d2445ae8f056003d6661ee]
@startuml

title __GUI's Class Diagram__\n

  namespace it.polimi.ingsw.client {
    namespace view {
      namespace gui {
        class it.polimi.ingsw.client.view.gui.guiClass {
            ~ gson : Gson
            + endScene()
            + guiClass()
            + helperScene()
            + lockView()
            + manageReconnection()
            + messageScene()
            + startScene()
            + updateView()
            + waitLobbyScene()
            + wizardScene()
        }
      }
    }
  }
  

  namespace it.polimi.ingsw.client {
    namespace view {
      namespace gui {
        class it.polimi.ingsw.client.view.gui.mainStage {
            - deckPath : String
            - root : Parent
            - scene : Scene
            - stage : Stage
            - startPath : String
            - waitingPath : String
            - wizardPath : String
            + helperScene()
            {static} + main()
            + start()
            + startScene()
            + waitingScene()
            + wizardScene()
        }
      }
    }
  }
  

  it.polimi.ingsw.client.view.gui.guiClass .up.|> it.polimi.ingsw.client.view.ViewInterface
  it.polimi.ingsw.client.view.gui.guiClass o- - it.polimi.ingsw.client.controller.ClientController : controller
  it.polimi.ingsw.client.view.gui.guiClass o- - it.polimi.ingsw.server.model.gameClasses.GameClass : gameData
  it.polimi.ingsw.client.view.gui.guiClass o- - it.polimi.ingsw.client.view.gui.mainStage : mainstage
  it.polimi.ingsw.client.view.gui.mainStage -up-|> javafx.application.Application


right footer


PlantUML diagram generated by SketchIt! (https://bitbucket.org/pmesmeur/sketch.it)
For more information about this tool, please contact philippe.mesmeur@gmail.com
endfooter

@enduml

PlantUML version 1.2022.5(Sat Apr 30 12:55:52 CEST 2022)
(GPL source distribution)
Java Runtime: OpenJDK Runtime Environment
JVM: OpenJDK 64-Bit Server VM
Default Encoding: Cp1252
Language: en
Country: US
--></g></svg>